<?xml version="1.0" encoding="UTF-8" standalone="no"?>
<svg
   width="22"
   height="22"
   version="1.1"
   id="svg1"
   sodipodi:docname="akonadi-symbolic.svg"
   inkscape:version="1.3.2 (091e20ef0f, 2023-11-25)"
   xmlns:inkscape="http://www.inkscape.org/namespaces/inkscape"
   xmlns:sodipodi="http://sodipodi.sourceforge.net/DTD/sodipodi-0.dtd"
   xmlns="http://www.w3.org/2000/svg"
   xmlns:svg="http://www.w3.org/2000/svg">
  <defs
     id="defs1" />
  <sodipodi:namedview
     id="namedview1"
     pagecolor="#ffffff"
     bordercolor="#999999"
     borderopacity="1"
     inkscape:showpageshadow="2"
     inkscape:pageopacity="0"
     inkscape:pagecheckerboard="0"
     inkscape:deskcolor="#d1d1d1"
     inkscape:zoom="12.245804"
     inkscape:cx="10.942524"
     inkscape:cy="11.024184"
     inkscape:window-width="1920"
     inkscape:window-height="994"
     inkscape:window-x="0"
     inkscape:window-y="0"
     inkscape:window-maximized="1"
     inkscape:current-layer="svg1" />
  <style
     type="text/css"
     id="current-color-scheme">.ColorScheme-Text { color: #fcfcfc; } </style>
  <g
     id="22-22-akonadi-5"
     transform="translate(-32.000001,-10.000001)">
    <path
       style="opacity:0.00100002"
       d="m 32.000001,10.000001 h 22 v 22 h -22 z"
       id="path2-3" />
    <path
       d="m 42.325307,22.502041 c 3.880816,0 7.025306,-1.399184 7.025306,-3.126531 0,-0.635102 0,-1.296326 0,-2.390204 0,1.727347 -3.14449,3.126531 -7.025306,3.126531 -3.880816,0 -7.025306,-1.399184 -7.025306,-3.126531 0,0.721633 0,1.203266 0,2.390204 0,1.727347 3.14449,3.126531 7.025306,3.126531 z"
       id="path4-3-7"
       style="fill:#d3dae3;fill-opacity:1;stroke-width:0.0163265" />
    <path
       d="m 42.325307,19.253061 c 3.880816,0 7.025306,-1.399183 7.025306,-3.12653 C 49.350613,14.399184 46.206123,13 42.325307,13 c -3.880816,0 -7.025306,1.399184 -7.025306,3.126531 0,1.727347 3.14449,3.12653 7.025306,3.12653 z"
       id="path6-5"
       style="fill:#d3dae3;fill-opacity:1;stroke-width:0.0163265" />
    <path
       d="m 42.325307,25.75102 c 1.080816,0 2.102857,-0.107755 3.017143,-0.302041 0.27102,-1.500408 1.583673,-2.639999 3.162449,-2.639999 0.282449,0 0.555102,0.03592 0.816326,0.104489 0.01959,-0.09469 0.02939,-0.19102 0.02939,-0.288979 0,-0.635102 0,-1.296327 0,-2.390204 0,1.727347 -3.14449,3.12653 -7.025306,3.12653 -3.880816,0 -7.025306,-1.399183 -7.025306,-3.12653 0,0.721632 0,1.203265 0,2.390204 0,1.727347 3.14449,3.12653 7.025306,3.12653 z"
       id="path8-3"
       style="fill:#d3dae3;fill-opacity:1;stroke-width:0.0163265" />
    <path
       d="m 45.304899,26.314286 c -0.90449,0.189387 -1.91347,0.293877 -2.979592,0.293877 -3.880816,0 -7.025306,-1.399184 -7.025306,-3.12653 0,0.721632 0,1.203265 0,2.390204 0,1.728979 3.14449,3.128163 7.025306,3.128163 1.508571,0 2.906122,-0.212245 4.050612,-0.571429 -0.597551,-0.527347 -0.995918,-1.273469 -1.07102,-2.114285 z"
       id="path10-5"
       style="fill:#d3dae3;fill-opacity:1;stroke-width:0.0163265" />
    <path
       d="m 48.637131,24.990621 c -0.579592,0 -1.049796,0.470204 -1.049796,1.048163 0,0.577959 0.470204,1.048163 1.049796,1.048163 0.579592,0 1.049796,-0.470204 1.049796,-1.048163 0,-0.577959 -0.471837,-1.048163 -1.049796,-1.048163 z m 0,1.751836 c -0.388572,0 -0.703674,-0.315102 -0.703674,-0.70204 0,-0.386939 0.315102,-0.702041 0.703674,-0.702041 0.388571,0 0.703673,0.315102 0.703673,0.702041 0,0.386938 -0.316735,0.70204 -0.703673,0.70204 z m 2.174693,-1.444897 h -0.208979 c -0.02939,0 -0.05551,-0.01796 -0.06694,-0.04408 -0.01143,-0.02612 -0.0049,-0.05714 0.01633,-0.07837 l 0.148571,-0.148572 c 0.133878,-0.133877 0.133878,-0.354286 0,-0.488163 l -0.56,-0.56 c -0.06694,-0.06694 -0.156735,-0.101225 -0.244898,-0.101225 -0.08816,0 -0.177959,0.03429 -0.244898,0.101225 l -0.148571,0.148571 c -0.01306,0.01306 -0.03265,0.02122 -0.05061,0.02122 -0.0098,0 -0.01796,-0.0016 -0.02776,-0.0049 -0.02612,-0.01143 -0.04408,-0.03755 -0.04408,-0.06694 V 23.867347 C 49.379989,23.677959 49.224887,23.5 49.033866,23.5 h -0.793469 c -0.19102,0 -0.346122,0.177959 -0.346122,0.367347 v 0.208979 c 0,0.02939 -0.01796,0.05551 -0.04408,0.06694 -0.0082,0.0033 -0.01796,0.0049 -0.02775,0.0049 -0.01796,0 -0.03755,-0.0065 -0.05061,-0.02122 l -0.148572,-0.148571 c -0.06694,-0.06694 -0.156734,-0.101225 -0.244898,-0.101225 -0.08816,0 -0.177959,0.03429 -0.244898,0.101225 l -0.561632,0.56 c -0.135511,0.133877 -0.135511,0.354286 0,0.488163 l 0.148571,0.148572 c 0.02123,0.02122 0.02612,0.05224 0.01633,0.07837 -0.01143,0.02612 -0.03755,0.04408 -0.06694,0.04408 h -0.20898 c -0.19102,0 -0.360816,0.155102 -0.360816,0.346122 v 0.791837 c 0,0.189387 0.169796,0.346122 0.360816,0.346122 h 0.20898 c 0.02939,0 0.05551,0.01796 0.06694,0.04408 0.01143,0.02612 0.0049,0.05714 -0.01633,0.07837 l -0.148571,0.148572 c -0.135511,0.133877 -0.135511,0.354285 0,0.488163 l 0.56,0.56 c 0.06694,0.06694 0.156734,0.101224 0.244898,0.101224 0.08816,0 0.177959,-0.03428 0.244898,-0.101224 l 0.148571,-0.148572 c 0.01306,-0.01306 0.03265,-0.02122 0.05061,-0.02122 0.0098,0 0.01796,0.0016 0.02775,0.0049 0.02612,0.01143 0.04408,0.03755 0.04408,0.06694 v 0.208979 c 0,0.189388 0.155102,0.360817 0.346122,0.360817 h 0.79347 c 0.19102,0 0.346122,-0.169796 0.346122,-0.360817 v -0.208979 c 0,-0.02939 0.01796,-0.05551 0.04408,-0.06694 0.0082,-0.0033 0.01796,-0.0049 0.02775,-0.0049 0.01796,0 0.03755,0.0065 0.05061,0.02122 l 0.148572,0.148572 c 0.06694,0.06694 0.156734,0.101224 0.244898,0.101224 0.08816,0 0.177959,-0.03428 0.244897,-0.101224 l 0.56,-0.56 c 0.133878,-0.133878 0.133878,-0.354286 0,-0.488163 L 50.5506,26.90409 c -0.02122,-0.02122 -0.02612,-0.05061 -0.01469,-0.07837 0.01143,-0.02612 0.03755,-0.04408 0.06694,-0.04408 h 0.208979 c 0.191021,0 0.360817,-0.155102 0.360817,-0.346122 v -0.791837 c 0,-0.189388 -0.169796,-0.346122 -0.360817,-0.346122 z m 0.01469,1.137959 h -0.223673 c -0.169796,0 -0.321633,0.101224 -0.386939,0.257959 -0.06531,0.156735 -0.02939,0.334694 0.09143,0.45551 l 0.148571,0.148572 -0.56,0.559999 -0.148571,-0.148571 c -0.07837,-0.07837 -0.18449,-0.122449 -0.29551,-0.122449 -0.05551,0 -0.109388,0.01143 -0.16,0.03102 -0.156735,0.06531 -0.25796,0.215511 -0.25796,0.385307 v 0.223673 h -0.793469 v -0.223673 c 0,-0.169796 -0.101224,-0.32 -0.257959,-0.385307 -0.05061,-0.02122 -0.10449,-0.03102 -0.16,-0.03102 -0.111021,0 -0.217143,0.04408 -0.29551,0.122449 l -0.148572,0.148571 -0.56,-0.559999 0.148572,-0.148572 c 0.119183,-0.119184 0.155102,-0.298775 0.0898,-0.45551 -0.06531,-0.156735 -0.217143,-0.257959 -0.386939,-0.257959 H 46.44611 v -0.791837 h 0.223674 c 0.169796,0 0.321632,-0.101224 0.386939,-0.257959 0.06531,-0.156735 0.02939,-0.334694 -0.0898,-0.45551 l -0.148572,-0.148572 0.56,-0.56 0.148572,0.148572 c 0.07837,0.07837 0.184489,0.122449 0.29551,0.122449 0.05551,0 0.109388,-0.01143 0.16,-0.03265 0.156735,-0.06531 0.257959,-0.215511 0.257959,-0.385307 v -0.230204 h 0.791837 v 0.230204 c 0,0.169796 0.101224,0.321633 0.257959,0.385307 0.05061,0.02122 0.10449,0.03265 0.16,0.03265 0.11102,0 0.217143,-0.04408 0.29551,-0.122449 l 0.148572,-0.148572 0.559999,0.56 -0.148571,0.148572 c -0.120816,0.119183 -0.155102,0.298775 -0.09143,0.45551 0.06531,0.156735 0.217142,0.257959 0.386938,0.257959 h 0.223674 v 0.791837 z"
       id="path12-6"
       style="fill:#39bcf9;fill-opacity:1;stroke-width:0.0163265" />
  </g>
</svg>
