<?xml version="1.0" encoding="UTF-8" standalone="no"?>
<svg
   id="svg"
   version="1.1"
   viewBox="0 0 22 22"
   sodipodi:docname="device-notifier-symbolic.svg"
   inkscape:version="1.3.2 (091e20ef0f, 2023-11-25)"
   width="22"
   height="22"
   xmlns:inkscape="http://www.inkscape.org/namespaces/inkscape"
   xmlns:sodipodi="http://sodipodi.sourceforge.net/DTD/sodipodi-0.dtd"
   xmlns="http://www.w3.org/2000/svg"
   xmlns:svg="http://www.w3.org/2000/svg"
   xmlns:rdf="http://www.w3.org/1999/02/22-rdf-syntax-ns#"
   xmlns:cc="http://creativecommons.org/ns#"
   xmlns:dc="http://purl.org/dc/elements/1.1/">
  <sodipodi:namedview
     id="namedview27"
     pagecolor="#201933"
     bordercolor="#000000"
     borderopacity="1"
     inkscape:pageshadow="2"
     inkscape:pageopacity="0.0"
     inkscape:pagecheckerboard="true"
     showgrid="true"
     inkscape:zoom="9.208459"
     inkscape:cx="11.402559"
     inkscape:cy="11.076772"
     inkscape:window-width="1920"
     inkscape:window-height="994"
     inkscape:window-x="0"
     inkscape:window-y="0"
     inkscape:window-maximized="1"
     inkscape:current-layer="svg"
     inkscape:showpageshadow="2"
     inkscape:deskcolor="#201933">
    <inkscape:grid
       type="xygrid"
       id="grid951"
       originx="-11.000011"
       originy="21.999989"
       spacingy="1"
       spacingx="1"
       units="px"
       visible="true" />
  </sodipodi:namedview>
  <metadata
     id="metadata47">
    <rdf:RDF>
      <cc:Work
         rdf:about="">
        <dc:format>image/svg+xml</dc:format>
        <dc:type
           rdf:resource="http://purl.org/dc/dcmitype/StillImage" />
      </cc:Work>
    </rdf:RDF>
  </metadata>
  <defs
     id="defs3">
    <style
       id="current-color-scheme"
       type="text/css">.ColorScheme-Text { color:#333333; } .ColorScheme-Highlight { color:#5294e2; } .ColorScheme-ButtonBackground { color:#dedede; }</style>
  </defs>
  <g
     id="22-22-device-notifier-3"
     style="fill:#d3dae3;fill-opacity:1">
    <rect
       style="opacity:0.00100002;fill:#d3dae3;fill-opacity:1"
       width="22"
       height="22"
       x="0"
       y="4.6325681e-08"
       id="rect2" />
    <path
       style="color:#d3dae3;fill:#06a6f9;fill-opacity:1;fill-rule:evenodd;stroke-width:0.353605;image-rendering:optimizeQuality;shape-rendering:geometricPrecision;text-rendering:geometricPrecision"
       d="m 10.954938,10.103332 -1.066346,0.185783 v 3.672801 l 1.060821,-0.136746 -0.0055,-1.655456 1.251432,1.832257 1.229331,-0.176801 -1.41442,-1.896488 1.419254,-1.591222 -1.244524,-0.229297 -1.241073,1.591228 z m -2.242493,0.937881 c -0.01026,6.64e-4 -0.01989,0.0053 -0.02764,0.0131 l -0.366036,0.370182 c -0.01591,0.016 -0.01856,0.04097 -0.0061,0.06009 l 0.442008,0.678895 c -0.08338,0.147976 -0.146384,0.310226 -0.187166,0.479992 L 7.80433,12.830639 c -0.02115,0.0052 -0.03733,0.02433 -0.03733,0.04629 v 0.241032 0.241032 c 0,0.02195 0.01614,0.04109 0.03733,0.0463 l 0.763147,0.18716 c 0.04077,0.169768 0.103779,0.332019 0.187165,0.479994 l -0.442007,0.678891 c -0.01235,0.01912 -0.0097,0.04409 0.0061,0.06009 l 0.366038,0.370182 c 0.01541,0.01561 0.0394,0.01685 0.05798,0.0055 L 9.43546,14.762372 c 0.135899,0.07917 0.348482,0.14287 0.503474,0.18509 l 0.162303,0.783866 c 0.0048,0.02262 0.02251,0.03867 0.04487,0.03867 h 0.272799 0.272802 c 0.02244,0 0.04037,-0.01601 0.04487,-0.03867 l 0.162302,-0.783866 c 0.154993,-0.04223 0.367573,-0.105922 0.503474,-0.185093 l 0.69271,0.42474 c 0.01865,0.0113 0.04255,0.01006 0.05797,-0.0055 l 0.366042,-0.370183 c 0.01591,-0.01601 0.01857,-0.04097 0.0062,-0.06009 l -0.368108,-0.565627 -0.04559,0.0067 -0.2583,-0.37847 c -0.26381,0.553025 -0.821723,0.905449 -1.434448,0.906113 -0.878809,0 -1.591225,-0.712413 -1.591225,-1.591222 6.41e-4,-0.604005 0.342945,-1.155648 0.884011,-1.424093 v -0.347359 c -0.100861,0.03361 -0.199965,0.07157 -0.276252,0.11603 L 8.742696,11.048691 c -0.0093,-0.0057 -0.02011,-0.0084 -0.03041,-0.0075 z"
       class="ColorScheme-Text"
       id="path10-3-36" />
    <path
       d="M 8.032967,3 C 7.476019,3 7.03297,3.530098 7.033,4.003856 v 2.996145 h 0.999997 l -3e-5,-2.000008 c 0,-0.999997 0,-0.999997 0.999996,-0.999997 l 3.008119,5e-5 c 0.991867,-5e-5 0.991867,-5e-5 0.991867,0.999947 l 3e-5,2.000008 h 0.999996 l -3e-5,-3.000005 C 14.032945,3.397669 13.614817,3 13.046849,3.00005 Z M 9.032993,5.000053 V 6.000049 H 10.03299 V 5.000053 Z m 1.999993,0 v 0.999996 h 0.999996 V 5.000053 Z"
       style="solid-color:#d5c289;fill:#d3dae3;fill-opacity:1;fill-rule:evenodd;stroke-width:0.999994"
       id="path4-7"
       sodipodi:nodetypes="ccccccccccccccccccccccc" />
    <path
       d="M 14.98,6.999998 H 6.02 c -0.5612249,0 -1.02,0.45 -1.02,1 v 10 C 5,18.55 5.4587751,19 6.02,19 h 8.96 C 15.541227,19 16,18.55 16,17.999998 v -10 c 0,-0.55 -0.458773,-1 -1.02,-1 z m 0.0098,10.600003 c 0,0.274998 -0.229607,0.5 -0.510208,0.5 H 6.5204188 c -0.280624,0 -0.5102079,-0.225004 -0.5102079,-0.500002 V 8.400001 c 0,-0.275 0.2295839,-0.6 0.5102079,-0.6 h 7.9591752 c 0.280601,0 0.510208,0.325 0.510208,0.6 z"
       id="path2-5"
       style="fill:#d3dae3;fill-opacity:1;stroke-width:0.252537"
       sodipodi:nodetypes="ssssssssssssssssss" />
  </g>
</svg>
