<?xml version="1.0" encoding="UTF-8" standalone="no"?>
<svg
   version="1.1"
   viewBox="0 0 22 22"
   id="svg1"
   sodipodi:docname="activities.svg"
   width="22"
   height="22"
   inkscape:version="1.3.2 (091e20ef0f, 2023-11-25)"
   xmlns:inkscape="http://www.inkscape.org/namespaces/inkscape"
   xmlns:sodipodi="http://sodipodi.sourceforge.net/DTD/sodipodi-0.dtd"
   xmlns="http://www.w3.org/2000/svg"
   xmlns:svg="http://www.w3.org/2000/svg">
  <defs
     id="defs1" />
  <sodipodi:namedview
     id="namedview1"
     pagecolor="#ffffff"
     bordercolor="#999999"
     borderopacity="1"
     inkscape:showpageshadow="2"
     inkscape:pageopacity="0"
     inkscape:pagecheckerboard="0"
     inkscape:deskcolor="#d1d1d1"
     inkscape:zoom="12.245804"
     inkscape:cx="10.697542"
     inkscape:cy="10.942524"
     inkscape:window-width="1920"
     inkscape:window-height="994"
     inkscape:window-x="0"
     inkscape:window-y="0"
     inkscape:window-maximized="1"
     inkscape:current-layer="svg1" />
  <style
     type="text/css"
     id="current-color-scheme">.ColorScheme-Text {color:#fcfcfc;}</style>
  <g
     id="22-22-activities-5"
     transform="matrix(3.7795283,0,0,3.7795283,-32.000012,-10.000002)">
    <rect
       style="opacity:0.00100002;fill:#d3dae3;fill-opacity:1;stroke-width:0.363802"
       id="rect1430-3-7-5-3"
       width="5.8208323"
       height="5.8208323"
       x="8.4666681"
       y="2.6458333" />
    <path
       style="color:#dfdfdf;fill:#d3dae3;fill-opacity:1;stroke-width:0.396875"
       class="ColorScheme-Text"
       d="M 11.377131,3.9687497 A 1.5875004,1.5875005 0 0 0 9.7896279,5.5562511 1.5875004,1.5875005 0 0 0 11.377131,7.1437491 1.5875004,1.5875005 0 0 0 12.964639,5.5562511 1.5875004,1.5875005 0 0 0 11.377131,3.9687497 Z M 9.7896279,4.3656252 c -0.657581,0 -1.1906242,0.5330414 -1.1906242,1.1906259 0,0.6575802 0.5330432,1.1906228 1.1906242,1.1906228 l 0.0108,-7.928e-4 c -0.252353,-0.3329587 -0.407753,-0.7424334 -0.407753,-1.18983 0,-0.447797 0.155737,-0.8568335 0.408501,-1.1898493 z m 3.1750111,0 c -0.0046,2.378e-4 -0.008,4.943e-4 -0.01244,7.722e-4 0.252811,0.3330589 0.409282,0.7420174 0.409282,1.1898537 0,0.4474353 -0.156099,0.8569501 -0.4085,1.1898495 l 0.01156,7.733e-4 c 0.65758,0 1.190624,-0.5330426 1.190624,-1.1906228 0,-0.6575845 -0.533044,-1.1906259 -1.190623,-1.1906259 z"
       id="path5-3" />
  </g>
</svg>
