<?xml version="1.0" encoding="UTF-8" standalone="no"?>
<svg
   inkscape:version="1.3 (0e150ed6c4, 2023-07-21)"
   sodipodi:docname="configure.svg"
   viewBox="0 0 32 32"
   version="1.1"
   height="32"
   width="32"
   id="svg"
   xmlns:inkscape="http://www.inkscape.org/namespaces/inkscape"
   xmlns:sodipodi="http://sodipodi.sourceforge.net/DTD/sodipodi-0.dtd"
   xmlns="http://www.w3.org/2000/svg"
   xmlns:svg="http://www.w3.org/2000/svg"
   xmlns:rdf="http://www.w3.org/1999/02/22-rdf-syntax-ns#"
   xmlns:cc="http://creativecommons.org/ns#"
   xmlns:dc="http://purl.org/dc/elements/1.1/">
  <sodipodi:namedview
     inkscape:bbox-nodes="true"
     inkscape:snap-bbox="true"
     inkscape:current-layer="svg"
     inkscape:window-maximized="1"
     inkscape:window-y="0"
     inkscape:window-x="0"
     inkscape:cy="24.190969"
     inkscape:cx="29.821093"
     inkscape:zoom="8.0815282"
     showgrid="true"
     id="namedview15"
     inkscape:window-height="994"
     inkscape:window-width="1920"
     inkscape:pageshadow="2"
     inkscape:pageopacity="0"
     guidetolerance="10"
     gridtolerance="10"
     objecttolerance="10"
     borderopacity="1"
     bordercolor="#008080"
     pagecolor="#000000"
     inkscape:pagecheckerboard="true"
     inkscape:snap-center="true"
     inkscape:snap-object-midpoints="true"
     inkscape:snap-nodes="true"
     inkscape:showpageshadow="false"
     inkscape:deskcolor="#000000">
    <inkscape:grid
       id="grid1"
       units="px"
       originx="0"
       originy="0"
       spacingx="1"
       spacingy="1"
       empcolor="#0099e5"
       empopacity="0.30196078"
       color="#0099e5"
       opacity="0.14902"
       empspacing="5"
       dotted="false"
       gridanglex="30"
       gridanglez="30"
       visible="true" />
  </sodipodi:namedview>
  <metadata
     id="metadata23">
    <rdf:RDF>
      <cc:Work
         rdf:about="">
        <dc:format>image/svg+xml</dc:format>
        <dc:type
           rdf:resource="http://purl.org/dc/dcmitype/StillImage" />
      </cc:Work>
    </rdf:RDF>
  </metadata>
  <defs
     id="defs3">
    <style
       type="text/css"
       id="current-color-scheme">.ColorScheme-Text { color:#333333; }&#10;.ColorScheme-Highlight { color:#5294e2; }&#10;.ColorScheme-ButtonBackground { color:#f5f5f5; }&#10;</style>
  </defs>
  <g
     id="configure">
    <rect
       style="opacity:0.003;fill:#000000;fill-opacity:1;stroke-width:1.45455"
       x="0"
       y="0"
       width="32"
       height="32"
       fill="none"
       id="rect15-0" />
    <path
       d="m 15.228184,4.000005 c -1.289619,0 -2.353702,1.0698291 -2.364293,2.3694097 v 0.00209 0.00639 c 0.0028,0.6337733 -0.245112,1.2423526 -0.690287,1.6918213 -0.44394,0.4480007 -1.049245,0.6989366 -1.676112,0.6967548 h -0.002 C 10.101678,8.7553034 9.716575,8.6466685 9.374415,8.4510623 l -0.0105,-0.00639 C 8.243461,7.7931005 6.7882255,8.1840895 6.1383482,9.311936 l -0.8169464,1.372213 -0.00647,0.01024 c 0,4.4e-5 -0.00945,0.02669 -0.012737,0.03619 -0.2940534,0.535368 -0.3769987,1.166177 -0.219542,1.762139 0.1612329,0.610722 0.5551761,1.134745 1.0998175,1.451048 0.5435931,0.315559 0.9402823,0.835158 1.1019291,1.446796 0.05304,0.200477 0.067883,0.405029 0.067597,0.609364 h -0.00429 c 2.874e-4,0.204333 -0.014623,0.408884 -0.067551,0.6094 -0.1616452,0.611629 -0.5583363,1.131229 -1.1019293,1.446788 -0.5446413,0.316304 -0.9385844,0.840331 -1.0998173,1.45105 -0.1574571,0.595961 -0.074513,1.226775 0.219542,1.762137 0.00326,0.009 0.012737,0.03616 0.012737,0.03619 l 0.00647,0.01024 0.8169465,1.372206 c 0.6498778,1.127853 2.1051127,1.518842 3.2255747,0.867227 l 0.01048,-0.0063 c 0.342178,-0.195322 0.72727,-0.304034 1.120938,-0.315075 h 0.002 c 0.626871,-0.002 1.232178,0.248753 1.676115,0.696761 0.445177,0.44947 0.693319,1.058047 0.690288,1.691826 v 0.0063 0.002 C 12.86981,26.930259 13.934034,28 15.223652,28 h 1.549445 c 1.289619,0 2.353345,-1.069496 2.364291,-2.369409 v -0.002 -0.0063 c -0.0028,-0.633781 0.245116,-1.242358 0.690285,-1.691829 0.443942,-0.448004 1.049247,-0.699051 1.676114,-0.696758 h 0.002 c 0.393655,0.01115 0.778801,0.119726 1.120922,0.315354 l 0.01013,0.0063 c 1.120456,0.651615 2.575692,0.260627 3.225574,-0.867224 l 0.816943,-1.372203 0.0063,-0.01024 c 2.2e-5,-3.4e-5 0.0087,-0.0268 0.01268,-0.03619 0.294059,-0.535362 0.377001,-1.16831 0.219536,-1.76427 -0.161365,-0.610632 -0.555307,-1.132535 -1.099951,-1.448838 -0.543702,-0.315409 -0.940282,-0.835154 -1.101925,-1.446784 -0.05294,-0.200511 -0.06748,-0.40507 -0.06749,-0.609399 h 0.0039 c 2.3e-5,-0.204334 0.01445,-0.408972 0.0675,-0.609401 0.161647,-0.611633 0.558229,-1.131377 1.10193,-1.446792 0.544641,-0.3163 0.938584,-0.838194 1.099818,-1.448919 0.157465,-0.595961 0.07447,-1.228902 -0.219543,-1.764271 -0.0032,-0.0089 -0.01253,-0.03616 -0.01268,-0.03619 l -0.0063,-0.01024 L 25.866239,9.31212 C 25.217598,8.1840895 23.762363,7.7931005 22.641906,8.4447148 l -0.01014,0.00639 C 22.289523,8.6467122 21.90438,8.7553372 21.510717,8.7664422 h -0.002 C 20.881577,8.7686422 20.276279,8.5176623 19.832342,8.0696565 19.387159,7.6201876 19.139024,7.0116086 19.142048,6.37783 V 6.37144 6.36935 C 19.130938,5.0694985 18.067258,4 16.777638,4 Z m 0,1.0909515 h 1.54945 c 0.697667,0 1.277642,0.5825665 1.283475,1.2869815 -0.0031,0.9229314 0.359831,1.8098153 1.006938,2.4631626 0.648555,0.6544944 1.52929,1.0196484 2.444505,1.0163734 h 0.01268 0.01472 c 0.570779,-0.01613 1.127906,-0.17483 1.623338,-0.458114 l 0.01268,-0.0062 0.0063,-0.0019 c 0.607691,-0.3534227 1.39816,-0.14201 1.75003,0.468734 l 0.0039,0.0082 0.776847,1.304025 0.0063,0.01704 0.03801,0.07028 c 0.160686,0.292538 0.20434,0.636615 0.120332,0.954582 -0.0879,0.332909 -0.298729,0.613114 -0.593188,0.784122 -0.791577,0.459205 -1.372742,1.219302 -1.608561,2.111582 -0.07755,0.293275 -0.101362,0.592246 -0.101352,0.890661 h -0.0039 c -9e-6,0.298418 0.02381,0.597386 0.101351,0.890657 0.235811,0.892285 0.816983,1.65238 1.60856,2.111586 0.294455,0.171013 0.505291,0.451215 0.59318,0.784125 0.08398,0.317965 0.04037,0.662042 -0.120326,0.954583 l -0.03801,0.07028 -0.0063,0.01704 -0.776838,1.304028 -0.0039,0.0082 c -0.351893,0.610777 -1.142322,0.822197 -1.749976,0.468812 l -0.0063,-0.002 -0.01268,-0.0063 C 22.664085,22.318248 22.106956,22.15952 21.536176,22.143413 h -0.01472 -0.01268 c -0.915265,-0.0031 -1.795951,0.361877 -2.444508,1.016377 -0.64711,0.653347 -1.010153,1.540231 -1.006935,2.463161 -0.0054,0.704531 -0.585813,1.287095 -1.283478,1.287095 h -1.549462 c -0.696114,0 -1.275181,-0.580441 -1.283474,-1.282716 v -0.0039 c 0.0031,-0.923022 -0.359842,-1.809841 -1.006927,-2.463164 -0.648602,-0.654535 -1.529408,-1.019614 -2.444513,-1.016372 h -0.01268 -0.01472 c -0.571,0.01605 -1.128005,0.172817 -1.6233368,0.455981 l -0.01274,0.0082 -0.00647,0.002 c -0.6080916,0.353358 -1.3985214,0.141944 -1.750436,-0.468796 l -0.00429,-0.0082 -0.7705067,-1.295505 -0.00647,-0.01487 -0.04433,-0.08104 c -0.1612812,-0.29372 -0.2045122,-0.633956 -0.1203388,-0.952557 0.088052,-0.333521 0.3005413,-0.616298 0.5931835,-0.786252 0.7910882,-0.459229 1.3727039,-1.219142 1.6085629,-2.111587 0.077714,-0.294046 0.099889,-0.592964 0.097103,-0.890663 h 0.00429 c 0.00277,-0.297639 -0.01945,-0.596554 -0.097157,-0.890597 -0.2358642,-0.89245 -0.8174785,-1.652364 -1.608567,-2.111591 -0.2926416,-0.169955 -0.5051299,-0.45273 -0.593183,-0.786251 -0.084171,-0.318604 -0.040938,-0.658838 0.120328,-0.952451 l 0.044331,-0.08102 0.00647,-0.01487 0.7705054,-1.295506 0.00429,-0.0082 C 7.42516,9.248997 8.2156353,9.0376123 8.8232424,9.390962 l 0.00647,0.0019 0.012738,0.0083 C 9.337779,9.684359 9.894783,9.841171 10.465791,9.857179 h 0.01472 0.01268 c 0.915109,0.0031 1.795912,-0.36184 2.444516,-1.0163743 0.647074,-0.6533236 1.010161,-1.5401424 1.006921,-2.463163 v -0.00433 c 0.008,-0.7023375 0.587366,-1.2827823 1.283479,-1.2827823 z M 16.003675,11.6417 c -2.397486,0 -4.31828,1.9388 -4.31828,4.358771 h -0.0054 c 0,2.419963 1.920796,4.358759 4.318284,4.358759 2.397493,0 4.318286,-1.938796 4.318286,-4.358759 h 0.0054 c 0,-2.419971 -1.920788,-4.358771 -4.318285,-4.358771 z m -0.0046,3.267815 v 0 0 0 0 0 -0.05507 z"
       id="path1072"
       sodipodi:nodetypes="sccccccccccccccccccccccccccccccccssccccccccccccccccccccccccccccccccsscscccccccccccccccsccccccccccccccccccssccccccccccccccccscccccccccccccccccccccsccsccssscccccss"
       style="fill:#d3dae3;fill-opacity:1;stroke-width:1.57941" />
  </g>
  <g
     id="16-16-configure"
     transform="translate(54,16)">
    <rect
       style="stroke-width:0.727273"
       x="0"
       y="0"
       width="16"
       height="16"
       fill="none"
       id="rect15-2" />
    <path
       id="path2996-5"
       d="M 7.7912151,1 C 7.3405438,1.0001776 6.9008676,1.1538827 6.6696894,1.3435057 6.3971078,1.5672222 6.2603904,1.8557691 6.1710411,2.122803 5.9503905,2.7822025 5.9987077,3.0180448 5.7569392,3.2165525 5.516077,3.414282 5.2343395,3.5752829 4.9408128,3.6831053 4.6466557,3.791161 4.4642058,3.6316113 3.7761512,3.4916988 3.4971713,3.4350253 3.1727551,3.4092299 2.8461477,3.5292974 2.5678068,3.6316207 2.2098712,3.9338013 1.9834346,4.3222658 L 1.7763834,4.6777353 C 1.5511023,5.0637046 1.4633533,5.5169815 1.5141189,5.8125004 c 0.060205,0.3505926 0.2452517,0.609402 0.4330815,0.8186031 0.4651541,0.5180811 0.6959204,0.5942253 0.7488353,0.9023438 0.052459,0.3055173 0.052449,0.6275629 0,0.9331055 C 2.6431817,8.7744585 2.4123324,8.8508461 1.9472004,9.3688967 1.7618768,9.5753117 1.5746215,9.8338105 1.5141189,10.18579 c -0.051105,0.297341 0.036573,0.749372 0.2622645,1.136479 l 0.2070512,0.35546 c 0.2250524,0.386606 0.580204,0.6897 0.8609869,0.792968 v -0.002 c 0.3298411,0.121445 0.6514428,0.09631 0.9317297,0.03932 0.6880683,-0.139923 0.8702913,-0.299521 1.1646616,-0.191403 0.2934815,0.107794 0.575238,0.268814 0.8161264,0.46655 0.241592,0.198319 0.1934575,0.434347 0.4141019,1.093751 0.089296,0.266869 0.2261529,0.555598 0.4986483,0.779294 C 6.9020464,14.846719 7.3411363,15 7.7912151,15 h 0.4158273 c 0.4510613,2.48e-4 0.8919964,-0.153861 1.1232523,-0.343504 0.2732543,-0.224092 0.4094702,-0.511776 0.4986467,-0.777587 0.2207006,-0.65782 0.1736586,-0.896626 0.4158316,-1.09546 0.241452,-0.198226 0.521552,-0.358982 0.814403,-0.466555 0.294168,-0.108058 0.476634,0.05144 1.164656,0.19141 0.278977,0.05663 0.603386,0.08246 0.930002,-0.03757 0.278303,-0.102306 0.636275,-0.404484 0.862717,-0.79297 l 0.103528,-0.177729 0.10352,-0.17774 C 14.448877,10.936307 14.53663,10.483031 14.485867,10.187517 14.425676,9.8369197 14.240615,9.5781094 14.052786,9.3689074 13.587627,8.8508268 13.356863,8.7746828 13.303944,8.4665638 c -0.05248,-0.3055193 -0.05247,-0.6275594 0,-0.9331049 0.05288,-0.3079084 0.283702,-0.3842931 0.748842,-0.9023458 C 14.238105,6.4246963 14.425363,6.1661978 14.485867,5.8142185 14.537005,5.516876 14.449318,5.0648514 14.223599,4.677744 L 14.120079,4.4999994 14.016551,4.3222649 C 13.791495,3.9356653 13.436349,3.63257 13.155559,3.5292964 v 0.00179 C 12.825724,3.409606 12.504118,3.4347328 12.223832,3.491741 11.535762,3.6316683 11.353536,3.7912654 11.059176,3.6831483 10.76636,3.575603 10.486259,3.4148243 10.244773,3.2165954 10.001892,3.0172205 10.049384,2.7798814 9.8289414,2.1228456 9.7398129,1.8571911 9.6034491,1.5693205 9.3302947,1.3452575 9.1041433,1.1596674 8.6625955,1 8.2087678,1 H 7.9999919 7.7929406 Z m 0,0.8749999 h 0.2087768 0.2087759 c 0.3291261,0 0.4681773,0.06902 0.5590387,0.1435541 0.090853,0.074529 0.1591172,0.1919521 0.222579,0.3811031 0.1269238,0.3783018 0.1334785,1.0318417 0.6918956,1.4902346 0.3179879,0.2610246 0.6815909,0.4709536 1.0697669,0.6135257 0.680151,0.2498075 1.254732,-0.075239 1.649505,-0.1555176 0.197382,-0.040141 0.336203,-0.03904 0.446882,0.00179 0.110677,0.0407 0.237695,0.127877 0.402028,0.4101563 l 0.105246,0.1776933 0.103533,0.1777345 c 0.164563,0.2822652 0.175079,0.4385298 0.155281,0.5537112 -0.0198,0.115178 -0.08869,0.2303182 -0.222574,0.3793938 -0.267694,0.2981518 -0.836003,0.6296752 -0.957611,1.3381347 -0.06934,0.4038676 -0.06937,0.8231281 0,1.2270509 0.121674,0.7085169 0.689823,1.0398866 0.957611,1.3381347 0.133889,0.1491228 0.202815,0.2677288 0.222574,0.3828128 0.01976,0.115088 0.009,0.268205 -0.155281,0.550291 l -0.103533,0.177741 -0.105246,0.177728 c -0.164534,0.282278 -0.292978,0.369439 -0.403757,0.410164 -0.110768,0.04074 -0.247833,0.04176 -0.445153,0.002 -0.39464,-0.08033 -0.969438,-0.405368 -1.649505,-0.155547 -0.38814,0.142559 -0.751755,0.352443 -1.0697669,0.61351 -0.5584189,0.458482 -0.564938,1.113517 -0.6918956,1.491922 -0.063475,0.189206 -0.1317889,0.306651 -0.222579,0.381105 -0.090793,0.07443 -0.2299985,0.141988 -0.5590387,0.141804 H 7.7912151 c -0.329125,0 -0.4683893,-0.06746 -0.5590379,-0.141847 -0.090647,-0.07464 -0.1592914,-0.192185 -0.22258,-0.381323 -0.126574,-0.378272 -0.131612,-1.033428 -0.6901703,-1.491938 -0.3187078,-0.261614 -0.6838017,-0.471136 -1.0714878,-0.613531 -0.6801497,-0.2498 -1.2547337,0.07524 -1.6495068,0.155518 -0.1973871,0.04014 -0.3362076,0.03903 -0.4468852,-0.002 -0.1106763,-0.04059 -0.2377,-0.127755 -0.4020234,-0.410035 L 2.540746,10.884727 C 2.3761809,10.602458 2.3656606,10.446192 2.3854587,10.331013 2.4052567,10.215836 2.4741936,10.100694 2.6080385,9.9516192 2.8757344,9.6534668 3.4440324,9.3219425 3.5656494,8.6134837 c 0.069331,-0.4038599 0.069353,-0.8231354 0,-1.2270513 C 3.4439729,6.6779158 2.8758171,6.3465463 2.6080385,6.0482975 2.4741484,5.8991744 2.4052202,5.7805721 2.3854587,5.6654854 2.365687,5.5503995 2.3761028,5.3972802 2.540746,5.1151933 L 2.7495237,4.7597236 C 2.9140562,4.4774584 3.0424991,4.39029 3.1532726,4.3495674 3.264047,4.3088454 3.401109,4.3077774 3.5984323,4.3478174 3.9930771,4.4280634 4.5678692,4.7531519 5.2479391,4.5033349 5.635597,4.3609324 6.0006988,4.1514598 6.3194269,3.8898073 6.8779845,3.4311959 6.8829808,2.7762525 7.0095972,2.3978661 7.0729026,2.208673 7.1415991,2.091103 7.2321772,2.016763 7.3227551,1.9425453 7.462193,1.8748161 7.7912151,1.8749999 Z m 0.2087768,3.4999995 c -1.46228,0 -2.6502527,1.1766531 -2.6502527,2.6249998 0,1.4483456 1.1879727,2.6249998 2.6502527,2.6249998 1.4622793,0 2.6502551,-1.1766542 2.6502551,-2.6249998 0,-1.4483467 -1.1879758,-2.6249998 -2.6502551,-2.6249998 z m 0,2.6249998 z"
       sodipodi:nodetypes="scccscscccscssscccccssscscsccscsccccsssssccccccssscsccsccssssssccccsssssscccscscsscsssssscccssscssccscscsccsssssccscc"
       style="fill:#d3dae3;fill-opacity:1;stroke-width:0.879199" />
  </g>
  <g
     transform="translate(22,-30)"
     id="22-22-configure"
     fill="currentColor">
    <rect
       id="rect5384"
       fill="none"
       height="22"
       width="22"
       y="40"
       x="10" />
    <path
       id="path2996-7"
       d="m 20.759105,43 c -0.520006,2.03e-4 -1.027326,0.175866 -1.294071,0.392578 -0.314518,0.255676 -0.472269,0.585444 -0.575363,0.890625 -0.254598,0.7536 -0.198849,1.023134 -0.477811,1.25 -0.277919,0.225977 -0.603,0.409978 -0.941686,0.533203 -0.339413,0.123493 -0.549932,-0.05885 -1.343842,-0.21875 -0.3219,-0.06477 -0.696227,-0.09425 -1.073083,0.04297 -0.321163,0.116941 -0.734165,0.46229 -0.995439,0.90625 l -0.238906,0.40625 c -0.25994,0.441109 -0.361189,0.95914 -0.302612,1.296875 0.06946,0.400677 0.282982,0.69646 0.49971,0.935547 0.536715,0.592092 0.802984,0.679114 0.864041,1.03125 0.06052,0.349162 0.06052,0.717215 0,1.066406 -0.061,0.351893 -0.32735,0.439193 -0.864041,1.03125 -0.213837,0.235903 -0.4299,0.531331 -0.49971,0.933594 -0.05897,0.33982 0.0422,0.85642 0.302612,1.298828 l 0.238906,0.40625 c 0.259676,0.441829 0.669467,0.788223 0.993448,0.90625 v -0.002 c 0.380587,0.138789 0.751666,0.110073 1.075074,0.04492 0.793925,-0.159916 1.004182,-0.342313 1.343842,-0.21875 0.338633,0.123193 0.663737,0.307218 0.941686,0.533203 0.27876,0.226649 0.22322,0.496393 0.477811,1.25 0.103038,0.304997 0.260947,0.63497 0.575363,0.890625 C 19.733139,58.824819 20.239782,59 20.759105,59 h 0.479801 c 0.520455,2.88e-4 1.029229,-0.175841 1.296062,-0.392578 0.315295,-0.256098 0.472467,-0.584882 0.575363,-0.888672 0.254655,-0.751792 0.200374,-1.024708 0.479802,-1.251953 0.278606,-0.226535 0.601791,-0.410264 0.939695,-0.533203 0.339428,-0.123498 0.549967,0.05884 1.343841,0.21875 0.321903,0.06477 0.696219,0.09426 1.073084,-0.04297 0.321111,-0.116925 0.734161,-0.46227 0.995439,-0.90625 L 28.061644,55 28.181097,54.796875 C 28.441036,54.355767 28.542285,53.837732 28.483711,53.5 28.414241,53.099324 28.200726,52.803541 27.984,52.564453 c -0.536715,-0.592092 -0.802986,-0.679114 -0.864042,-1.03125 -0.06054,-0.349165 -0.06053,-0.717211 0,-1.066406 0.06099,-0.351893 0.327349,-0.43919 0.864042,-1.03125 0.213839,-0.235905 0.4299,-0.531332 0.499711,-0.933594 0.05896,-0.33982 -0.04219,-0.85642 -0.302614,-1.298828 L 28.061644,47 27.942192,46.796875 c -0.259677,-0.441829 -0.669467,-0.788223 -0.993447,-0.90625 v 0.002 c -0.380588,-0.138789 -0.751667,-0.110073 -1.075076,-0.04492 -0.793928,0.159916 -1.004186,0.342313 -1.343841,0.21875 -0.337854,-0.122908 -0.661052,-0.306656 -0.939695,-0.533203 -0.280245,-0.227857 -0.225446,-0.499102 -0.479802,-1.25 C 23.00749,43.979647 22.850147,43.650652 22.534968,43.39458 22.274024,43.182477 21.764545,43 21.240897,43 h -0.240896 -0.238905 z m 0,1 h 0.240896 0.240896 c 0.379762,0 0.540205,0.07888 0.645045,0.164062 0.104834,0.08517 0.183597,0.219374 0.256823,0.435547 0.14645,0.432344 0.154014,1.179247 0.798341,1.703125 0.366912,0.298313 0.786452,0.538232 1.234344,0.701172 0.784789,0.285495 1.447771,-0.08598 1.90328,-0.177734 0.227755,-0.04588 0.387933,-0.04462 0.515637,0.002 0.127704,0.04652 0.27427,0.146145 0.463875,0.46875 L 27.179685,47.5 l 0.119454,0.203125 c 0.189883,0.322589 0.202022,0.501177 0.179178,0.632813 -0.02284,0.131632 -0.102388,0.263221 -0.256823,0.433593 -0.30888,0.340745 -0.964609,0.719629 -1.104938,1.529297 -0.08,0.461563 -0.08003,0.940718 0,1.402344 0.140397,0.809734 0.795961,1.188442 1.104938,1.529297 0.154489,0.170428 0.23402,0.305975 0.256823,0.4375 0.02281,0.131527 0.01079,0.306521 -0.179178,0.628906 L 27.179685,54.5 27.058242,54.703125 c -0.189848,0.322599 -0.338051,0.42221 -0.465865,0.46875 -0.127815,0.04654 -0.285967,0.04776 -0.513647,0.002 -0.455359,-0.09172 -1.118577,-0.463241 -1.90328,-0.177734 -0.447851,0.162943 -0.867404,0.402813 -1.234344,0.701172 -0.644329,0.524003 -0.651852,1.272613 -0.798341,1.705078 -0.07324,0.216235 -0.152065,0.350457 -0.256823,0.435547 C 21.781185,57.922981 21.620559,58.00021 21.240897,58 h -0.481792 c -0.379761,0 -0.540451,-0.07706 -0.645045,-0.162109 -0.104592,-0.08505 -0.183799,-0.21939 -0.256823,-0.435547 -0.146047,-0.432311 -0.15186,-1.181067 -0.796353,-1.705078 -0.367739,-0.298988 -0.789003,-0.538435 -1.236333,-0.701172 -0.784789,-0.285493 -1.447772,0.08598 -1.903279,0.177734 -0.227755,0.04588 -0.387933,0.04462 -0.515637,-0.002 -0.127705,-0.04652 -0.27427,-0.146145 -0.463875,-0.46875 l -0.240897,-0.40625 c -0.189883,-0.322589 -0.202022,-0.501177 -0.17918,-0.632813 0.02284,-0.131632 0.102389,-0.26322 0.256824,-0.433593 0.308881,-0.340744 0.96461,-0.719629 1.104939,-1.529297 0.08,-0.461554 0.08003,-0.940726 0,-1.402344 -0.140396,-0.809734 -0.795963,-1.188442 -1.104939,-1.529297 -0.154488,-0.170427 -0.234021,-0.305973 -0.256824,-0.4375 -0.0228,-0.131526 -0.01079,-0.306521 0.17918,-0.628906 l 0.240897,-0.40625 c 0.189846,-0.322589 0.33805,-0.42221 0.465865,-0.46875 0.127817,-0.04654 0.285966,-0.04776 0.513647,-0.002 0.455359,0.09171 1.118582,0.463239 1.903279,0.177734 0.447298,-0.162743 0.86857,-0.402141 1.236333,-0.701172 0.644491,-0.52413 0.650256,-1.272637 0.796353,-1.705078 0.07305,-0.216221 0.152309,-0.350587 0.256823,-0.435547 C 20.218573,44.077199 20.379462,43.99979 20.759105,44 Z m 0.240896,4 c -1.687247,0 -3.057989,1.344747 -3.057989,3 0,1.655252 1.370742,3 3.057989,3 1.687248,0 3.057988,-1.344748 3.057988,-3 0,-1.655253 -1.37074,-3 -3.057988,-3 z m 0,3 z"
       sodipodi:nodetypes="scccscscccscssscccccssscscsccscsccccsssssccccccssscsccsccssssssccccsssssscccscscsscsssssscccssscssccscscsccsssssccccc"
       style="fill:#d3dae3;fill-opacity:1;stroke-width:1.00962" />
  </g>
</svg>
