<?xml version="1.0" encoding="UTF-8" standalone="no"?>
<svg
   width="32"
   height="32"
   version="1.1"
   id="svg2222"
   sodipodi:docname="emblem.svg"
   inkscape:version="1.3 (0e150ed6c4, 2023-07-21)"
   xmlns:inkscape="http://www.inkscape.org/namespaces/inkscape"
   xmlns:sodipodi="http://sodipodi.sourceforge.net/DTD/sodipodi-0.dtd"
   xmlns="http://www.w3.org/2000/svg"
   xmlns:svg="http://www.w3.org/2000/svg">
  <defs
     id="defs2226" />
  <sodipodi:namedview
     id="namedview2224"
     pagecolor="#000000"
     bordercolor="#008080"
     borderopacity="1"
     inkscape:showpageshadow="false"
     inkscape:pageopacity="0"
     inkscape:pagecheckerboard="true"
     inkscape:deskcolor="#000000"
     showgrid="true"
     inkscape:zoom="7.375"
     inkscape:cx="12.067797"
     inkscape:cy="16.067797"
     inkscape:window-width="1920"
     inkscape:window-height="994"
     inkscape:window-x="0"
     inkscape:window-y="0"
     inkscape:window-maximized="1"
     inkscape:current-layer="svg2222">
    <inkscape:grid
       type="xygrid"
       id="grid2709"
       originx="0"
       originy="0"
       spacingy="1"
       spacingx="1"
       units="px"
       visible="true" />
  </sodipodi:namedview>
  <g
     id="22-22-emblem-shared-symbolic"
     transform="translate(32.000001,10.000001)">
    <rect
       style="opacity:0.001"
       width="22"
       height="22"
       x="0"
       y="0"
       id="rect2212" />
    <path
       style="opacity:1;fill:#d3dae3;fill-opacity:1"
       d="m 15,3 a 3,3 0 0 0 -3,3 3,3 0 0 0 0.228516,1.1425781 L 9.2402344,9.0097656 A 3,3 0 0 0 7,8 3,3 0 0 0 4,11 3,3 0 0 0 7,14 3,3 0 0 0 9.2421875,12.990234 l 2.9843745,1.867188 A 3,3 0 0 0 12,16 a 3,3 0 0 0 3,3 3,3 0 0 0 3,-3 3,3 0 0 0 -3,-3 3,3 0 0 0 -2.242188,1.009766 L 9.7734375,12.142578 A 3,3 0 0 0 10,11 3,3 0 0 0 9.7714844,9.8574219 L 12.759766,7.9902344 A 3,3 0 0 0 15,9 3,3 0 0 0 18,6 3,3 0 0 0 15,3 Z"
       id="path2214" />
  </g>
  <g
     id="emblem-shared-symbolic">
    <rect
       style="opacity:0.001"
       width="32"
       height="32"
       x="0"
       y="0"
       id="rect2217" />
    <path
       style="opacity:1;fill:#d3dae3;fill-opacity:1;stroke-width:1.04557"
       d="m 22.285714,4 a 4.7142857,4.695652 0 0 0 -4.714285,4.695652 4.7142857,4.695652 0 0 0 0.409227,1.897417 L 13.49349,13.199726 A 4.7142857,4.695652 0 0 0 9.714283,11.30435 4.7142857,4.695652 0 0 0 5,16 4.7142857,4.695652 0 0 0 9.714283,20.69565 4.7142857,4.695652 0 0 0 13.49349,18.798234 l 4.485121,2.606657 A 4.7142857,4.695652 0 0 0 17.571429,23.30435 4.7142857,4.695652 0 0 0 22.285714,28 4.7142857,4.695652 0 0 0 27,23.30435 4.7142857,4.695652 0 0 0 22.285714,18.608697 4.7142857,4.695652 0 0 0 18.506511,20.506112 L 14.021393,17.899455 A 4.7142857,4.695652 0 0 0 14.428571,16 4.7142857,4.695652 0 0 0 14.019344,14.102581 l 4.487167,-2.606657 A 4.7142857,4.695652 0 0 0 22.285714,13.391303 4.7142857,4.695652 0 0 0 27,8.695652 4.7142857,4.695652 0 0 0 22.285714,4 Z"
       id="path2219" />
  </g>
</svg>
