<?xml version="1.0" encoding="UTF-8" standalone="no"?>
<!-- Created with Inkscape (http://www.inkscape.org/) -->

<svg
   width="32"
   height="32"
   id="svg3869"
   version="1.1"
   inkscape:version="1.3 (0e150ed6c4, 2023-07-21)"
   sodipodi:docname="kget.svg"
   viewBox="0 0 32 32"
   xmlns:inkscape="http://www.inkscape.org/namespaces/inkscape"
   xmlns:sodipodi="http://sodipodi.sourceforge.net/DTD/sodipodi-0.dtd"
   xmlns="http://www.w3.org/2000/svg"
   xmlns:svg="http://www.w3.org/2000/svg">
  <defs
     id="defs3871">
    <style
       type="text/css"
       id="current-color-scheme">.ColorScheme-Text { color:#31363b; }&#10;.ColorScheme-Background { color:#eff0f1; }&#10;.ColorScheme-Highlight { color:#3daee9; }&#10;.ColorScheme-ViewText { color:#31363b; }&#10;.ColorScheme-ViewBackground { color:#fcfcfc; }&#10;.ColorScheme-ViewHover { color:#93cee9; }&#10;.ColorScheme-ViewFocus { color:#3daee9; }&#10;.ColorScheme-ButtonText { color:#31363b; }&#10;.ColorScheme-ButtonBackground { color:#eff0f1; }&#10;.ColorScheme-ButtonHover { color:#93cee9; }&#10;.ColorScheme-ButtonFocus { color:#3daee9; }&#10;</style>
  </defs>
  <sodipodi:namedview
     id="base"
     pagecolor="#000000"
     bordercolor="#008080"
     borderopacity="1"
     inkscape:pageopacity="0.0"
     inkscape:pageshadow="2"
     inkscape:zoom="11.256496"
     inkscape:cx="29.582918"
     inkscape:cy="18.611476"
     inkscape:document-units="px"
     inkscape:current-layer="layer1"
     showgrid="true"
     fit-margin-top="0"
     fit-margin-left="0"
     fit-margin-right="0"
     fit-margin-bottom="0"
     inkscape:window-width="1920"
     inkscape:window-height="994"
     inkscape:window-x="0"
     inkscape:window-y="0"
     inkscape:window-maximized="1"
     inkscape:showpageshadow="false"
     viewbox-height="32"
     borderlayer="true"
     inkscape:pagecheckerboard="true"
     inkscape:deskcolor="#000000">
    <inkscape:grid
       id="grid1"
       units="px"
       originx="0"
       originy="0"
       spacingx="1"
       spacingy="1"
       empcolor="#0099e5"
       empopacity="0.30196078"
       color="#0099e5"
       opacity="0.14901961"
       empspacing="5"
       dotted="false"
       gridanglex="30"
       gridanglez="30"
       visible="true" />
  </sodipodi:namedview>
  <g
     inkscape:groupmode="layer"
     id="layer1"
     transform="translate(-326,-534.36218)">
    <g
       id="kget">
      <path
         id="rect867"
         d="m 340.34941,538.36218 c -0.87054,0 -1.57148,0.67002 -1.57148,1.50235 v 12.89908 l -4.07891,-3.89967 c -0.30782,-0.29427 -0.80324,-0.29427 -1.11108,0 -0.30782,0.29422 -0.30782,0.76796 0,1.06217 l 7.77742,7.43543 c 0.17307,0.16553 0.4071,0.2379 0.63222,0.21719 0.17507,-0.0164 0.3441,-0.0886 0.47884,-0.21719 l 7.77733,-7.43543 c 0.30775,-0.29421 0.30775,-0.76795 0,-1.06217 -0.30784,-0.29427 -0.80325,-0.29427 -1.11108,0 l -4.07895,3.89967 v -12.89908 c 0,-0.83233 -0.70088,-1.50235 -1.57151,-1.50235 z m 1.57141,17.40612 v 0 l 1.57139,-1.50235 -1.57139,1.50235 -1.57141,-1.50235 z"
         style="fill:#d3dae3;fill-opacity:1;stroke-width:1.53651"
         sodipodi:nodetypes="sscccccccccccssscccccc" />
      <rect
         y="534.36218"
         x="326"
         height="32"
         width="32"
         id="rect4148"
         style="fill:none;fill-opacity:1;stroke:none;stroke-width:0.145455;stroke-linecap:square;stroke-linejoin:miter;stroke-miterlimit:4;stroke-dasharray:none;stroke-dashoffset:0;stroke-opacity:1" />
      <path
         id="path292"
         d="m 331,556.35279 v 3.0047 c 0,1.66463 1.40167,3.00469 3.1429,3.00469 h 15.7142 c 1.74116,0 3.1429,-1.34006 3.1429,-3.00469 v -3.0047 l -2,0.009 v 3 c 0,1 -1.12938,1 -2,1 h -14 c -1,0 -2,0 -2,-1 v -3.00938 z"
         style="fill:#d3dae3;fill-opacity:1;stroke-width:1.53651"
         sodipodi:nodetypes="cssssccsssscc" />
    </g>
    <g
       id="22-22-kget">
      <rect
         style="opacity:0.00100002;fill:#d1d5e9;fill-opacity:1"
         width="22"
         height="22"
         x="358"
         y="544.36218"
         id="rect2" />
      <path
         id="rect867-3"
         d="m 367.94959,547.36217 c -0.55398,0 -0.94634,0.44671 -0.94959,1.00155 v 8.59937 l -2.64606,-2.59972 c -0.19586,-0.19616 -0.51118,-0.19616 -0.70702,0 -0.19585,0.19614 -0.19585,0.51196 0,0.70809 l 4.9492,4.95698 c 0.11021,0.11034 0.25904,0.15854 0.40239,0.1447 0.11139,-0.0108 0.21897,-0.059 0.30465,-0.1447 l 4.94928,-4.95698 c 0.1958,-0.19613 0.1958,-0.51195 0,-0.70809 -0.19587,-0.19616 -0.51118,-0.19616 -0.70701,0 L 371,556.96309 v -8.59937 c 0,-0.55485 -0.49638,-1.00155 -1.05029,-1.00155 z m 1.00007,11.60401 v 0 l 1.00003,-1.00155 -1.00003,1.00155 -1.00007,-1.00155 z"
         fill="currentColor"
         style="color:#31363b;fill:#d3dae3;fill-opacity:1;stroke-width:1.00084"
         sodipodi:nodetypes="sscccccccccccssscccccc" />
      <path
         id="path292-6"
         d="m 362,559.35598 v 2.0031 c 0,1.10968 0.892,2.00309 1.99996,2.00309 h 10.0001 c 1.10792,0 1.99994,-0.89341 1.99994,-2.00309 v -2.0031 l -1,0.006 v 1.99968 c 0,0.66662 -0.446,1 -1,1 h -10 c -0.63637,0 -1,-0.33338 -1,-1 v -2 z"
         fill="currentColor"
         style="color:#31363b;fill:#d3dae3;fill-opacity:1;stroke-width:1.00084"
         sodipodi:nodetypes="cssssccsssscc" />
    </g>
  </g>
</svg>
