<?xml version="1.0" encoding="UTF-8" standalone="no"?>
<svg
   width="32"
   height="32"
   version="1.1"
   id="svg12"
   sodipodi:docname="kmail.svg"
   inkscape:version="1.3 (0e150ed6c4, 2023-07-21)"
   xmlns:inkscape="http://www.inkscape.org/namespaces/inkscape"
   xmlns:sodipodi="http://sodipodi.sourceforge.net/DTD/sodipodi-0.dtd"
   xmlns="http://www.w3.org/2000/svg"
   xmlns:svg="http://www.w3.org/2000/svg"
   xmlns:rdf="http://www.w3.org/1999/02/22-rdf-syntax-ns#"
   xmlns:cc="http://creativecommons.org/ns#"
   xmlns:dc="http://purl.org/dc/elements/1.1/">
  <metadata
     id="metadata18">
    <rdf:RDF>
      <cc:Work
         rdf:about="">
        <dc:format>image/svg+xml</dc:format>
        <dc:type
           rdf:resource="http://purl.org/dc/dcmitype/StillImage" />
      </cc:Work>
    </rdf:RDF>
  </metadata>
  <defs
     id="defs16" />
  <sodipodi:namedview
     pagecolor="#000000"
     bordercolor="#008080"
     borderopacity="1"
     objecttolerance="10"
     gridtolerance="10"
     guidetolerance="10"
     inkscape:pageopacity="0"
     inkscape:pageshadow="2"
     inkscape:window-width="1920"
     inkscape:window-height="994"
     id="namedview14"
     showgrid="true"
     inkscape:zoom="13.947502"
     inkscape:cx="23.731848"
     inkscape:cy="19.680943"
     inkscape:window-x="0"
     inkscape:window-y="0"
     inkscape:window-maximized="1"
     inkscape:current-layer="svg12"
     inkscape:document-rotation="0"
     inkscape:pagecheckerboard="true"
     inkscape:showpageshadow="false"
     inkscape:deskcolor="#000000">
    <inkscape:grid
       id="grid1"
       units="px"
       originx="0"
       originy="0"
       spacingx="1"
       spacingy="1"
       empcolor="#0099e5"
       empopacity="0.30196078"
       color="#0099e5"
       opacity="0.14901961"
       empspacing="5"
       dotted="false"
       gridanglex="30"
       gridanglez="30"
       visible="true" />
  </sodipodi:namedview>
  <g
     id="kmail">
    <rect
       style="opacity:0.00100002"
       width="32"
       height="32"
       x="0"
       y="0"
       id="rect7" />
    <path
       d="M 28.841984,6 H 3.1580172 C 2.5193722,6 2,6.546639 2,7.218814 V 24.781185 C 2,25.453361 2.5193722,26 3.1580172,26 H 28.841984 C 29.480629,26 30,25.453361 30,24.781185 V 7.218814 C 30,6.546639 29.480629,6 28.841984,6 Z M 29,24 c 0,1 0,1 -1,1 H 4 C 3,25 3,25 3,24 V 10 l 13,7 13,-7 z M 29,8 16,15 3,8 V 8 C 3,7 3,7 4,7 h 24 c 1,0 1,0 1,1 z"
       id="path2"
       style="fill:#d3dae3;fill-opacity:1;stroke-width:0.396525"
       sodipodi:nodetypes="ssssssssssssscccsscccsss" />
  </g>
  <g
     id="22-22-kmail">
    <g
       id="g992"
       transform="translate(32,10)">
      <rect
         style="opacity:0.00100002"
         width="22"
         height="22"
         x="0"
         y="0"
         id="rect2" />
    </g>
    <path
       d="M 52.172846,14 H 33.827154 C 33.370978,14 33,14.382653 33,14.853174 V 27.146825 C 33,27.617347 33.370978,28 33.827154,28 H 52.172846 C 52.629019,28 53,27.617347 53,27.146825 V 14.853174 C 53,14.382653 52.629019,14 52.172846,14 Z M 52,27 H 51 34 v 0 -10 l 9,4 9,-4 z m 0,-11 -9,4 -9,-4 v -1 h 1 16 1 z"
       id="path2-6"
       style="fill:#d3dae3;fill-opacity:1;stroke-width:0.280386"
       sodipodi:nodetypes="ssssssssscccccccccccccccc" />
  </g>
</svg>
