<?xml version="1.0" encoding="UTF-8" standalone="no"?>
<svg
   width="32"
   height="32"
   version="1.1"
   id="svg22"
   sodipodi:docname="mail.svg"
   inkscape:version="1.3 (0e150ed6c4, 2023-07-21)"
   xmlns:inkscape="http://www.inkscape.org/namespaces/inkscape"
   xmlns:sodipodi="http://sodipodi.sourceforge.net/DTD/sodipodi-0.dtd"
   xmlns="http://www.w3.org/2000/svg"
   xmlns:svg="http://www.w3.org/2000/svg"
   xmlns:rdf="http://www.w3.org/1999/02/22-rdf-syntax-ns#"
   xmlns:cc="http://creativecommons.org/ns#"
   xmlns:dc="http://purl.org/dc/elements/1.1/">
  <metadata
     id="metadata28">
    <rdf:RDF>
      <cc:Work
         rdf:about="">
        <dc:format>image/svg+xml</dc:format>
        <dc:type
           rdf:resource="http://purl.org/dc/dcmitype/StillImage" />
      </cc:Work>
    </rdf:RDF>
  </metadata>
  <defs
     id="defs26" />
  <sodipodi:namedview
     pagecolor="#000000"
     bordercolor="#008080"
     borderopacity="1"
     objecttolerance="10"
     gridtolerance="10"
     guidetolerance="10"
     inkscape:pageopacity="0"
     inkscape:pageshadow="2"
     inkscape:window-width="1920"
     inkscape:window-height="994"
     id="namedview24"
     showgrid="true"
     inkscape:zoom="9.9628806"
     inkscape:cx="25.996498"
     inkscape:cy="6.3736587"
     inkscape:window-x="0"
     inkscape:window-y="0"
     inkscape:window-maximized="1"
     inkscape:current-layer="svg22"
     inkscape:document-rotation="0"
     inkscape:pagecheckerboard="true"
     inkscape:showpageshadow="false"
     inkscape:deskcolor="#000000">
    <inkscape:grid
       id="grid1"
       units="px"
       originx="0"
       originy="0"
       spacingx="1"
       spacingy="1"
       empcolor="#0099e5"
       empopacity="0.30196078"
       color="#0099e5"
       opacity="0.14901961"
       empspacing="5"
       dotted="false"
       gridanglex="30"
       gridanglez="30"
       visible="true" />
  </sodipodi:namedview>
  <g
     id="mail-unread-new">
    <rect
       style="opacity:0.00100002"
       width="32"
       height="32"
       x="0"
       y="0"
       id="rect7-3" />
    <path
       d="m 31.499993,6.4999909 c 0,1.105112 -0.894898,2.000009 -1.999997,2.000009 C 28.395828,8.500001 27.5,7.6051029 27.5,6.4999909 27.5,5.3958218 28.395828,4.5 29.499996,4.5 c 1.105099,0 1.999997,0.8958218 1.999997,1.9999909 z"
       id="path72-3"
       style="color:#e5e9ef;fill:#d3dae3;fill-opacity:1;stroke-width:0.0238098"
       class="ColorScheme-Text" />
    <path
       d="M 24,6 H 3.158017 C 2.519372,6 2,6.546639 2,7.218814 V 24.781185 C 2,25.453361 2.519372,26 3.158017,26 H 28.841984 C 29.480629,26 30,25.453361 30,24.781185 V 7 h -6 c 0.567142,0 0.587109,-1 0,-1 z m 5,18 c 0,1 0,1 -1,1 H 4 C 3,25 3,25 3,24 V 10 l 13,7 9,-5 h 4 z M 25,10 16,15 3,8 V 8 C 3,7 3,7 4,7 h 20 6 l -3e-6,5 C 29.999994,11.522717 29,11.58096 29,12 h -4 z"
       id="path2-36"
       style="fill:#d3dae3;fill-opacity:1;stroke-width:0.396525"
       sodipodi:nodetypes="csssssscccssssccccsccccscccccc" />
  </g>
  <g
     id="mail-unread"
     transform="translate(0,-32)">
    <rect
       style="opacity:0.00100002"
       width="32"
       height="32"
       x="0"
       y="0"
       id="rect7-5" />
    <path
       d="M 28.841984,6 H 3.158017 C 2.519372,6 2,6.546639 2,7.218814 V 24.781185 C 2,25.453361 2.519372,26 3.158017,26 H 28.841984 C 29.480629,26 30,25.453361 30,24.781185 V 7.218814 C 30,6.546639 29.480629,6 28.841984,6 Z M 29,24 c 0,1 0,1 -1,1 H 4 C 3,25 3,25 3,24 V 10 l 13,7 13,-7 z M 29,8 16,15 3,8 V 8 C 3,7 3,7 4,7 h 24 c 1,0 1,0 1,1 z"
       id="path2"
       style="fill:#d3dae3;fill-opacity:1;stroke-width:0.396525"
       sodipodi:nodetypes="ssssssssssssscccsscccsss" />
  </g>
  <g
     id="22-22-mail-unread"
     transform="translate(32,-22)">
    <rect
       style="opacity:0.00100002"
       width="22"
       height="22"
       x="0"
       y="0"
       id="rect2" />
    <path
       d="M 20.172846,4 H 1.827154 C 1.370978,4 1,4.382653 1,4.853174 V 17.146825 C 1,17.617347 1.370978,18 1.827154,18 H 20.172846 C 20.629019,18 21,17.617347 21,17.146825 V 4.853174 C 21,4.382653 20.629019,4 20.172846,4 Z M 20,17 H 19 2 V 17 7 l 9,4 9,-4 z M 20,6 11,10 2,6 V 5 h 1 16 1 z"
       id="path2-6-6"
       style="fill:#d3dae3;fill-opacity:1;stroke-width:0.280386"
       sodipodi:nodetypes="ssssssssscccccccccccccccc" />
  </g>
  <g
     id="g1"
     transform="translate(32,10)">
    <rect
       style="opacity:0.00100002"
       width="22"
       height="22"
       x="0"
       y="0"
       id="rect2-6" />
    <path
       d="M 17,4 V 4 H 1.82715 C 1.370978,4 1,4.382653 1,4.853174 V 17.146825 C 1,17.617347 1.370978,18 1.827154,18 H 20.172846 C 20.629019,18 21,17.617347 21,17.146825 V 8 C 21,7.3897887 20,7.3892477 20,8 L 17,5 c 0.696895,0 0.714083,-0.9940096 0,-1 z m 3,13 H 19 2 V 17 7 l 9,4 7,-3 h 2 z M 18,7 11,10 2,6 V 5 h 1 14 l 3,3 v 0 0 h -2 z"
       id="path2-6-6-7"
       style="fill:#d3dae3;fill-opacity:1;stroke-width:0.280386"
       sodipodi:nodetypes="ccsssssscccccccccccccccccccccccc" />
    <path
       d="M 21.999993,4.4999931 C 21.999993,5.3288271 21.328824,6 20.499996,6 19.671869,6.0000009 19,5.3288271 19,4.4999931 19,3.6718665 19.671869,3 20.499996,3 c 0.828828,0 1.499997,0.6718665 1.499997,1.4999931 z"
       id="path72-3-5"
       style="color:#e5e9ef;fill:#d3dae3;fill-opacity:1;stroke-width:0.0178575"
       class="ColorScheme-Text" />
  </g>
</svg>
