<?xml version="1.0" encoding="UTF-8" standalone="no"?>
<svg
   inkscape:version="1.3 (0e150ed6c4, 2023-07-21)"
   sodipodi:docname="media.svg"
   id="svg218"
   viewBox="0 0 32 32"
   version="1.1"
   height="32"
   width="32"
   xmlns:inkscape="http://www.inkscape.org/namespaces/inkscape"
   xmlns:sodipodi="http://sodipodi.sourceforge.net/DTD/sodipodi-0.dtd"
   xmlns="http://www.w3.org/2000/svg"
   xmlns:svg="http://www.w3.org/2000/svg"
   xmlns:rdf="http://www.w3.org/1999/02/22-rdf-syntax-ns#"
   xmlns:cc="http://creativecommons.org/ns#"
   xmlns:dc="http://purl.org/dc/elements/1.1/">
  <metadata
     id="metadata224">
    <rdf:RDF>
      <cc:Work
         rdf:about="">
        <dc:format>image/svg+xml</dc:format>
        <dc:type
           rdf:resource="http://purl.org/dc/dcmitype/StillImage" />
      </cc:Work>
    </rdf:RDF>
  </metadata>
  <defs
     id="defs222" />
  <sodipodi:namedview
     inkscape:document-rotation="0"
     inkscape:lockguides="true"
     inkscape:current-layer="svg218"
     inkscape:window-maximized="1"
     inkscape:window-y="0"
     inkscape:window-x="0"
     inkscape:cy="63.493679"
     inkscape:cx="146.33446"
     inkscape:zoom="2.8428027"
     showgrid="true"
     id="namedview220"
     inkscape:window-height="994"
     inkscape:window-width="1920"
     inkscape:pageshadow="2"
     inkscape:pageopacity="0"
     guidetolerance="10"
     gridtolerance="10"
     objecttolerance="10"
     borderopacity="1"
     bordercolor="#017f7f"
     pagecolor="#000000"
     inkscape:pagecheckerboard="true"
     showguides="false"
     inkscape:showpageshadow="false"
     inkscape:deskcolor="#000000">
    <inkscape:grid
       id="grid4"
       units="px"
       originx="0"
       originy="0"
       spacingx="1"
       spacingy="1"
       empcolor="#0099e5"
       empopacity="0.30196078"
       color="#0099e5"
       opacity="0.14901961"
       empspacing="5"
       dotted="false"
       gridanglex="30"
       gridanglez="30"
       visible="true" />
  </sodipodi:namedview>
  <g
     transform="translate(0,72)"
     id="22-22-media-playback-start"
     style="fill:#d3dae3;fill-opacity:1">
    <rect
       id="rect2"
       y="0"
       x="0"
       height="22"
       width="22"
       style="opacity:0.00100002;fill:#d3dae3;fill-opacity:1" />
    <path
       sodipodi:nodetypes="ssssscccc"
       inkscape:connector-curvature="0"
       id="path4"
       d="m 11,3 c -4.418278,0 -8,3.581722 -8,8 0,4.418278 3.581722,8 8,8 4.418278,0 8,-3.581722 8,-8 C 19,6.581722 15.418278,3 11,3 Z M 8,7 14.927519,11 8,15 Z"
       style="opacity:1;fill:#d3dae3;fill-opacity:1" />
  </g>
  <g
     transform="translate(9.999997,72)"
     id="22-22-media-skip-forward"
     style="fill:#d3dae3;fill-opacity:1">
    <rect
       id="rect7"
       y="0"
       x="22"
       height="22"
       width="22"
       style="opacity:0.00100002;fill:#d3dae3;fill-opacity:1" />
    <path
       inkscape:connector-curvature="0"
       id="path9"
       d="m 33,3 c -4.418278,0 -8,3.581722 -8,8 0,4.418278 3.581722,8 8,8 4.418278,0 8,-3.581722 8,-8 0,-4.418278 -3.581722,-8 -8,-8 z m -4,4 6,3.5 V 7 h 2 v 4 4 H 35 V 11.5 L 29,15 Z"
       style="opacity:1;fill:#d3dae3;fill-opacity:1" />
  </g>
  <g
     transform="translate(-4.999998,48)"
     id="22-22-media-playback-pause"
     style="fill:#d3dae3;fill-opacity:1">
    <rect
       id="rect12"
       y="24"
       x="165"
       height="22"
       width="22"
       style="opacity:0.00100002;fill:#d3dae3;fill-opacity:1" />
    <path
       inkscape:connector-curvature="0"
       id="path14"
       transform="translate(55,24)"
       d="m 121,3 c -4.41828,0 -8,3.581722 -8,8 0,4.418278 3.58172,8 8,8 4.41828,0 8,-3.581722 8,-8 0,-4.418278 -3.58172,-8 -8,-8 z m -4,4 h 3 v 8 h -3 z m 5,0 h 3 v 8 h -3 z"
       style="opacity:1;fill:#d3dae3;fill-opacity:1" />
  </g>
  <g
     transform="translate(4.999998,48)"
     id="22-22-media-playback-stop"
     style="fill:#d3dae3;fill-opacity:1">
    <rect
       id="rect17"
       y="24"
       x="187"
       height="22"
       width="22"
       style="opacity:0.00100002;fill:#d3dae3;fill-opacity:1" />
    <path
       inkscape:connector-curvature="0"
       id="path19"
       transform="translate(55,24)"
       d="m 143,3 c -4.41828,0 -8,3.581722 -8,8 0,4.418278 3.58172,8 8,8 4.41828,0 8,-3.581722 8,-8 0,-4.418278 -3.58172,-8 -8,-8 z m -4,4 h 2 4 2 v 8 h -2 -4 -2 z"
       style="opacity:1;fill:#d3dae3;fill-opacity:1" />
  </g>
  <g
     transform="translate(101.99997,72)"
     id="22-22-media-record"
     style="fill:#d3dae3;fill-opacity:1">
    <rect
       id="rect22"
       y="0"
       x="154"
       height="22"
       width="22"
       style="opacity:0.00100002;fill:#d3dae3;fill-opacity:1" />
    <path
       inkscape:connector-curvature="0"
       id="path24"
       d="m 165,3 a 8,8 0 0 0 -8,8 8,8 0 0 0 8,8 8,8 0 0 0 8,-8 8,8 0 0 0 -8,-8 z m 0,4 a 4,4 0 0 1 4,4 4,4 0 0 1 -4,4 4,4 0 0 1 -4,-4 4,4 0 0 1 4,-4 z"
       style="opacity:1;fill:#da4453;fill-opacity:1" />
  </g>
  <g
     transform="translate(-7.000004,48)"
     id="22-22-media-eject"
     style="fill:#d3dae3;fill-opacity:1">
    <rect
       id="rect27"
       y="24"
       x="231"
       height="22"
       width="22"
       style="opacity:0.00100002;fill:#d3dae3;fill-opacity:1" />
    <path
       inkscape:connector-curvature="0"
       id="path29"
       transform="translate(55,24)"
       d="m 187,3 c -4.41828,0 -8,3.581722 -8,8 0,4.418278 3.58172,8 8,8 4.41828,0 8,-3.581722 8,-8 0,-4.418278 -3.58172,-8 -8,-8 z m 0,3 4,4 v 1 h -8 v -1 z m -4,7 h 8 v 2 h -8 z"
       style="opacity:1;fill:#d3dae3;fill-opacity:1" />
  </g>
  <g
     transform="translate(73.999989,72)"
     id="22-22-media-seek-forward"
     style="fill:#d3dae3;fill-opacity:1">
    <rect
       id="rect32"
       y="0"
       x="22"
       height="22"
       width="22"
       style="opacity:0.00100002;fill:#d3dae3;fill-opacity:1" />
    <path
       inkscape:connector-curvature="0"
       id="path34"
       transform="translate(-44)"
       d="m 77,3 c -4.418278,0 -8,3.581722 -8,8 0,4.418278 3.581722,8 8,8 4.418278,0 8,-3.581722 8,-8 0,-4.418278 -3.581722,-8 -8,-8 z m -5,4 5,3 V 7 l 6,4 -6,4 v -3 l -5,3 v -4 z"
       style="opacity:1;fill:#d3dae3;fill-opacity:1" />
  </g>
  <g
     transform="matrix(-0.99999997,0,0,0.99999997,107.99998,72)"
     id="22-22-media-skip-backward"
     style="fill:#d3dae3;fill-opacity:1">
    <rect
       id="rect37"
       y="0"
       x="22"
       height="22"
       width="22"
       style="opacity:0.00100002;fill:#d3dae3;fill-opacity:1" />
    <path
       inkscape:connector-curvature="0"
       id="path39"
       d="m 33,3 c -4.418278,0 -8,3.581722 -8,8 0,4.418278 3.581722,8 8,8 4.418278,0 8,-3.581722 8,-8 0,-4.418278 -3.581722,-8 -8,-8 z m -4,4 6,3.5 V 7 h 2 v 4 4 H 35 V 11.5 L 29,15 Z"
       style="opacity:1;fill:#d3dae3;fill-opacity:1" />
  </g>
  <g
     transform="matrix(-0.99999997,0,0,0.99999997,171.99997,72)"
     id="22-22-media-seek-backward"
     style="fill:#d3dae3;fill-opacity:1">
    <rect
       id="rect42"
       y="0"
       x="22"
       height="22"
       width="22"
       style="opacity:0.00100002;fill:#d3dae3;fill-opacity:1" />
    <path
       inkscape:connector-curvature="0"
       id="path44"
       transform="translate(-44)"
       d="m 77,3 c -4.418278,0 -8,3.581722 -8,8 0,4.418278 3.581722,8 8,8 4.418278,0 8,-3.581722 8,-8 0,-4.418278 -3.581722,-8 -8,-8 z m -5,4 5,3 V 7 l 6,4 -6,4 v -3 l -5,3 v -4 z"
       style="opacity:1;fill:#d3dae3;fill-opacity:1" />
  </g>
  <g
     transform="translate(0,-21.999988)"
     id="22-22-media-playback-playing"
     style="fill:#d3dae3;fill-opacity:1">
    <rect
       id="rect47"
       style="opacity:0.00100002;fill:#d3dae3;fill-opacity:1"
       y="0"
       x="0"
       height="22"
       width="22" />
    <path
       sodipodi:nodetypes="ssssscccc"
       inkscape:connector-curvature="0"
       id="path49"
       style="opacity:1;fill:#d3dae3;fill-opacity:1"
       d="m 11,3 c -4.418278,0 -8,3.581722 -8,8 0,4.418278 3.581722,8 8,8 4.418278,0 8,-3.581722 8,-8 C 19,6.581722 15.418278,3 11,3 Z M 8,7 14.973748,11 8,15 Z" />
  </g>
  <g
     transform="translate(-125,-45.999988)"
     id="22-22-media-playback-paused"
     style="fill:#d3dae3;fill-opacity:1">
    <rect
       id="rect52"
       style="opacity:0.00100002;fill:#d3dae3;fill-opacity:1"
       y="24"
       x="165"
       height="22"
       width="22" />
    <path
       inkscape:connector-curvature="0"
       id="path54"
       style="opacity:1;fill:#d3dae3;fill-opacity:1"
       transform="translate(55,24)"
       d="m 121,3 c -4.41828,0 -8,3.581722 -8,8 0,4.418278 3.58172,8 8,8 4.41828,0 8,-3.581722 8,-8 0,-4.418278 -3.58172,-8 -8,-8 z m -4,4 h 3 v 8 h -3 z m 5,0 h 3 v 8 h -3 z" />
  </g>
  <g
     transform="translate(-109,-45.999988)"
     id="22-22-media-playback-stopped"
     style="fill:#d3dae3;fill-opacity:1">
    <rect
       id="rect57"
       style="opacity:0.00100002;fill:#d3dae3;fill-opacity:1"
       y="24"
       x="187"
       height="22"
       width="22" />
    <path
       inkscape:connector-curvature="0"
       id="path59"
       style="opacity:1;fill:#d3dae3;fill-opacity:1"
       transform="translate(55,24)"
       d="m 143,3 c -4.41828,0 -8,3.581722 -8,8 0,4.418278 3.58172,8 8,8 4.41828,0 8,-3.581722 8,-8 0,-4.418278 -3.58172,-8 -8,-8 z m -4,4 h 2 4 2 v 8 h -2 -4 -2 z" />
  </g>
  <g
     id="media-playback-start"
     style="fill:#d3dae3;fill-opacity:1"
     transform="translate(0,40)">
    <rect
       id="rect62"
       y="0"
       x="0"
       height="32"
       width="32"
       style="opacity:0.00100002;fill:#d3dae3;fill-opacity:1" />
    <path
       inkscape:connector-curvature="0"
       id="path70"
       style="opacity:1;fill:#d3dae3;fill-opacity:1;stroke-width:1.2"
       d="M 16,4 A 12,12 0 0 0 4,16 12,12 0 0 0 16,28 12,12 0 0 0 28,16 12,12 0 0 0 16,4 Z m -3.232033,4.802347 a 1.6366804,1.6618747 0 0 1 0.935159,0.250779 l 4.364062,2.767972 4.364067,2.770314 a 1.6366804,1.6618747 0 0 1 0,2.817176 l -4.364067,2.770314 -4.364062,2.767972 A 1.6366804,1.6618747 0 0 1 11.2,21.538274 V 10.461726 a 1.6366804,1.6618747 0 0 1 1.567967,-1.659379 z" />
  </g>
  <g
     id="media-playback-pause"
     style="fill:#d3dae3;fill-opacity:1"
     transform="translate(160,40)">
    <rect
       id="rect75"
       style="opacity:0.00100002;fill:#d3dae3;fill-opacity:1"
       y="0"
       x="0"
       height="32"
       width="32" />
    <path
       inkscape:connector-curvature="0"
       id="path83"
       style="opacity:1;fill:#d3dae3;fill-opacity:1;stroke-width:1.2"
       d="M 16,4 C 9.372584,4 4,9.372584 4,16 4,22.627416 9.372584,28 16,28 22.627416,28 28,22.627416 28,16 28,9.372584 22.627416,4 16,4 Z m -4.2,6 c 0.9972,0 1.8,0.8028 1.8,1.8 v 8.4 C 13.6,21.1972 12.7972,22 11.8,22 10.8028,22 10,21.1972 10,20.2 V 11.8 C 10,10.8028 10.8028,10 11.8,10 Z m 8.4,0 c 0.9972,0 1.8,0.8028 1.8,1.8 v 8.4 c 0,0.9972 -0.8028,1.8 -1.8,1.8 -0.9972,0 -1.8,-0.8028 -1.8,-1.8 v -8.4 c 0,-0.9972 0.8028,-1.8 1.8,-1.8 z" />
  </g>
  <g
     id="media-playback-stop"
     style="fill:#d3dae3;fill-opacity:1"
     transform="translate(192,40)">
    <rect
       id="rect88"
       style="opacity:0.00100002;fill:#d3dae3;fill-opacity:1"
       y="0"
       x="0"
       height="32"
       width="32" />
    <path
       inkscape:connector-curvature="0"
       id="path96"
       style="opacity:1;fill:#d3dae3;fill-opacity:1;stroke-width:1.2"
       d="M 16,4 A 12,12 0 0 0 4,16 12,12 0 0 0 16,28 12,12 0 0 0 28,16 12,12 0 0 0 16,4 Z m -4.8,6 h 1.2 8.4 c 0.6648,0 1.2,0.5352 1.2,1.2 V 16 20.8 C 22,21.4648 21.4648,22 20.8,22 H 12.4 11.2 C 10.5352,22 10,21.4648 10,20.8 V 11.2 C 10,10.5352 10.5352,10 11.2,10 Z" />
  </g>
  <g
     id="media-skip-forward"
     style="fill:#d3dae3;fill-opacity:1"
     transform="translate(32,40)">
    <rect
       id="rect101"
       style="opacity:0.00100002;fill:#d3dae3;fill-opacity:1"
       y="0"
       x="0"
       height="32"
       width="32" />
    <path
       inkscape:connector-curvature="0"
       id="path109"
       style="opacity:1;fill:#d3dae3;fill-opacity:1;stroke-width:1.2"
       d="M 16,4 C 9.372587,4 4,9.372587 4,16 4,22.627413 9.372587,28 16,28 22.627413,28 28,22.627413 28,16 28,9.372587 22.627413,4 16,4 Z m 6,4.8 c 0.6648,0 1.2,0.5352 1.2,1.2 v 12 c 0,0.6648 -0.5352,1.2 -1.2,1.2 -0.6648,0 -1.2,-0.5352 -1.2,-1.2 v -4.317188 l -3.932812,2.49609 -4.364062,2.767972 C 11.413458,23.637294 10.001005,22.842435 10,21.538274 V 10.461726 c 5.46e-4,-0.890296 0.691944,-1.621998 1.567967,-1.659379 0.329483,-0.01403 0.655437,0.07348 0.935159,0.250779 L 16.867188,11.821098 20.8,14.317188 V 10 c 0,-0.6648 0.5352,-1.2 1.2,-1.2 z" />
  </g>
  <g
     transform="matrix(-1,0,0,1,96,40)"
     id="media-skip-backward"
     style="fill:#d3dae3;fill-opacity:1">
    <rect
       id="rect114"
       y="0"
       x="0"
       height="32"
       width="32"
       style="opacity:0.00100002;fill:#d3dae3;fill-opacity:1" />
    <path
       inkscape:connector-curvature="0"
       id="path122"
       d="M 16,4 C 9.3725849,4 4,9.372586 4,16 4,22.627414 9.3725849,28 16,28 22.627414,28 28,22.627414 28,16 28,9.372586 22.627414,4 16,4 Z m 6,4.8 c 0.6648,0 1.2,0.5352 1.2,1.2 v 12 c 0,0.6648 -0.5352,1.2 -1.2,1.2 -0.6648,0 -1.2,-0.5352 -1.2,-1.2 v -4.317189 l -3.932811,2.496091 -4.364064,2.767973 C 11.41346,23.637294 10.001004,22.842444 10,21.538275 v -11.07655 c 5.43e-4,-0.890294 0.691946,-1.621999 1.567967,-1.659379 0.329483,-0.01402 0.655438,0.07347 0.935158,0.250779 L 16.867189,11.821098 20.8,14.317189 V 10 c 0,-0.6648 0.5352,-1.2 1.2,-1.2 z"
       style="opacity:1;fill:#d3dae3;fill-opacity:1;stroke-width:1.2" />
  </g>
  <g
     id="media-seek-forward"
     style="fill:#d3dae3;fill-opacity:1"
     transform="translate(96,40)">
    <rect
       id="rect127"
       style="opacity:0.00100002;fill:#d3dae3;fill-opacity:1"
       y="0"
       x="0"
       height="32"
       width="32" />
    <path
       inkscape:connector-curvature="0"
       id="path135"
       style="opacity:1;fill:#d3dae3;fill-opacity:1;stroke-width:1.2"
       d="M 16,4 A 12,12 0 0 0 4,16 12,12 0 0 0 16,28 12,12 0 0 0 28,16 12,12 0 0 0 16,4 Z m -5.981255,6.004696 a 1.3093406,1.3850913 0 0 1 0.0352,0 1.3093406,1.3850913 0 0 1 0.747656,0.208588 l 3.492184,2.306245 1.706244,1.127343 v -2.259378 a 1.3093406,1.3850913 0 0 1 1.253912,-1.382798 1.3093406,1.3850913 0 0 1 0.747657,0.208588 l 3.492187,2.306245 3.492175,2.308593 a 1.3093406,1.3850913 0 0 1 0,2.348437 l -3.492172,2.308588 -3.492187,2.306265 A 1.3093406,1.3850913 0 0 1 16,20.617186 v -2.259378 l -1.706245,1.127339 -3.492186,2.306265 A 1.3093406,1.3850913 0 0 1 8.8,20.617186 v -9.229692 a 1.3093406,1.3850913 0 0 1 1.218745,-1.382798 z" />
  </g>
  <g
     transform="matrix(-1,0,0,1,160,40)"
     id="media-seek-backward"
     style="fill:#d3dae3;fill-opacity:1">
    <rect
       id="rect140"
       y="0"
       x="0"
       height="32"
       width="32"
       style="opacity:0.00100002;fill:#d3dae3;fill-opacity:1" />
    <path
       inkscape:connector-curvature="0"
       id="path148"
       d="M 16,4 A 12,12 0 0 0 4,16 12,12 0 0 0 16,28 12,12 0 0 0 28,16 12,12 0 0 0 16,4 Z m -5.981251,6.004692 a 1.3093405,1.3850914 0 0 1 0.03518,0 1.3093405,1.3850914 0 0 1 0.747655,0.208589 l 3.492182,2.306248 1.706247,1.127346 v -2.259378 a 1.3093405,1.3850914 0 0 1 1.253909,-1.382805 1.3093405,1.3850914 0 0 1 0.74766,0.208589 l 3.492184,2.306248 3.492182,2.308596 a 1.3093405,1.3850914 0 0 1 0,2.348437 l -3.492182,2.308589 -3.492184,2.306261 A 1.3093405,1.3850914 0 0 1 16,20.617189 v -2.259378 l -1.706248,1.12734 -3.492185,2.306261 A 1.3093405,1.3850914 0 0 1 8.8,20.617189 v -9.229692 a 1.3093405,1.3850914 0 0 1 1.218749,-1.382805 z"
       style="opacity:1;fill:#d3dae3;fill-opacity:1;stroke-width:1.2" />
  </g>
  <g
     id="media-record"
     style="fill:#d3dae3;fill-opacity:1"
     transform="translate(256,40)">
    <rect
       id="rect153"
       y="0"
       x="0"
       height="32"
       width="32"
       style="opacity:0.00100002;fill:#d3dae3;fill-opacity:1" />
    <path
       inkscape:connector-curvature="0"
       id="path159"
       style="fill:#da4453;fill-opacity:1;stroke-width:1.2"
       d="M 16,4 A 12,12 0 0 0 4,16 12,12 0 0 0 16,28 12,12 0 0 0 28,16 12,12 0 0 0 16,4 Z" />
    <circle
       id="circle163"
       style="fill:#d3dae3;fill-opacity:1"
       r="5"
       cy="16"
       cx="16" />
  </g>
  <g
     id="media-eject"
     style="fill:#d3dae3;fill-opacity:1"
     transform="translate(224,40)">
    <rect
       id="rect166"
       style="opacity:0.00100002;fill:#d3dae3;fill-opacity:1"
       y="0"
       x="0"
       height="32"
       width="32" />
    <path
       inkscape:connector-curvature="0"
       id="path174"
       style="opacity:1;fill:#d3dae3;fill-opacity:1;stroke-width:1.2"
       d="M 16,4 A 12,12 0 0 0 4,16 12,12 0 0 0 16,28 12,12 0 0 0 28,16 12,12 0 0 0 16,4 Z m -0.0164,3.6 a 1.3850918,1.3094064 0 0 1 1.190626,0.614063 l 2.308593,3.492187 2.30625,3.492187 A 1.3850918,1.3094064 0 0 1 20.614844,17.2 h -9.229688 a 1.3850918,1.3094064 0 0 1 -1.382812,-1.253906 1.3850918,1.3094064 0 0 1 0.208593,-0.747657 l 2.30625,-3.492187 2.308594,-3.492187 A 1.3850918,1.3094064 0 0 1 15.983594,7.6 Z M 11.8,18.4 h 8.4 c 0.9972,0 1.8,0.8028 1.8,1.8 0,0.9972 -0.8028,1.8 -1.8,1.8 H 11.8 C 10.8028,22 10,21.1972 10,20.2 c 0,-0.9972 0.8028,-1.8 1.8,-1.8 z" />
  </g>
  <g
     id="media-playback-paused"
     style="fill:#d3dae3;fill-opacity:1"
     transform="translate(40)">
    <rect
       id="rect192"
       y="0"
       x="0"
       height="32"
       width="32"
       style="opacity:0.00100002;fill:#d3dae3;fill-opacity:1" />
    <path
       inkscape:connector-curvature="0"
       id="path200"
       d="M 16,4 C 9.3725771,4 4,9.3725771 4,16 4,22.627421 9.3725771,28 16,28 22.627421,28 28,22.627421 28,16 28,9.3725771 22.627421,4 16,4 Z m -4.2,6 c 0.9972,0 1.8,0.8028 1.8,1.8 v 8.4 C 13.6,21.1972 12.7972,22 11.8,22 10.8028,22 10,21.1972 10,20.2 V 11.8 C 10,10.8028 10.8028,10 11.8,10 Z m 8.4,0 c 0.9972,0 1.8,0.8028 1.8,1.8 v 8.4 c 0,0.9972 -0.8028,1.8 -1.8,1.8 -0.9972,0 -1.8,-0.8028 -1.8,-1.8 v -8.4 c 0,-0.9972 0.8028,-1.8 1.8,-1.8 z"
       style="opacity:1;fill:#d3dae3;fill-opacity:1;stroke-width:1.2" />
  </g>
  <g
     id="media-playback-playing"
     transform="matrix(1.6,0,0,1.6,0,51.2)"
     style="fill:#d3dae3;fill-opacity:1">
    <rect
       id="rect179"
       style="opacity:0.00100002;fill:#d3dae3;fill-opacity:1;stroke-width:0.625"
       y="-32"
       x="0"
       height="20"
       width="20" />
    <path
       inkscape:connector-curvature="0"
       id="path187"
       d="M 10,-29.5 A 7.5,7.5 0 0 0 2.5,-22 7.5,7.5 0 0 0 10,-14.5 7.5,7.5 0 0 0 17.5,-22 7.5,7.5 0 0 0 10,-29.5 Z m -2.02002,3.001475 a 1.0229251,1.0386719 0 0 1 0.5844732,0.156741 l 2.7275328,1.729977 2.72755,1.731437 a 1.0229251,1.0386719 0 0 1 0,1.76074 l -2.72755,1.731437 -2.7275327,1.729977 A 1.0229251,1.0386719 0 0 1 7,-18.538586 v -6.922828 a 1.0229251,1.0386719 0 0 1 0.97998,-1.037111 z"
       style="fill:#d3dae3;fill-opacity:1;stroke-width:0.75" />
  </g>
  <g
     id="media-playback-stopped"
     style="fill:#d3dae3;fill-opacity:1"
     transform="matrix(1.6,0,0,1.6,-114,0)">
    <rect
       id="rect205"
       y="0"
       x="120"
       height="20"
       width="20"
       style="opacity:0.00100002;fill:#d3dae3;fill-opacity:1;stroke-width:0.625" />
    <path
       inkscape:connector-curvature="0"
       id="path213"
       d="M 130,2.5 A 7.5,7.5 0 0 0 122.5,10 7.5,7.5 0 0 0 130,17.5 7.5,7.5 0 0 0 137.5,10 7.5,7.5 0 0 0 130,2.5 Z m -3,3.75 h 0.75 5.25 c 0.41552,0 0.75,0.3345 0.75,0.75 v 3 3 c 0,0.4155 -0.33448,0.75 -0.75,0.75 H 127.75 127 c -0.41552,0 -0.75,-0.3345 -0.75,-0.75 V 7 c 0,-0.4155 0.33448,-0.75 0.75,-0.75 z"
       style="fill:#d3dae3;fill-opacity:1;stroke-width:0.75" />
  </g>
</svg>
