<?xml version="1.0" encoding="UTF-8" standalone="no"?>
<svg
   version="1.1"
   viewBox="0 0 16 16"
   id="svg1"
   sodipodi:docname="activities.svg"
   width="16"
   height="16"
   inkscape:version="1.3.2 (091e20ef0f, 2023-11-25)"
   xmlns:inkscape="http://www.inkscape.org/namespaces/inkscape"
   xmlns:sodipodi="http://sodipodi.sourceforge.net/DTD/sodipodi-0.dtd"
   xmlns="http://www.w3.org/2000/svg"
   xmlns:svg="http://www.w3.org/2000/svg">
  <defs
     id="defs1" />
  <sodipodi:namedview
     id="namedview1"
     pagecolor="#ffffff"
     bordercolor="#999999"
     borderopacity="1"
     inkscape:showpageshadow="2"
     inkscape:pageopacity="0"
     inkscape:pagecheckerboard="0"
     inkscape:deskcolor="#d1d1d1"
     inkscape:zoom="16.83798"
     inkscape:cx="11.640351"
     inkscape:cy="12.946921"
     inkscape:window-width="1920"
     inkscape:window-height="994"
     inkscape:window-x="0"
     inkscape:window-y="0"
     inkscape:window-maximized="1"
     inkscape:current-layer="svg1" />
  <style
     type="text/css"
     id="current-color-scheme">.ColorScheme-Text {color:#fcfcfc;}</style>
  <g
     id="22-22-activities"
     transform="matrix(2.7487478,0,0,2.7487478,-23.272735,-7.2727283)">
    <rect
       style="opacity:0.00100002;fill:#d3dae3;fill-opacity:1;stroke-width:0.363802"
       id="rect1430-3-7-5"
       width="5.8208323"
       height="5.8208323"
       x="8.4666681"
       y="2.6458333" />
    <path
       style="color:#dfdfdf;fill:#d3dae3;fill-opacity:1;stroke-width:0.363816"
       class="ColorScheme-Text"
       d="M 11.377211,4.1010413 A 1.4552789,1.4552086 0 0 0 9.9219272,5.5562504 1.4552789,1.4552086 0 0 0 11.377211,7.0114575 1.4552789,1.4552086 0 0 0 12.832496,5.5562504 1.4552789,1.4552086 0 0 0 11.377211,4.1010413 Z M 9.9219272,4.4648436 c -0.6028124,0 -1.0914592,0.4886216 -1.0914592,1.0914068 0,0.6027825 0.4886468,1.0914049 1.0914592,1.0914049 l 0.0096,-7.268e-4 C 9.7004923,6.3417159 9.558035,5.9663638 9.558035,5.5562504 9.558035,5.1457703 9.7008,4.77082 9.9325152,4.4655553 Z m 2.9105688,0 c -0.005,2.174e-4 -0.0071,4.537e-4 -0.01142,7.084e-4 0.23176,0.3053042 0.375198,0.6801828 0.375198,1.0906984 0,0.4101498 -0.143099,0.7855378 -0.374479,1.0906956 l 0.01045,7.093e-4 c 0.602813,0 1.091455,-0.4886224 1.091455,-1.0914049 0,-0.6027852 -0.488642,-1.0914068 -1.091453,-1.0914068 z"
       id="path5-3" />
  </g>
</svg>
