<?xml version="1.0" encoding="UTF-8" standalone="no"?>
<svg
   height="56"
   width="56"
   version="1.1"
   id="svg25"
   sodipodi:docname="preferences-system-windows-effect-blur.svg"
   inkscape:version="1.3 (0e150ed6c4, 2023-07-21)"
   xmlns:inkscape="http://www.inkscape.org/namespaces/inkscape"
   xmlns:sodipodi="http://sodipodi.sourceforge.net/DTD/sodipodi-0.dtd"
   xmlns="http://www.w3.org/2000/svg"
   xmlns:svg="http://www.w3.org/2000/svg">
  <defs
     id="defs29">
    <linearGradient
       id="a-3"
       gradientTransform="matrix(1.7142858,0,0,1.7142858,-658.69391,-883.6537)"
       gradientUnits="userSpaceOnUse"
       x2="0"
       y1="545.79797"
       y2="517.79797">
      <stop
         offset="0"
         stop-color="#c6cdd1"
         id="stop2-6"
         style="stop-color:#000000;stop-opacity:1" />
      <stop
         offset="1"
         stop-color="#e0e5e7"
         id="stop4-7" />
    </linearGradient>
    <linearGradient
       id="b-5"
       gradientUnits="userSpaceOnUse"
       x1="12.793006"
       x2="20.000004"
       y1="7.706984"
       y2="14.999982"
       gradientTransform="matrix(2.3333299,0,0,2.3333299,2.3333463,2.3333958)">
      <stop
         offset="0"
         stop-color="#292c2f"
         id="stop7-3" />
      <stop
         offset="1"
         stop-opacity="0"
         id="stop9-5" />
    </linearGradient>
    <linearGradient
       id="c-6"
       gradientUnits="userSpaceOnUse"
       x1="7"
       x2="7"
       y1="16"
       y2="6"
       gradientTransform="matrix(2.3333299,0,0,2.3333299,2.3333463,2.3333958)">
      <stop
         offset="0"
         stop-color="#2a2c2f"
         id="stop12-2" />
      <stop
         offset="1"
         stop-color="#424649"
         id="stop14-9" />
    </linearGradient>
  </defs>
  <sodipodi:namedview
     id="namedview27"
     pagecolor="#ffffff"
     bordercolor="#000000"
     borderopacity="0.25"
     inkscape:showpageshadow="2"
     inkscape:pageopacity="0.0"
     inkscape:pagecheckerboard="0"
     inkscape:deskcolor="#d1d1d1"
     showgrid="false"
     inkscape:zoom="7.5853273"
     inkscape:cx="55.89739"
     inkscape:cy="39.879624"
     inkscape:window-width="1920"
     inkscape:window-height="994"
     inkscape:window-x="0"
     inkscape:window-y="0"
     inkscape:window-maximized="1"
     inkscape:current-layer="svg25" />
  <linearGradient
     id="a"
     gradientTransform="matrix(0.64285741,0,0,0.64285741,138.06113,184.92771)"
     gradientUnits="userSpaceOnUse"
     x2="0"
     y1="545.79797"
     y2="517.79797">
    <stop
       offset="0"
       stop-color="#c6cdd1"
       id="stop2" />
    <stop
       offset="1"
       stop-color="#e0e5e7"
       id="stop4" />
  </linearGradient>
  <linearGradient
     id="b"
     gradientUnits="userSpaceOnUse"
     x1="12.793006"
     x2="20.000004"
     y1="7.706984"
     y2="14.999982">
    <stop
       offset="0"
       stop-color="#292c2f"
       id="stop7" />
    <stop
       offset="1"
       stop-opacity="0"
       id="stop9" />
  </linearGradient>
  <linearGradient
     id="c"
     gradientUnits="userSpaceOnUse"
     x1="7"
     x2="7"
     y1="16"
     y2="6">
    <stop
       offset="0"
       stop-color="#2a2c2f"
       id="stop12" />
    <stop
       offset="1"
       stop-color="#424649"
       id="stop14" />
  </linearGradient>
  <rect
     height="48"
     rx="23.99999"
     stroke-width="1.71429"
     width="47.999981"
     x="4.0000124"
     y="4"
     id="rect17-2"
     style="fill:#00ccff;fill-opacity:1" />
  <path
     style="color:#363636;fill:currentColor;fill-opacity:1;stroke:none;stroke-width:2.14286"
     d="m 23.714285,10.857124 c -2.084811,7.296426 -7.188104,13.569198 -9.437798,18.590989 -0.787261,1.493145 -1.2765,3.168882 -1.2765,4.980465 0,5.935737 4.778561,10.714298 10.714298,10.714298 5.935613,0 10.71429,-4.778561 10.71429,-10.714298 0,-1.811583 -0.489223,-3.48732 -1.276488,-4.980465 C 30.902478,24.426322 25.799069,18.15355 23.714285,10.857124 Z m 12.85715,0 -1.230641,3.457034 -3.314571,-1.573666 1.573612,3.314727 -3.456975,1.230483 3.456975,1.230484 -1.573612,3.314727 3.314571,-1.573666 1.230641,3.457034 1.230677,-3.457034 3.314552,1.573666 -1.573625,-3.314727 3.456975,-1.230484 -3.456975,-1.230483 1.573625,-3.314727 -3.314552,1.573666 z M 28.60687,27.393139 c 2.223683,1.545414 3.678849,4.11064 3.678849,7.035439 0,4.748577 -3.822861,8.571438 -8.571433,8.571438 -2.924917,0 -5.490025,-1.454996 -7.03544,-3.678857 1.386516,0.963654 3.068846,1.535998 4.892581,1.535998 4.748572,0 8.571433,-3.822862 8.571433,-8.571438 0,-1.823777 -0.572394,-3.506153 -1.53599,-4.89258 z"
     class="ColorScheme-Text"
     id="path1" />
</svg>
