<?xml version="1.0" encoding="UTF-8" standalone="no"?>
<!-- Created with Inkscape (http://www.inkscape.org/) -->

<svg
   width="56"
   height="56"
   viewBox="0 0 56.000001 56.000001"
   id="svg7266"
   version="1.1"
   inkscape:version="1.3 (0e150ed6c4, 2023-07-21)"
   sodipodi:docname="preferences-system-windows-effect-flipswitch.svg"
   xmlns:inkscape="http://www.inkscape.org/namespaces/inkscape"
   xmlns:sodipodi="http://sodipodi.sourceforge.net/DTD/sodipodi-0.dtd"
   xmlns:xlink="http://www.w3.org/1999/xlink"
   xmlns="http://www.w3.org/2000/svg"
   xmlns:svg="http://www.w3.org/2000/svg"
   xmlns:rdf="http://www.w3.org/1999/02/22-rdf-syntax-ns#"
   xmlns:cc="http://creativecommons.org/ns#"
   xmlns:dc="http://purl.org/dc/elements/1.1/">
  <metadata
     id="metadata7">
    <rdf:RDF>
      <cc:Work
         rdf:about="">
        <dc:format>image/svg+xml</dc:format>
        <dc:type
           rdf:resource="http://purl.org/dc/dcmitype/StillImage" />
      </cc:Work>
    </rdf:RDF>
  </metadata>
  <defs
     id="defs7268">
    <linearGradient
       id="a-3"
       x1="428.81601"
       x2="388.86499"
       y1="547.63397"
       y2="499.67899"
       gradientTransform="matrix(1.3500005,0,0,1.3500008,-519.5697,313.2317)"
       gradientUnits="userSpaceOnUse">
      <stop
         stop-color="#bdc3c7"
         offset="0"
         id="stop2193" />
      <stop
         stop-color="#eff0f1"
         offset="1"
         id="stop2195" />
    </linearGradient>
    <linearGradient
       id="c"
       gradientUnits="userSpaceOnUse"
       x1="5.3750029"
       x2="14.75002"
       y1="7.0000119"
       y2="16.37501">
      <stop
         offset="0"
         id="stop8" />
      <stop
         offset="1"
         stop-opacity="0"
         id="stop10" />
    </linearGradient>
    <linearGradient
       id="linearGradient4299">
      <stop
         offset="0"
         style="stop-color:#1064d3;stop-opacity:1"
         id="stop14-3" />
      <stop
         offset="1"
         style="stop-color:#14c6fd;stop-opacity:1"
         id="stop16" />
    </linearGradient>
    <linearGradient
       id="linearGradient4227">
      <stop
         offset="0"
         style="stop-color:#2e3436;stop-opacity:1"
         id="stop8-6" />
      <stop
         offset="1"
         style="stop-color:#555753;stop-opacity:1"
         id="stop10-7" />
    </linearGradient>
    <linearGradient
       id="a-3-3"
       x1="428.81601"
       x2="388.86499"
       y1="547.63397"
       y2="499.67899"
       gradientTransform="matrix(0.84065851,0,0,0.83479102,-335.60157,-457.68474)"
       gradientUnits="userSpaceOnUse">
      <stop
         stop-color="#bdc3c7"
         offset="0"
         id="stop2193-6" />
      <stop
         stop-color="#eff0f1"
         offset="1"
         id="stop2195-7" />
    </linearGradient>
    <linearGradient
       inkscape:collect="always"
       xlink:href="#a-3-3"
       id="linearGradient1744"
       gradientUnits="userSpaceOnUse"
       gradientTransform="matrix(0.88888886,0,0,0.88888886,-162.91591,55.288208)"
       x1="5"
       y1="989.36218"
       x2="59"
       y2="1043.3622" />
  </defs>
  <sodipodi:namedview
     id="base"
     pagecolor="#ffffff"
     bordercolor="#666666"
     borderopacity="1.0"
     inkscape:pageopacity="0.0"
     inkscape:pageshadow="2"
     inkscape:zoom="5.6"
     inkscape:cx="64.107143"
     inkscape:cy="43.303571"
     inkscape:document-units="px"
     inkscape:current-layer="layer1"
     showgrid="false"
     units="px"
     inkscape:window-width="1920"
     inkscape:window-height="994"
     inkscape:window-x="0"
     inkscape:window-y="0"
     inkscape:window-maximized="1"
     inkscape:showpageshadow="2"
     inkscape:pagecheckerboard="0"
     inkscape:deskcolor="#d1d1d1"
     showguides="true">
    <inkscape:grid
       type="xygrid"
       id="grid7814"
       originx="162.47147"
       originy="54.085609"
       spacingy="1"
       spacingx="1"
       units="px"
       visible="false" />
  </sodipodi:namedview>
  <g
     inkscape:label="Ebene 1"
     inkscape:groupmode="layer"
     id="layer1"
     transform="translate(162.47147,-934.27655)">
    <rect
       x="-158.47147"
       y="938.27655"
       width="48"
       height="48"
       rx="24"
       ry="24"
       id="rect2220-5-2-2"
       style="fill:#a3b9cc;fill-opacity:1;stroke-width:1.19999" />
    <rect
       x="-158.47147"
       y="938.27655"
       width="48"
       height="46.800011"
       rx="24"
       ry="23.400005"
       id="rect2222-6-9-8"
       style="fill:url(#linearGradient1744);fill-opacity:1;stroke-width:0.888889" />
    <rect
       width="3.4285719"
       x="-123.02574"
       y="944.70325"
       rx="1.714286"
       height="3.4285722"
       id="rect25-8-7-2-1-9"
       style="fill:#ffffff;stroke-width:0.114285"
       inkscape:transform-center-x="8.349702"
       inkscape:transform-center-y="-6.8406967" />
    <rect
       width="29.6"
       x="-149.67148"
       y="943.44342"
       rx="0"
       height="0.82913166"
       id="rect27-9-9-2-7"
       style="fill:#2a7fff;fill-opacity:1;stroke-width:0.0762531" />
    <g
       id="surface1-1-7-3"
       transform="matrix(0.55179383,0,0,0.55179383,-151.88271,945.85922)">
      <path
         style="fill:#808080;fill-opacity:1;fill-rule:nonzero;stroke:none"
         d="m 2.644531,17.699219 v 23.8125 c 0,1.464843 1.179688,2.644531 2.648438,2.644531 h 41.007812 c 1.46875,0 2.648438,-1.179688 2.648438,-2.644531 v -23.8125 z m 0,0"
         id="path225-2-0-6" />
      <path
         style="fill:#ffffff;fill-opacity:1;fill-rule:nonzero;stroke:none"
         d="m 3.96875,17.699219 v 23.8125 c 0,0.730469 0.589844,1.320312 1.324219,1.320312 h 41.007812 c 0.734375,0 1.324219,-0.589843 1.324219,-1.320312 v -23.8125 z m 0,0"
         id="path227-7-9-1" />
      <path
         style="fill:#7179a7;fill-opacity:1;fill-rule:nonzero;stroke:none"
         d="m 5.292969,7.113281 c -1.46875,0 -2.648438,1.179688 -2.648438,2.648438 v 7.9375 h 46.304688 v -7.9375 c 0,-1.46875 -1.179688,-2.648438 -2.648438,-2.648438 z m 0,0"
         id="path229-0-3-2" />
      <path
         style="fill:#ee514f;fill-opacity:1;fill-rule:nonzero;stroke:none"
         d="m 45.445312,9.601562 c 0.261719,0.257813 0.261719,0.675782 0,0.933594 l -4.675781,4.675782 c -0.257812,0.261718 -0.675781,0.261718 -0.933593,0 -0.261719,-0.257813 -0.261719,-0.675782 0,-0.933594 l 4.675781,-4.675782 c 0.257812,-0.261718 0.675781,-0.261718 0.933593,0 z m 0,0"
         id="path231-9-6-9" />
      <path
         style="fill:#ee514f;fill-opacity:1;fill-rule:nonzero;stroke:none"
         d="m 45.445312,15.210938 c -0.257812,0.261718 -0.675781,0.261718 -0.933593,0 l -4.675781,-4.675782 c -0.261719,-0.257812 -0.261719,-0.675781 0,-0.933594 0.257812,-0.261718 0.675781,-0.261718 0.933593,0 l 4.675781,4.675782 c 0.261719,0.257812 0.261719,0.675781 0,0.933594 z m 0,0"
         id="path233-3-0-3" />
      <path
         style="fill:#28b5f5;fill-opacity:1;fill-rule:nonzero;stroke:none"
         d="m 2.644531,17.699219 h 46.304688 v 0.660156 H 2.644531 Z m 0,0"
         id="path235-6-6-1" />
      <path
         style="fill:#808080;fill-opacity:1;fill-rule:nonzero;stroke:none"
         d="M 7.9375,24.3125 V 48.125 c 0,1.464844 1.179688,2.644531 2.644531,2.644531 H 51.59375 c 1.464844,0 2.644531,-1.179687 2.644531,-2.644531 V 24.3125 Z m 0,0"
         id="path237-0-2-9" />
      <path
         style="fill:#ffffff;fill-opacity:1;fill-rule:nonzero;stroke:none"
         d="M 9.261719,24.3125 V 48.125 c 0,0.734375 0.589843,1.324219 1.320312,1.324219 H 51.59375 c 0.734375,0 1.324219,-0.589844 1.324219,-1.324219 V 24.3125 Z m 0,0"
         id="path239-6-6-4" />
      <path
         style="fill:#4e557e;fill-opacity:1;fill-rule:nonzero;stroke:none"
         d="m 10.582031,13.730469 c -1.464843,0 -2.644531,1.179687 -2.644531,2.644531 v 7.9375 H 54.238281 V 16.375 c 0,-1.464844 -1.179687,-2.644531 -2.644531,-2.644531 z m 0,0"
         id="path241-2-1-7" />
      <path
         style="fill:#ee514f;fill-opacity:1;fill-rule:nonzero;stroke:none"
         d="m 50.738281,16.214844 c 0.257813,0.257812 0.257813,0.675781 0,0.933594 L 46.0625,21.828125 c -0.257812,0.257813 -0.679688,0.257813 -0.9375,0 -0.257812,-0.257813 -0.257812,-0.679687 0,-0.9375 l 4.679688,-4.675781 c 0.257812,-0.257813 0.675781,-0.257813 0.933593,0 z m 0,0"
         id="path243-6-8-8" />
      <path
         style="fill:#ee514f;fill-opacity:1;fill-rule:nonzero;stroke:none"
         d="m 50.738281,21.828125 c -0.257812,0.257813 -0.675781,0.257813 -0.933593,0 L 45.125,17.148438 c -0.257812,-0.257813 -0.257812,-0.675782 0,-0.933594 0.257812,-0.257813 0.679688,-0.257813 0.9375,0 l 4.675781,4.675781 c 0.257813,0.257813 0.257813,0.679687 0,0.9375 z m 0,0"
         id="path245-1-7-4" />
      <path
         style="fill:#28b5f5;fill-opacity:1;fill-rule:nonzero;stroke:none"
         d="m 7.9375,24.3125 h 46.300781 v 0.660156 H 7.9375 Z m 0,0"
         id="path247-8-9-5" />
      <path
         style="fill:#808080;fill-opacity:1;fill-rule:nonzero;stroke:none"
         d="m 14.550781,30.925781 v 23.8125 c 0,1.46875 1.179688,2.648438 2.648438,2.648438 h 41.007812 c 1.46875,0 2.648438,-1.179688 2.648438,-2.648438 v -23.8125 z m 0,0"
         id="path249-7-2-0" />
      <path
         style="fill:#ffffff;fill-opacity:1;fill-rule:nonzero;stroke:none"
         d="m 15.875,30.925781 v 23.8125 c 0,0.734375 0.589844,1.324219 1.324219,1.324219 h 41.007812 c 0.734375,0 1.324219,-0.589844 1.324219,-1.324219 v -23.8125 z m 0,0"
         id="path251-9-0-3" />
      <path
         style="fill:#31354f;fill-opacity:1;fill-rule:nonzero;stroke:none"
         d="m 17.199219,20.34375 c -1.46875,0 -2.648438,1.179688 -2.648438,2.644531 v 7.9375 h 46.304688 v -7.9375 c 0,-1.464843 -1.179688,-2.644531 -2.648438,-2.644531 z m 0,0"
         id="path253-2-2-6" />
      <path
         style="fill:#ee514f;fill-opacity:1;fill-rule:nonzero;stroke:none"
         d="m 57.351562,22.828125 c 0.261719,0.257813 0.261719,0.679687 0,0.9375 l -4.675781,4.675781 c -0.257812,0.257813 -0.675781,0.257813 -0.933593,0 -0.261719,-0.257812 -0.261719,-0.675781 0,-0.933594 l 4.675781,-4.679687 c 0.257812,-0.257813 0.675781,-0.257813 0.933593,0 z m 0,0"
         id="path255-0-3-1" />
      <path
         style="fill:#ee514f;fill-opacity:1;fill-rule:nonzero;stroke:none"
         d="m 57.351562,28.441406 c -0.257812,0.257813 -0.675781,0.257813 -0.933593,0 l -4.675781,-4.675781 c -0.261719,-0.257813 -0.261719,-0.679687 0,-0.9375 0.257812,-0.257813 0.675781,-0.257813 0.933593,0 l 4.675781,4.679687 c 0.261719,0.257813 0.261719,0.675782 0,0.933594 z m 0,0"
         id="path257-2-7-0" />
      <path
         style="fill:#28b5f5;fill-opacity:1;fill-rule:nonzero;stroke:none"
         d="m 14.550781,30.925781 h 46.304688 v 0.664063 H 14.550781 Z m 0,0"
         id="path259-3-5-6" />
    </g>
  </g>
</svg>
