<?xml version="1.0" encoding="UTF-8" standalone="no"?>
<svg
   width="32"
   height="32"
   version="1.1"
   id="svg12"
   sodipodi:docname="akonadi-symbolic.svg"
   inkscape:version="1.3.2 (091e20ef0f, 2023-11-25)"
   xmlns:inkscape="http://www.inkscape.org/namespaces/inkscape"
   xmlns:sodipodi="http://sodipodi.sourceforge.net/DTD/sodipodi-0.dtd"
   xmlns="http://www.w3.org/2000/svg"
   xmlns:svg="http://www.w3.org/2000/svg"
   xmlns:rdf="http://www.w3.org/1999/02/22-rdf-syntax-ns#"
   xmlns:cc="http://creativecommons.org/ns#"
   xmlns:dc="http://purl.org/dc/elements/1.1/">
  <metadata
     id="metadata18">
    <rdf:RDF>
      <cc:Work
         rdf:about="">
        <dc:format>image/svg+xml</dc:format>
        <dc:type
           rdf:resource="http://purl.org/dc/dcmitype/StillImage" />
      </cc:Work>
    </rdf:RDF>
  </metadata>
  <defs
     id="defs16" />
  <sodipodi:namedview
     pagecolor="#201933"
     bordercolor="#000000"
     borderopacity="1"
     objecttolerance="10"
     gridtolerance="10"
     guidetolerance="10"
     inkscape:pageopacity="0"
     inkscape:pageshadow="2"
     inkscape:window-width="1920"
     inkscape:window-height="994"
     id="namedview14"
     showgrid="true"
     inkscape:zoom="11.313708"
     inkscape:cx="16.175068"
     inkscape:cy="23.334525"
     inkscape:window-x="0"
     inkscape:window-y="0"
     inkscape:window-maximized="1"
     inkscape:current-layer="svg12"
     inkscape:document-rotation="0"
     showguides="false"
     inkscape:pagecheckerboard="true"
     inkscape:showpageshadow="true"
     inkscape:deskcolor="#201933">
    <inkscape:grid
       type="xygrid"
       id="grid862"
       originx="-11"
       originy="-44"
       spacingy="1"
       spacingx="1"
       units="px"
       visible="true" />
  </sodipodi:namedview>
  <g
     id="akonadi-3">
    <path
       style="opacity:0.00100002"
       d="M 0,3.6363637e-7 H 32.000001 V 32.000001 H 0 Z"
       id="path7-6" />
    <path
       d="m 15.001682,18.283225 c 5.821226,0 10.537961,-2.098776 10.537961,-4.689796 0,-0.952654 0,-1.944491 0,-3.585307 0,2.591021 -4.716735,4.689796 -10.537961,4.689796 -5.8212251,0 -10.5379606,-2.098775 -10.5379606,-4.689796 0,1.082449 0,1.804898 0,3.585307 0,2.59102 4.7167355,4.689796 10.5379606,4.689796 z"
       id="path4-3"
       style="fill:#d3dae3;fill-opacity:1;stroke-width:0.0244898" />
    <path
       d="m 15.001682,13.409755 c 5.821226,0 10.537961,-2.098776 10.537961,-4.6897967 0,-2.5910208 -4.716735,-4.6897967 -10.537961,-4.6897967 -5.8212251,0 -10.5379606,2.0987759 -10.5379606,4.6897967 0,2.5910207 4.7167355,4.6897967 10.5379606,4.6897967 z"
       id="path6"
       style="fill:#d3dae3;fill-opacity:1;stroke-width:0.0244898" />
    <path
       d="m 15.001682,23.156695 c 1.621225,0 3.154287,-0.161632 4.525715,-0.453061 0.406531,-2.250613 2.375511,-3.960001 4.743675,-3.960001 0.423673,0 0.832653,0.05388 1.22449,0.156735 0.02939,-0.142041 0.04408,-0.286531 0.04408,-0.433469 0,-0.952654 0,-1.94449 0,-3.585307 0,2.591021 -4.716735,4.689797 -10.537961,4.689797 -5.8212251,0 -10.5379606,-2.098776 -10.5379606,-4.689797 0,1.082449 0,1.804898 0,3.585307 0,2.591021 4.7167355,4.689796 10.5379616,4.689796 z"
       id="path8"
       style="fill:#d3dae3;fill-opacity:1;stroke-width:0.0244898" />
    <path
       d="m 19.471071,24.001593 c -1.356735,0.284082 -2.870205,0.440817 -4.469389,0.440817 -5.8212251,0 -10.5379606,-2.098776 -10.5379606,-4.689797 0,1.082449 0,1.804898 0,3.585307 0,2.59347 4.7167355,4.692246 10.5379606,4.692246 2.262858,0 4.359185,-0.318368 6.07592,-0.857143 -0.896327,-0.791021 -1.493878,-1.910205 -1.606531,-3.17143 z"
       id="path10"
       style="fill:#d3dae3;fill-opacity:1;stroke-width:0.0244898" />
    <path
       d="m 24.305708,22.035865 c -0.869388,0 -1.574695,0.705307 -1.574695,1.572246 0,0.866939 0.705307,1.572245 1.574695,1.572245 0.869388,0 1.574694,-0.705306 1.574694,-1.572245 0,-0.866939 -0.707755,-1.572246 -1.574694,-1.572246 z m 0,2.627756 c -0.582858,0 -1.055511,-0.472653 -1.055511,-1.053061 0,-0.580409 0.472653,-1.053062 1.055511,-1.053062 0.582857,0 1.05551,0.472653 1.05551,1.053062 0,0.580408 -0.475102,1.053061 -1.05551,1.053061 z m 3.262041,-2.167347 H 27.25428 c -0.04408,0 -0.08327,-0.02694 -0.100409,-0.06612 -0.01714,-0.03918 -0.0073,-0.08571 0.02449,-0.117551 l 0.222857,-0.222857 c 0.200817,-0.200816 0.200817,-0.531429 0,-0.732245 l -0.84,-0.84 c -0.100408,-0.100408 -0.235102,-0.151837 -0.367347,-0.151837 -0.132245,0 -0.266939,0.05143 -0.367347,0.151837 l -0.222857,0.222857 c -0.01959,0.01959 -0.04898,0.03184 -0.07592,0.03184 -0.01469,0 -0.02694,-0.0024 -0.04163,-0.0073 -0.03918,-0.01714 -0.06612,-0.05633 -0.06612,-0.100408 v -0.31347 c 0,-0.284081 -0.232654,-0.55102 -0.519184,-0.55102 h -1.190205 c -0.28653,0 -0.519183,0.266939 -0.519183,0.55102 v 0.31347 c 0,0.04408 -0.02694,0.08327 -0.06612,0.100408 -0.01225,0.0049 -0.02694,0.0073 -0.04163,0.0073 -0.02694,0 -0.05633,-0.0098 -0.07592,-0.03184 l -0.222857,-0.222857 c -0.100408,-0.100408 -0.235102,-0.151837 -0.367347,-0.151837 -0.132245,0 -0.266939,0.05143 -0.367347,0.151837 l -0.842449,0.84 c -0.203265,0.200816 -0.203265,0.531429 0,0.732245 l 0.222857,0.222857 c 0.03184,0.03184 0.03918,0.07837 0.02449,0.117551 -0.01714,0.03918 -0.05633,0.06612 -0.100408,0.06612 h -0.31347 c -0.28653,0 -0.541224,0.232653 -0.541224,0.519183 v 1.187756 c 0,0.284081 0.254694,0.519184 0.541224,0.519184 h 0.31347 c 0.04408,0 0.08327,0.02694 0.100408,0.06612 0.01714,0.03918 0.0073,0.08571 -0.02449,0.117551 l -0.222857,0.222857 c -0.203265,0.200817 -0.203265,0.531429 0,0.732245 l 0.84,0.84 c 0.100408,0.100409 0.235102,0.151837 0.367347,0.151837 0.132245,0 0.266939,-0.05143 0.367347,-0.151837 l 0.222857,-0.222857 c 0.01959,-0.01959 0.04898,-0.03184 0.07592,-0.03184 0.01469,0 0.02694,0.0024 0.04163,0.0073 0.03918,0.01714 0.06612,0.05633 0.06612,0.100409 v 0.313469 c 0,0.284082 0.232653,0.541225 0.519184,0.541225 h 1.190204 c 0.28653,0 0.519184,-0.254694 0.519184,-0.541225 v -0.313417 c 0,-0.04408 0.02694,-0.08327 0.06612,-0.100409 0.01224,-0.0049 0.02694,-0.0073 0.04163,-0.0073 0.02694,0 0.05633,0.0098 0.07592,0.03184 l 0.222857,0.222857 c 0.100408,0.100409 0.235102,0.151837 0.367347,0.151837 0.132245,0 0.266939,-0.05143 0.367347,-0.151837 l 0.84,-0.84 c 0.200817,-0.200816 0.200817,-0.531428 0,-0.732245 L 27.175912,24.90612 c -0.03184,-0.03184 -0.03918,-0.07592 -0.02204,-0.117551 0.01714,-0.03918 0.05633,-0.06612 0.100409,-0.06612 h 0.313469 c 0.286531,0 0.541225,-0.232654 0.541225,-0.519184 v -1.187756 c 0,-0.284081 -0.254694,-0.519183 -0.541225,-0.519183 z m 0.02204,1.706939 h -0.33551 c -0.254694,0 -0.48245,0.151837 -0.580409,0.386939 -0.09796,0.235102 -0.04408,0.50204 0.137143,0.683265 l 0.222857,0.222857 -0.84,0.84 -0.222857,-0.222857 c -0.11755,-0.117551 -0.276734,-0.183673 -0.443264,-0.183673 -0.08327,0 -0.164082,0.01714 -0.24,0.04653 -0.235102,0.09796 -0.386939,0.323266 -0.386939,0.57796 v 0.33551 h -1.190205 v -0.33551 c 0,-0.254694 -0.151836,-0.480001 -0.386938,-0.57796 -0.07592,-0.03184 -0.156735,-0.04653 -0.24,-0.04653 -0.166531,0 -0.325715,0.06612 -0.443266,0.183673 l -0.222857,0.222857 -0.84,-0.84 0.222857,-0.222857 c 0.178776,-0.178776 0.232653,-0.448163 0.134694,-0.683265 -0.09796,-0.235102 -0.325714,-0.386939 -0.580408,-0.386939 h -0.335511 v -1.187756 h 0.335511 c 0.254694,0 0.482449,-0.151836 0.580408,-0.386938 0.09796,-0.235102 0.04408,-0.502041 -0.134694,-0.683266 l -0.222857,-0.222857 0.84,-0.84 0.222857,0.222857 c 0.117551,0.117551 0.276735,0.183674 0.443266,0.183674 0.08327,0 0.164081,-0.01714 0.24,-0.04898 0.235102,-0.09796 0.386938,-0.323265 0.386938,-0.577959 v -0.345307 h 1.187756 v 0.345307 c 0,0.254694 0.151837,0.482449 0.386939,0.577959 0.07592,0.03184 0.156734,0.04898 0.24,0.04898 0.16653,0 0.325714,-0.06612 0.443265,-0.183674 l 0.222857,-0.222857 0.84,0.84 -0.222857,0.222857 c -0.181224,0.178776 -0.232653,0.448164 -0.137143,0.683266 0.09796,0.235102 0.325715,0.386938 0.580409,0.386938 h 0.33551 v 1.187756 z"
       id="path12"
       style="fill:#39bcf9;fill-opacity:1;stroke-width:0.0244898" />
  </g>
</svg>
