<?xml version="1.0" encoding="UTF-8" standalone="no"?>
<svg
   width="32"
   height="32"
   version="1.1"
   id="svg12"
   sodipodi:docname="akregator-symbolic.svg"
   inkscape:version="1.3.2 (091e20ef0f, 2023-11-25)"
   xmlns:inkscape="http://www.inkscape.org/namespaces/inkscape"
   xmlns:sodipodi="http://sodipodi.sourceforge.net/DTD/sodipodi-0.dtd"
   xmlns:xlink="http://www.w3.org/1999/xlink"
   xmlns="http://www.w3.org/2000/svg"
   xmlns:svg="http://www.w3.org/2000/svg"
   xmlns:rdf="http://www.w3.org/1999/02/22-rdf-syntax-ns#"
   xmlns:cc="http://creativecommons.org/ns#"
   xmlns:dc="http://purl.org/dc/elements/1.1/">
  <metadata
     id="metadata18">
    <rdf:RDF>
      <cc:Work
         rdf:about="">
        <dc:format>image/svg+xml</dc:format>
        <dc:type
           rdf:resource="http://purl.org/dc/dcmitype/StillImage" />
      </cc:Work>
    </rdf:RDF>
  </metadata>
  <defs
     id="defs16">
    <linearGradient
       inkscape:collect="always"
       xlink:href="#linearGradient855"
       id="linearGradient873"
       x1="3.0619521"
       y1="16.631489"
       x2="8.1415768"
       y2="16.631489"
       gradientUnits="userSpaceOnUse"
       gradientTransform="matrix(1.3750003,0,0,1.3750003,-31.210187,-9.3848437)" />
    <linearGradient
       inkscape:collect="always"
       id="linearGradient855">
      <stop
         style="stop-color:#00cccc;stop-opacity:1"
         offset="0"
         id="stop851" />
      <stop
         style="stop-color:#008080;stop-opacity:1"
         offset="1"
         id="stop853" />
    </linearGradient>
  </defs>
  <sodipodi:namedview
     pagecolor="#201933"
     bordercolor="#000000"
     borderopacity="1"
     objecttolerance="10"
     gridtolerance="10"
     guidetolerance="10"
     inkscape:pageopacity="0"
     inkscape:pageshadow="2"
     inkscape:window-width="1920"
     inkscape:window-height="994"
     id="namedview14"
     showgrid="true"
     inkscape:zoom="9.8125003"
     inkscape:cx="36.280254"
     inkscape:cy="29.248407"
     inkscape:window-x="0"
     inkscape:window-y="0"
     inkscape:window-maximized="1"
     inkscape:current-layer="svg12"
     inkscape:document-rotation="0"
     inkscape:lockguides="false"
     inkscape:showpageshadow="2"
     inkscape:pagecheckerboard="true"
     inkscape:deskcolor="#201933">
    <inkscape:grid
       type="xygrid"
       id="grid894"
       originx="3.571563"
       originy="16.962895"
       spacingy="1"
       spacingx="1"
       units="px"
       visible="true" />
  </sodipodi:namedview>
  <g
     id="akregator">
    <rect
       style="opacity:0.00100002"
       width="32"
       height="32"
       x="0"
       y="0"
       id="rect7" />
    <g
       id="g922"
       transform="matrix(0.23157895,0,0,0.23157895,4.329458,4.4660529)">
      <path
         d="m 14,2.5 c -3.5,0 -6.3,2.8 -6.3,6.3 0,3.5 2.8,6.3 6.3,6.3 39.1,0 70.9,31.7 70.9,70.8 0,3.5 2.8,6.3 6.3,6.3 3.5,0 6.3,-2.8 6.3,-6.3 C 97.5,39.9 60.1,2.5 14,2.5 Z"
         id="path2"
         style="fill:#d3dae3;fill-opacity:1" />
      <path
         d="m 14,38.4 c -3.5,0 -6.3,2.8 -6.3,6.3 0,3.5 2.8,6.3 6.3,6.3 19.3,0 35,15.6 35,34.9 0,3.5 2.8,6.3 6.3,6.3 3.5,0 6.3,-2.8 6.3,-6.3 C 61.6,59.7 40.3,38.4 14,38.4 Z"
         id="path4-3-3"
         style="fill:#d3dae3;fill-opacity:1" />
      <path
         d="m 14,74.3 c -6.4,0 -11.5,5.2 -11.5,11.5 0,6.4 5.2,11.7 11.5,11.7 6.4,0 11.7,-5.2 11.7,-11.7 0,-6.3 -5.2,-11.5 -11.7,-11.5 z"
         id="path6"
         style="fill:#058bce;fill-opacity:1" />
    </g>
  </g>
</svg>
