<?xml version="1.0" encoding="UTF-8" standalone="no"?>
<svg
   width="32"
   height="32"
   version="1"
   id="svg14"
   sodipodi:docname="antimicro-symbolic.svg"
   inkscape:version="1.3.2 (091e20ef0f, 2023-11-25)"
   xmlns:inkscape="http://www.inkscape.org/namespaces/inkscape"
   xmlns:sodipodi="http://sodipodi.sourceforge.net/DTD/sodipodi-0.dtd"
   xmlns="http://www.w3.org/2000/svg"
   xmlns:svg="http://www.w3.org/2000/svg">
  <style
     id="current-color-scheme"
     type="text/css">.ColorScheme-Text { color:#eceff4; }
</style>
  <g
     id="22-22-antimicro"
     style="fill:#d3dae3;fill-opacity:1"
     transform="matrix(1.4545458,0,0,1.4545458,-7.6e-6,0)">
    <rect
       style="opacity:0.00100002;fill:#d3dae3;fill-opacity:1"
       width="22"
       height="22"
       x="0"
       y="0"
       id="rect9" />
    <path
       d="m 21.831365,15.248484 c -0.130586,0.472347 -0.47362,0.745889 -0.929815,0.610685 -0.456372,-0.13504 -0.454447,-0.627536 -0.324035,-1.100063 0.146703,-0.530739 0.134653,-1.089813 -0.03386,-1.616556 L 18.6088,7.0995191 C 18.24845,5.9735602 16.97102,4.8042607 15.825318,4.8042607 H 5.9103745 c -1.1458792,0 -2.1573647,1.1692995 -2.5178952,2.2952584 L 1.3911764,13.142551 c -0.2235755,0.698615 -0.038048,1.586939 0.2815381,2.251318 0.3190621,0.663858 1.1960334,1.431107 1.8665757,1.66137 0.6685316,0.229393 1.6513117,0.03312 2.2854272,-0.302178 0.6352906,-0.335926 1.1089063,-1.181151 1.3333184,-1.881857 l 0.1268229,-0.397461 c 0.3585219,-1.119697 1.0996092,-1.597516 2.2389459,-1.597516 h 2.9533834 c 1.13951,0 1.880009,0.477819 2.238515,1.597516 l 0.127487,0.397461 c 0.361032,1.125558 1.661282,2.324787 2.783157,2.324622 0.215347,0 0.431186,-0.02797 0.641339,-0.0826 0.460405,-0.11924 0.927007,-0.10452 1.042296,0.371942 0.115306,0.476708 -0.164475,0.822541 -0.624865,0.941941 -0.346604,0.0898 -0.702772,0.135389 -1.058604,0.135389 -0.911069,0 -1.788898,-0.296133 -2.538653,-0.856594 -0.758493,-0.567057 -1.315393,-1.353619 -1.610314,-2.274847 L 13.35033,15.033617 C 13.225281,14.643138 12.874498,14.380894 12.477367,14.380894 H 9.5239768 c -0.3972861,0 -0.7480829,0.262244 -0.8731298,0.652574 L 8.5236213,15.43108 C 8.1562077,16.578579 7.3811021,17.51337 6.3407928,18.063407 5.2939537,18.616917 4.1071161,18.712149 2.998501,18.33155 1.8902236,17.951137 0.99074525,17.140596 0.46605877,16.04923 -0.05710617,14.961165 -0.14287702,13.730063 0.22469812,12.58256 L 2.1594463,6.5395073 C 2.7534529,4.6840602 4.4209949,3.4375018 6.3089114,3.4375018 h 9.3833596 c 1.887926,0 3.555624,1.2465584 4.149623,3.102072 l 1.934769,6.0430432 c 0.277765,0.867883 0.296741,1.789637 0.05461,2.665867 z M 15.082153,6.6405452 c -0.474497,0 -0.859195,0.3983228 -0.859195,0.8897811 0,0.4912835 0.384698,0.8896037 0.859195,0.8896037 0.474675,0 0.859365,-0.3983202 0.859365,-0.8896037 0,-0.4914583 -0.38469,-0.8897811 -0.859365,-0.8897811 z m 0,5.3383398 c 0.474675,0 0.859365,-0.398305 0.859365,-0.889782 0,-0.49129 -0.38469,-0.889609 -0.859364,-0.889609 -0.474497,0 -0.859194,0.398319 -0.859194,0.889609 0,0.49129 0.384697,0.889782 0.859193,0.889782 z M 13.363603,8.41993 c -0.474505,0 -0.859207,0.398327 -0.859207,0.8897841 0,0.4914732 0.384702,0.8897799 0.859207,0.8897799 0.474659,0 0.859355,-0.3983067 0.859355,-0.8897799 0,-0.4914571 -0.384696,-0.8897841 -0.859355,-0.8897841 z m 3.437281,1.779564 c 0.474504,0 0.859201,-0.3983067 0.859201,-0.8897799 0,-0.4914571 -0.384697,-0.8897841 -0.859201,-0.8897841 -0.474657,0 -0.859367,0.398327 -0.859367,0.8897841 0,0.4912774 0.38471,0.8897799 0.859367,0.8897799 z m -9.8820317,1.779391 c 0.4746673,0 0.8593742,-0.398305 0.8593742,-0.889782 v -0.889609 h 0.8591946 c 0.4746657,0 0.8593619,-0.3983067 0.8593619,-0.8897799 C 9.496783,8.818257 9.1120868,8.41993 8.6374211,8.41993 H 7.7782265 V 7.5303263 c 0,-0.4914583 -0.384706,-0.8897811 -0.8593742,-0.8897811 -0.4744882,0 -0.8591932,0.3983228 -0.8591932,0.8897811 V 8.41993 H 5.2002944 c -0.4744993,0 -0.8593631,0.398327 -0.8593631,0.8897841 0,0.4914732 0.3848638,0.8897799 0.8593631,0.8897799 h 0.8593647 v 0.889609 c 0,0.49129 0.384705,0.889782 0.8591932,0.889782 z"
       id="path2-36-7"
       style="fill:#d3dae3;fill-opacity:1;stroke-width:0.0437232"
       sodipodi:nodetypes="cccccsscccccccsscsccccscccssccsccccssccccsssssssssssssssssssssscssscssscssscss"
       class="ColorScheme-Text" />
    <ellipse
       cx="20.852835"
       cy="17.189526"
       id="circle4-5-5"
       style="fill:#d3dae3;fill-opacity:1;stroke-width:0.0453126"
       rx="0.67075753"
       ry="0.68875307"
       class="ColorScheme-Text" />
  </g>
  <sodipodi:namedview
     id="namedview16"
     pagecolor="#201933"
     bordercolor="#000000"
     borderopacity="1"
     inkscape:showpageshadow="true"
     inkscape:pageopacity="0"
     inkscape:pagecheckerboard="true"
     inkscape:deskcolor="#201933"
     showgrid="false"
     inkscape:zoom="10.429825"
     inkscape:cx="9.7796464"
     inkscape:cy="8.5332208"
     inkscape:window-width="1920"
     inkscape:window-height="994"
     inkscape:window-x="0"
     inkscape:window-y="0"
     inkscape:window-maximized="1"
     inkscape:current-layer="svg14">
    <inkscape:grid
       type="xygrid"
       id="grid1266"
       originx="-37.999996"
       originy="-10"
       spacingy="1"
       spacingx="1"
       units="px"
       visible="false" />
  </sodipodi:namedview>
  <defs
     id="defs5">
    <style
       type="text/css"
       id="style646" />
  </defs>
</svg>
