<?xml version="1.0" encoding="UTF-8" standalone="no"?>
<svg
   width="32"
   height="32"
   version="1"
   id="svg1154"
   sodipodi:docname="cadence-symbolic.svg"
   inkscape:version="1.3.2 (091e20ef0f, 2023-11-25)"
   xmlns:inkscape="http://www.inkscape.org/namespaces/inkscape"
   xmlns:sodipodi="http://sodipodi.sourceforge.net/DTD/sodipodi-0.dtd"
   xmlns="http://www.w3.org/2000/svg"
   xmlns:svg="http://www.w3.org/2000/svg">
  <style
     id="current-color-scheme"
     type="text/css">.ColorScheme-Text { color:#d1d5e9; }
</style>
  <rect
     style="opacity:0.00100002;fill:#d3dae3;fill-opacity:1;stroke-width:1.45455"
     width="32"
     height="32"
     x="0"
     y="0"
     id="rect1144" />
  <path
     style="fill:#d3dae3;fill-opacity:1;stroke-width:1.50001"
     class="ColorScheme-Text"
     d="M 15.999999,4 C 9.3639992,4 4,9.3639992 4,15.999998 c 0,6.636003 5.3639992,12.000001 11.999999,12.000001 6.636003,0 11.999996,-5.363997 11.999996,-12 C 27.999995,9.3639992 22.636001,4 15.999999,4 Z m 0,1.5000004 C 21.80498,5.5000004 26.5,10.194997 26.5,15.999998 26.5,21.80498 21.80498,26.5 15.999999,26.5 10.194979,26.5 5.5000004,21.80498 5.5000004,15.999998 c 0,-5.805002 4.6949786,-10.4999976 10.4999986,-10.4999976 z m 1.124981,8.5785016 v 0 0 0 0 0 c 0,0 -0.05089,0.01205 0,0 z m -1.171493,6.749997 z"
     id="path58-3"
     sodipodi:nodetypes="ssssssssssccccccccccccccccc" />
  <path
     style="fill:#d3dae3;fill-opacity:1;stroke-width:0.941661"
     d="m 15.789605,8.5198857 c -0.852166,0.014163 -2.151662,0.2123658 -2.488401,0.5793409 -0.359123,0.3913635 -0.43691,0.9415774 -0.336578,1.5504264 0.191287,1.16075 1.794208,2.583849 2.744048,3.864113 -0.0065,0.0065 -0.01403,0.017 -0.02011,0.02575 -0.478438,0.595385 -1.47627,1.141551 -1.942179,1.603765 0.07514,-0.338273 0.12919,-1.082377 0.141622,-1.316847 0.01037,-0.200844 0.0052,-0.356702 -0.0571,-0.483711 -0.03115,-0.06337 -0.08709,-0.124446 -0.163728,-0.149037 -0.07671,-0.02457 -0.155718,-0.008 -0.224371,0.02399 -0.185314,0.475478 -0.491792,1.115093 -0.74119,1.712278 -0.229339,0.380878 -0.39147,1.062881 -0.496579,1.305818 -0.05413,0.125108 -0.09441,0.234196 -0.11955,0.329212 -0.02364,0.08948 -0.03526,0.168186 -0.03129,0.240934 0.131001,0.176647 0.342826,0.150771 0.514971,0.16181 0.07473,-7.89e-4 0.152795,-0.01403 0.239088,-0.0662 0.202504,-0.12252 0.450495,-0.316092 0.71544,-0.542572 -0.188919,0.625462 -0.220919,0.82488 -0.522331,1.524692 -0.0044,0.0095 -0.01037,0.0196 -0.01475,0.02937 -1.590371,-0.216493 -3.248878,-0.07932 -4.3717292,0.307148 -0.5889727,0.202688 -1.0425165,0.654393 -1.2193673,1.153162 -0.1767902,0.498755 -0.069182,1.13244 0.3751948,1.918259 0.4443188,0.785813 0.9344601,1.146017 1.4566172,1.257992 0.5221675,0.11196 1.0436755,-0.03451 1.5265185,-0.42484 0.920543,-0.744238 1.750564,-2.470916 2.396448,-3.924805 0.01037,0.0014 0.02246,0.0014 0.0331,0.0032 0.760609,0.112201 1.49023,1.135884 2.127924,1.303966 -0.333915,0.104906 -0.724561,0.213396 -0.936143,0.320018 -0.181123,0.09134 -0.315375,0.173692 -0.395428,0.290595 -0.03996,0.05848 -0.06645,0.13721 -0.04965,0.215176 0.01623,0.07793 0.07181,0.137556 0.13421,0.180271 0.124931,0.08551 0.302191,0.132493 0.566475,0.170982 0.26428,0.03859 0.706888,0.06194 1.154998,0.06792 0.0014,1.6e-5 0.0014,-2e-5 0.0031,0 0.0014,-2e-5 0.0014,1.6e-5 0.0031,0 0.448102,-0.0052 0.890717,-0.02953 1.154995,-0.06792 0.264281,-0.0386 0.441556,-0.08572 0.566467,-0.170982 0.06248,-0.04274 0.117427,-0.102325 0.13421,-0.180271 0.01622,-0.07796 -0.0093,-0.156738 -0.04964,-0.215176 -0.07995,-0.116929 -0.214261,-0.199305 -0.395425,-0.290595 C 16.991,20.720433 16.600356,20.611952 16.266453,20.5071 c 0.637686,-0.168083 1.367305,-1.191757 2.127929,-1.303966 0.01037,-0.0014 0.02244,-0.0014 0.0331,-0.0032 0.645882,1.453889 1.475905,3.180567 2.396453,3.924805 0.482846,0.390377 1.004334,0.536822 1.526514,0.42484 0.522157,-0.111954 1.012302,-0.472179 1.45662,-1.257992 0.444327,-0.785819 0.552029,-1.419504 0.375196,-1.918259 -0.176785,-0.498769 -0.630405,-0.950469 -1.219368,-1.153162 -1.122857,-0.386429 -2.781365,-0.523641 -4.37173,-0.307148 -0.0045,-0.0095 -0.01037,-0.0196 -0.01476,-0.02937 -0.301401,-0.699812 -0.33336,-0.89923 -0.522329,-1.524692 0.264948,0.22648 0.512939,0.420052 0.715443,0.542572 0.08634,0.05222 0.164339,0.06545 0.239094,0.0662 0.172104,-0.01051 0.383962,0.01476 0.514965,-0.16181 0.0032,-0.07276 -0.008,-0.151441 -0.03126,-0.240934 -0.02506,-0.09505 -0.06538,-0.204112 -0.119535,-0.329213 -0.105221,-0.242936 -0.267247,-0.924939 -0.496584,-1.305817 -0.249387,-0.597185 -0.555877,-1.2368 -0.741184,-1.712278 -0.06869,-0.03205 -0.147725,-0.04839 -0.224377,-0.02399 -0.07673,0.02457 -0.132539,0.08551 -0.163731,0.149036 -0.06231,0.127013 -0.06766,0.282851 -0.05712,0.483711 0.01359,0.234471 0.06646,0.978574 0.141623,1.316848 -0.465903,-0.462198 -1.463736,-1.008378 -1.942165,-1.603765 -0.008,-0.008 -0.01403,-0.017 -0.02011,-0.02576 0.949844,-1.280263 2.552762,-2.703374 2.744041,-3.864109 0.100436,-0.60885 0.0225,-1.1590677 -0.336542,-1.5504251 -0.336709,-0.3669988 -1.636203,-0.5652317 -2.48836,-0.5793472 z"
     id="path1146-6"
     class="ColorScheme-Text" />
  <sodipodi:namedview
     id="namedview1156"
     pagecolor="#201933"
     bordercolor="#000000"
     borderopacity="1"
     inkscape:showpageshadow="true"
     inkscape:pageopacity="0"
     inkscape:pagecheckerboard="true"
     inkscape:deskcolor="#201933"
     showgrid="true"
     inkscape:zoom="7.375"
     inkscape:cx="20.881356"
     inkscape:cy="6.2372881"
     inkscape:window-width="1920"
     inkscape:window-height="994"
     inkscape:window-x="0"
     inkscape:window-y="0"
     inkscape:window-maximized="1"
     inkscape:current-layer="svg1154">
    <inkscape:grid
       type="xygrid"
       id="grid1340"
       originx="22"
       originy="-10"
       spacingy="1"
       spacingx="1"
       units="px"
       visible="true" />
  </sodipodi:namedview>
  <defs
     id="l4k1">
    <style
       type="text/css"
       id="style201" />
  </defs>
</svg>
