<?xml version="1.0" encoding="UTF-8" standalone="no"?>
<svg
   inkscape:version="1.3.2 (091e20ef0f, 2023-11-25)"
   sodipodi:docname="jami-symbolic.svg"
   id="svg44"
   version="1.1"
   height="32"
   width="32"
   style="enable-background:new"
   xmlns:inkscape="http://www.inkscape.org/namespaces/inkscape"
   xmlns:sodipodi="http://sodipodi.sourceforge.net/DTD/sodipodi-0.dtd"
   xmlns="http://www.w3.org/2000/svg"
   xmlns:svg="http://www.w3.org/2000/svg"
   xmlns:rdf="http://www.w3.org/1999/02/22-rdf-syntax-ns#"
   xmlns:cc="http://creativecommons.org/ns#"
   xmlns:dc="http://purl.org/dc/elements/1.1/">
  <metadata
     id="metadata48">
    <rdf:RDF>
      <cc:Work
         rdf:about="">
        <dc:format>image/svg+xml</dc:format>
        <dc:type
           rdf:resource="http://purl.org/dc/dcmitype/StillImage" />
      </cc:Work>
    </rdf:RDF>
  </metadata>
  <sodipodi:namedview
     showguides="false"
     inkscape:current-layer="svg44"
     inkscape:window-maximized="1"
     inkscape:window-y="0"
     inkscape:window-x="0"
     inkscape:cy="15.545401"
     inkscape:cx="16.342602"
     inkscape:zoom="10.035122"
     showgrid="true"
     id="namedview46"
     inkscape:window-height="994"
     inkscape:window-width="1920"
     inkscape:pageshadow="2"
     inkscape:pageopacity="0"
     guidetolerance="10"
     gridtolerance="10"
     objecttolerance="10"
     borderopacity="1"
     bordercolor="#000000"
     pagecolor="#02334b"
     inkscape:document-rotation="0"
     inkscape:pagecheckerboard="true"
     inkscape:showpageshadow="true"
     inkscape:deskcolor="#02334b">
    <inkscape:grid
       id="grid845"
       type="xygrid"
       originx="-7"
       originy="-9"
       spacingy="1"
       spacingx="1"
       units="px"
       visible="true" />
  </sodipodi:namedview>
  <defs
     id="defs4">
    <linearGradient
       id="linearGradient5606"
       inkscape:swatch="solid">
      <stop
         style="stop-color:#000000"
         offset="0"
         id="stop5608" />
    </linearGradient>
  </defs>
  <g
     id="g128"
     transform="matrix(0,0.23269337,-0.3257329,0,25.286645,-4.3315877)">
    <g
       id="g126">
      <g
         id="g124">
        <g
           id="g122">
          <g
             id="g120">
            <g
               id="g118">
              <g
                 id="g116">
                <g
                   id="g114" />
              </g>
            </g>
          </g>
        </g>
      </g>
    </g>
  </g>
  <g
     id="g146"
     transform="matrix(0,0.23269337,-0.3257329,0,25.286645,-4.3315877)">
    <g
       id="g144">
      <g
         id="g142">
        <g
           id="g140">
          <g
             id="g138">
            <g
               id="g136">
              <g
                 id="g134">
                <g
                   id="g132" />
              </g>
            </g>
          </g>
        </g>
      </g>
    </g>
  </g>
  <g
     id="g6"
     style="fill:#e5e9ef;fill-opacity:1"
     transform="matrix(0,0.23269337,-0.3257329,0,25.286645,-4.3315876)">
    <g
       id="g4"
       style="fill:#e5e9ef;fill-opacity:1" />
  </g>
  <g
     id="g24"
     style="fill:#e5e9ef;fill-opacity:1"
     transform="matrix(0,0.23269337,-0.3257329,0,25.286645,-4.3315876)">
    <g
       id="g22"
       style="fill:#e5e9ef;fill-opacity:1" />
  </g>
  <g
     id="g42"
     style="fill:#e5e9ef;fill-opacity:1"
     transform="matrix(0,0.23269337,-0.3257329,0,25.286645,-4.3315876)">
    <g
       id="g40"
       style="fill:#e5e9ef;fill-opacity:1" />
  </g>
  <g
     id="g60"
     style="fill:#e5e9ef;fill-opacity:1"
     transform="matrix(0,0.23269337,-0.3257329,0,25.286645,-4.3315876)">
    <g
       id="g58"
       style="fill:#e5e9ef;fill-opacity:1" />
  </g>
  <g
     id="g78"
     style="fill:#e5e9ef;fill-opacity:1"
     transform="matrix(0,0.23269337,-0.3257329,0,25.286645,-4.3315876)">
    <g
       id="g76"
       style="fill:#e5e9ef;fill-opacity:1" />
  </g>
  <g
     id="g96"
     style="fill:#e5e9ef;fill-opacity:1"
     transform="matrix(0,0.23269337,-0.3257329,0,25.286645,-4.3315876)">
    <g
       id="g94"
       style="fill:#e5e9ef;fill-opacity:1" />
  </g>
  <g
     id="jami"
     style="enable-background:new">
    <rect
       id="rect11"
       style="opacity:0.00100002;fill:#e5e9ef;fill-opacity:1"
       y="0"
       x="0"
       height="32"
       width="32" />
    <path
       style="color:#d6dbf1;fill:none;fill-opacity:1;stroke:#d3dae3;stroke-width:1.60402;stroke-linecap:round;stroke-miterlimit:4;stroke-dasharray:none;stroke-opacity:1;stop-color:#31363b"
       sodipodi:type="arc"
       sodipodi:cx="-16.000002"
       sodipodi:cy="-16.00001"
       sodipodi:rx="11.201572"
       sodipodi:ry="11.201572"
       sodipodi:start="3.7596615"
       sodipodi:end="3.7574109"
       sodipodi:open="true"
       sodipodi:arc-type="arc"
       transform="scale(-1)"
       d="m -25.129272,-22.490899 a 11.201572,11.201572 0 0 1 15.615022,-2.642032 11.201572,11.201572 0 0 1 2.6508169,15.6135337 11.201572,11.201572 0 0 1 -15.6120389,2.6596014 11.201572,11.201572 0 0 1 -2.668386,-15.6105401"
       id="path7"
       class="ColorScheme-Text" />
    <path
       d="m 23.839946,15.975503 c 0,-1.248758 -1.411215,-2.107347 -3.292824,-2.575647 0,-0.234152 0.07847,-0.546311 0.15685,-0.702452 0.470401,-2.185359 -0.15685,-3.1219594 -0.783963,-3.4343144 -0.627246,-0.312147 -1.724768,-0.468297 -3.371104,1.0146034 -0.156849,0.156153 -0.392052,0.312159 -0.54876,0.546315 C 15.843301,10.667855 15.6081,10.433713 15.451384,10.277693 13.80484,8.7947926 12.707194,8.8729276 12.079946,9.1850866 c -0.627118,0.390297 -1.254362,1.2487594 -0.783959,3.5122524 0.07837,0.156145 0.156841,0.4683 0.156841,0.702448 -1.8816084,0.4683 -3.2928164,1.326896 -3.2928164,2.575652 0,1.24875 1.411208,2.107346 3.2928164,2.575646 0,0.234154 -0.07848,0.546303 -0.156841,0.780458 -0.470403,2.185351 0.156841,3.121951 0.783959,3.434312 0.235202,0.156143 0.470403,0.234146 0.86245,0.234146 0.627243,0 1.489564,-0.312156 2.508854,-1.248757 0.156851,-0.156142 0.392052,-0.312151 0.548761,-0.546304 0.156843,0.156144 0.392045,0.390296 0.548759,0.546304 1.097648,0.936601 1.959962,1.248757 2.508856,1.248757 0.313559,0 0.627247,-0.07804 0.862447,-0.234146 0.627253,-0.312157 1.254364,-1.248757 0.783961,-3.434312 -0.07837,-0.234155 -0.156842,-0.4683 -0.156842,-0.702455 1.881611,-0.546303 3.292818,-1.404899 3.292818,-2.653649 z M 12.864108,10.590059 c 0.235201,0 0.705604,0.07805 1.568051,0.858586 0.156842,0.156152 0.392045,0.312159 0.548761,0.546311 -0.235202,0.234148 -0.548896,0.624445 -0.784098,0.9366 -0.392042,0 -0.783962,0.07805 -1.176005,0.156145 -0.07837,-0.234156 -0.156711,-0.546439 -0.156711,-0.780594 -0.313692,-1.248749 -0.07847,-1.717048 0,-1.717048 z m -0.862456,6.478257 C 10.512098,16.756027 9.7279979,16.20972 9.7279979,15.975567 c 0,-0.234147 0.7839641,-0.78045 2.2736541,-1.092743 0.156851,0.31229 0.31356,0.702453 0.470403,1.092743 -0.156842,0.390295 -0.313551,0.780457 -0.470403,1.092749 z m 2.430372,3.433972 c -1.019164,0.9366 -1.489568,0.9366 -1.567917,0.858596 -0.07837,0 -0.313558,-0.468299 0,-1.795196 0,-0.156009 0.07836,-0.4683 0.156712,-0.702445 0.392045,0.07804 0.783963,0.07804 1.176005,0.156142 0.235202,0.312158 0.470403,0.702454 0.705605,0.9366 -0.156712,0.234154 -0.313559,0.390297 -0.470403,0.546303 z m 1.56805,-2.965806 h -0.862448 c -0.156842,-0.234154 -0.313559,-0.468299 -0.470402,-0.780458 -0.156841,-0.234147 -0.313559,-0.546304 -0.392043,-0.780457 0.156842,-0.234147 0.235201,-0.546305 0.392043,-0.78045 0.156843,-0.234155 0.31356,-0.546305 0.470402,-0.780459 h 0.862448 0.862455 c 0.156842,0.234154 0.313559,0.4683 0.470402,0.780459 0.156842,0.234145 0.313558,0.546303 0.392043,0.78045 -0.156841,0.234153 -0.2352,0.54631 -0.392043,0.780457 -0.156843,0.234153 -0.31356,0.546304 -0.470402,0.780458 z m 3.135974,3.82434 c -0.07837,0 -0.548754,0 -1.568051,-0.858597 -0.156843,-0.156147 -0.392045,-0.312157 -0.548761,-0.546303 0.235202,-0.312157 0.470401,-0.624451 0.705603,-0.9366 0.392053,0 0.783963,-0.07804 1.176007,-0.156151 0.07837,0.234154 0.156851,0.4683 0.156851,0.702454 0.392044,1.326897 0.156844,1.795197 0.07836,1.795197 z m 0,-9.05391 c 0,0.234143 -0.07837,0.546438 -0.156712,0.780581 -0.392045,-0.07804 -0.783963,-0.07804 -1.176006,-0.156141 -0.235201,-0.312159 -0.470402,-0.702445 -0.705604,-0.9366 l 0.54876,-0.546302 c 0.862449,-0.780461 1.33285,-0.858598 1.489557,-0.858598 h 0.07836 c 1.36e-4,0 0.235334,0.4683 -0.07836,1.71706 z m 0.862453,4.761271 c -0.15685,-0.390297 -0.313558,-0.702456 -0.470402,-1.092744 0.156844,-0.390295 0.313552,-0.780456 0.470402,-1.09275 1.489559,0.312291 2.273655,0.858598 2.273655,1.09275 0,0.234147 -0.784096,0.78045 -2.273655,1.092744 z"
       id="path355"
       style="fill:#d3dae3;fill-opacity:1;stroke:none;stroke-width:0.0335255;stroke-opacity:1" />
  </g>
</svg>
