<?xml version="1.0" encoding="UTF-8" standalone="no"?>
<svg
   inkscape:version="1.3.2 (091e20ef0f, 2023-11-25)"
   sodipodi:docname="kaffeine-symbolic.svg"
   id="svg44"
   version="1.1"
   height="32"
   width="32"
   style="enable-background:new"
   xmlns:inkscape="http://www.inkscape.org/namespaces/inkscape"
   xmlns:sodipodi="http://sodipodi.sourceforge.net/DTD/sodipodi-0.dtd"
   xmlns="http://www.w3.org/2000/svg"
   xmlns:svg="http://www.w3.org/2000/svg"
   xmlns:rdf="http://www.w3.org/1999/02/22-rdf-syntax-ns#"
   xmlns:cc="http://creativecommons.org/ns#"
   xmlns:dc="http://purl.org/dc/elements/1.1/">
  <metadata
     id="metadata48">
    <rdf:RDF>
      <cc:Work
         rdf:about="">
        <dc:format>image/svg+xml</dc:format>
        <dc:type
           rdf:resource="http://purl.org/dc/dcmitype/StillImage" />
      </cc:Work>
    </rdf:RDF>
  </metadata>
  <sodipodi:namedview
     showguides="false"
     inkscape:current-layer="svg44"
     inkscape:window-maximized="1"
     inkscape:window-y="0"
     inkscape:window-x="0"
     inkscape:cy="28.001653"
     inkscape:cx="23.916002"
     inkscape:zoom="10.035122"
     showgrid="true"
     id="namedview46"
     inkscape:window-height="994"
     inkscape:window-width="1920"
     inkscape:pageshadow="2"
     inkscape:pageopacity="0"
     guidetolerance="10"
     gridtolerance="10"
     objecttolerance="10"
     borderopacity="1"
     bordercolor="#000000"
     pagecolor="#02334b"
     inkscape:document-rotation="0"
     inkscape:pagecheckerboard="true"
     inkscape:showpageshadow="true"
     inkscape:deskcolor="#02334b">
    <inkscape:grid
       id="grid1"
       units="px"
       originx="1.500005"
       originy="11.5"
       spacingx="1"
       spacingy="1"
       empcolor="#0099e5"
       empopacity="0.30196078"
       color="#0099e5"
       opacity="0.14901961"
       empspacing="5"
       dotted="false"
       gridanglex="30"
       gridanglez="30"
       visible="true" />
  </sodipodi:namedview>
  <defs
     id="defs4">
    <linearGradient
       id="linearGradient5606"
       inkscape:swatch="solid">
      <stop
         style="stop-color:#000000"
         offset="0"
         id="stop5608" />
    </linearGradient>
  </defs>
  <g
     id="g128"
     transform="matrix(0,0.23269337,-0.3257329,0,33.78665,16.168412)">
    <g
       id="g126">
      <g
         id="g124">
        <g
           id="g122">
          <g
             id="g120">
            <g
               id="g118">
              <g
                 id="g116">
                <g
                   id="g114" />
              </g>
            </g>
          </g>
        </g>
      </g>
    </g>
  </g>
  <g
     id="g146"
     transform="matrix(0,0.23269337,-0.3257329,0,33.78665,16.168412)">
    <g
       id="g144">
      <g
         id="g142">
        <g
           id="g140">
          <g
             id="g138">
            <g
               id="g136">
              <g
                 id="g134">
                <g
                   id="g132" />
              </g>
            </g>
          </g>
        </g>
      </g>
    </g>
  </g>
  <g
     id="kaffeine"
     style="fill:#d3dae3;fill-opacity:1;enable-background:new">
    <rect
       id="rect11"
       style="opacity:0.00100002;fill:#d3dae3;fill-opacity:1"
       y="0"
       x="0"
       height="32"
       width="32" />
    <g
       id="g8"
       transform="matrix(0,0.23269337,-0.3257329,0,32.286645,4.6684124)"
       style="fill:#d3dae3;fill-opacity:1">
      <g
         id="g6"
         style="fill:#d3dae3;fill-opacity:1">
        <g
           id="g4"
           style="fill:#d3dae3;fill-opacity:1" />
      </g>
    </g>
    <g
       id="g26"
       transform="matrix(0,0.23269337,-0.3257329,0,32.286645,4.6684124)"
       style="fill:#d3dae3;fill-opacity:1">
      <g
         id="g24"
         style="fill:#d3dae3;fill-opacity:1">
        <g
           id="g22"
           style="fill:#d3dae3;fill-opacity:1" />
      </g>
    </g>
    <g
       id="g44"
       transform="matrix(0,0.23269337,-0.3257329,0,32.286645,4.6684124)"
       style="fill:#d3dae3;fill-opacity:1">
      <g
         id="g42"
         style="fill:#d3dae3;fill-opacity:1">
        <g
           id="g40"
           style="fill:#d3dae3;fill-opacity:1" />
      </g>
    </g>
    <g
       id="g62"
       transform="matrix(0,0.23269337,-0.3257329,0,32.286645,4.6684124)"
       style="fill:#d3dae3;fill-opacity:1">
      <g
         id="g60"
         style="fill:#d3dae3;fill-opacity:1">
        <g
           id="g58"
           style="fill:#d3dae3;fill-opacity:1" />
      </g>
    </g>
    <g
       id="g80"
       transform="matrix(0,0.23269337,-0.3257329,0,32.286645,4.6684124)"
       style="fill:#d3dae3;fill-opacity:1">
      <g
         id="g78"
         style="fill:#d3dae3;fill-opacity:1">
        <g
           id="g76"
           style="fill:#d3dae3;fill-opacity:1" />
      </g>
    </g>
    <g
       id="g98"
       transform="matrix(0,0.23269337,-0.3257329,0,32.286645,4.6684124)"
       style="fill:#d3dae3;fill-opacity:1">
      <g
         id="g96"
         style="fill:#d3dae3;fill-opacity:1">
        <g
           id="g94"
           style="fill:#d3dae3;fill-opacity:1" />
      </g>
    </g>
    <path
       d="M 3.5433339,5 C 2.6892206,5 2,5.7469962 2,6.6727348 V 25.316445 C 2,26.239411 2.6892206,27 3.5433339,27 H 28.456636 C 29.30818,27 30,26.239411 30,25.316445 V 6.6727348 C 29.997478,5.7469962 29.30818,5 28.456636,5 Z M 21.868652,6.239663 h 0.804172 c 0.161171,0 0.284646,0.1341615 0.284646,0.2977586 v 0.882356 c 0,0.163442 -0.126005,0.3031713 -0.284646,0.3031713 h -0.804172 c -0.161125,0 -0.279682,-0.1397764 -0.279682,-0.3031713 v -0.882356 c 0,-0.1634425 0.121311,-0.2977586 0.279682,-0.2977586 z m 2.142726,0 h 0.79915 c 0.161167,0 0.284656,0.1341615 0.284656,0.2977586 v 0.882356 c 0,0.163442 -0.126029,0.3031713 -0.284656,0.3031713 h -0.79915 c -0.161108,0 -0.284701,-0.1397764 -0.284701,-0.3031713 v -0.882356 c 0,-0.1634425 0.123615,-0.2977586 0.284701,-0.2977586 z m 2.137726,0 h 0.809124 c 0.153479,0 0.274637,0.1341615 0.274637,0.2977586 v 0.882356 c 0,0.163442 -0.123757,0.3031713 -0.274637,0.3031713 h -0.809124 c -0.150774,0 -0.284719,-0.1397764 -0.284719,-0.3031713 v -0.882356 c 0,-0.1634425 0.136356,-0.2977586 0.284719,-0.2977586 z M 3,9 H 29 V 26 H 3 Z m 9,3 z"
       id="path2"
       style="fill:#d3dae3;fill-opacity:1;stroke-width:0.0642685"
       sodipodi:nodetypes="sssssscssssssssssssssssssssssssssssscccccccccccc" />
    <path
       style="color:#d6dbf1;fill:#d3dae3;fill-opacity:1;stroke-width:0.0625003;enable-background:new"
       id="path5-3"
       d="m 21.500009,17.499998 c 0,-3.313719 -2.686286,-5.999998 -6.000004,-5.999998 -3.313718,0 -5.999998,2.686279 -5.999998,5.999998 0,3.313717 2.68628,6.000002 5.999998,6.000002 h 6.000004 v -1.000002 h -2.687495 c 1.677488,-1.110605 2.686762,-2.988038 2.687495,-5 z m -3.061044,4.04517 c -0.670164,0.486813 -1.608384,0.338375 -2.095209,-0.332032 -0.48681,-0.670178 -0.338373,-1.608155 0.33179,-2.095218 0.670404,-0.486817 1.608392,-0.338379 2.09522,0.332033 0.487058,0.670162 0.338378,1.608155 -0.331801,2.095217 z m -0.07377,-6.553227 c 0.787843,-0.256101 1.634045,0.175048 1.890145,0.96289 0.255857,0.788088 -0.175294,1.634277 -0.963137,1.890139 -0.787807,0.2561 -1.634011,-0.175049 -1.890108,-0.962892 -0.255861,-0.787841 0.175286,-1.634277 0.963128,-1.890137 z M 15.499991,12.5 c 0.82838,0 1.5,0.67163 1.5,1.5 0,0.828372 -0.67162,1.5 -1.5,1.5 -0.828365,0 -1.499997,-0.671628 -1.499997,-1.5 0,-0.82837 0.671632,-1.5 1.499997,-1.5 z m -4.755359,3.454831 c 0.256105,-0.787842 1.102297,-1.218991 1.890141,-0.96313 0.787839,0.2561 1.218992,1.102289 0.963134,1.890132 -0.256109,0.787841 -1.102297,1.218991 -1.890135,0.963137 -0.78784,-0.255862 -1.218995,-1.102051 -0.963137,-1.890139 z m 3.911624,5.258305 c -0.486827,0.670407 -1.425049,0.818845 -2.095218,0.332032 -0.670168,-0.487062 -0.818848,-1.425055 -0.331782,-2.095217 0.486811,-0.67017 1.425049,-0.81885 2.09521,-0.331788 0.670161,0.486818 0.818602,1.424795 0.33179,2.094973 z m 0.343747,-3.713138 C 15.000003,17.223874 15.223876,17 15.500001,17 15.776128,17 16,17.223874 16,17.499998 c 0,0.276123 -0.223872,0.5 -0.499999,0.5 -0.276125,0 -0.499998,-0.223877 -0.499998,-0.5 z m 0,0"
       class="ColorScheme-Text" />
  </g>
</svg>
