<?xml version="1.0" encoding="UTF-8" standalone="no"?>
<svg
   width="32"
   height="32"
   version="1.1"
   id="svg1"
   sodipodi:docname="quassel-symbolic.svg"
   inkscape:version="1.3.2 (091e20ef0f, 2023-11-25)"
   xmlns:inkscape="http://www.inkscape.org/namespaces/inkscape"
   xmlns:sodipodi="http://sodipodi.sourceforge.net/DTD/sodipodi-0.dtd"
   xmlns="http://www.w3.org/2000/svg"
   xmlns:svg="http://www.w3.org/2000/svg">
  <defs
     id="defs1" />
  <sodipodi:namedview
     id="namedview1"
     pagecolor="#ffffff"
     bordercolor="#999999"
     borderopacity="1"
     inkscape:showpageshadow="2"
     inkscape:pageopacity="0"
     inkscape:pagecheckerboard="0"
     inkscape:deskcolor="#d1d1d1"
     inkscape:zoom="17.318182"
     inkscape:cx="10.220472"
     inkscape:cy="15.244094"
     inkscape:window-width="1920"
     inkscape:window-height="994"
     inkscape:window-x="0"
     inkscape:window-y="0"
     inkscape:window-maximized="1"
     inkscape:current-layer="svg1" />
  <style
     type="text/css"
     id="current-color-scheme">.ColorScheme-Text{color:#7B7C7E;}.ColorScheme-Background{color:#EFF0F1;}.ColorScheme-Highlight{color:#3DAEE6;}.ColorScheme-ViewText{color:#7B7C7E;}.ColorScheme-ViewBackground{color:#FCFCFC;}.ColorScheme-ViewHover{color:#3DAEE6;}.ColorScheme-ViewFocus{color:#1E92FF;}.ColorScheme-ButtonText{color:#7B7C7E;}.ColorScheme-ButtonBackground{color:#EFF0F1;}.ColorScheme-ButtonHover{color:#3DAEE6;}.ColorScheme-ButtonFocus { color: #1E92FF; } </style>
  <g
     id="quassel"
     transform="matrix(1.4545458,0,0,1.4545458,-1.4545458,-1.4545458)">
    <rect
       y="1"
       x="1"
       height="22"
       width="22"
       id="rect3881"
       style="fill:#ffffff;fill-opacity:0.01;stroke:none" />
    <path
       style="fill:currentColor;fill-opacity:1;stroke:none;stroke-width:1.03127"
       d="m 11.999997,3.750002 c -4.5563484,0 -8.2499976,3.6936492 -8.2499976,8.249998 0,4.556348 3.6936492,8.249998 8.2499976,8.249998 4.556348,0 8.249998,-3.69365 8.249998,-8.249998 0,-4.5563488 -3.69365,-8.249998 -8.249998,-8.249998 z m 0,1.03125 c 3.986802,0 7.218745,3.2319428 7.218745,7.218748 0,3.986802 -3.231943,7.218745 -7.218745,7.218745 -3.9868048,0 -7.2187476,-3.231943 -7.2187476,-7.218745 0,-3.9868052 3.2319428,-7.218748 7.2187476,-7.218748 z M 14.062499,12 c -1.708638,0 -3.093753,1.385115 -3.093753,3.093748 0,1.708632 1.385115,3.093747 3.093753,3.093747 1.708627,0 3.093742,-1.385115 3.093742,-3.093747 C 17.156241,13.385115 15.771126,12 14.062499,12 Z"
       id="path2999"
       class="ColorScheme-Text"
       inkscape:connector-curvature="0" />
  </g>
</svg>
