<?xml version="1.0" encoding="UTF-8" standalone="no"?>
<svg
   width="32"
   height="32"
   version="1.1"
   id="svg1404"
   sodipodi:docname="ring-symbolic.svg"
   inkscape:version="1.3.2 (091e20ef0f, 2023-11-25)"
   xmlns:inkscape="http://www.inkscape.org/namespaces/inkscape"
   xmlns:sodipodi="http://sodipodi.sourceforge.net/DTD/sodipodi-0.dtd"
   xmlns="http://www.w3.org/2000/svg"
   xmlns:svg="http://www.w3.org/2000/svg">
  <sodipodi:namedview
     id="namedview1406"
     pagecolor="#02334b"
     bordercolor="#000000"
     borderopacity="1"
     inkscape:showpageshadow="2"
     inkscape:pageopacity="0.0"
     inkscape:pagecheckerboard="true"
     inkscape:deskcolor="#02334b"
     showgrid="false"
     inkscape:zoom="10.429825"
     inkscape:cx="21.860386"
     inkscape:cy="14.381833"
     inkscape:window-width="1920"
     inkscape:window-height="994"
     inkscape:window-x="0"
     inkscape:window-y="0"
     inkscape:window-maximized="1"
     inkscape:current-layer="svg1404">
    <inkscape:grid
       type="xygrid"
       id="grid1730"
       originx="-1.165686"
       originy="-10"
       spacingy="1"
       spacingx="1"
       units="px"
       visible="false" />
  </sodipodi:namedview>
  <defs
     id="l4k1">
    <style
       type="text/css"
       id="current-color-scheme" />
  </defs>
  <rect
     style="opacity:0.00100002;stroke-width:1.45455"
     width="32"
     height="32"
     x="2.2e-05"
     y="0"
     id="rect1399-6" />
  <path
     d="m 24.485295,7.5147463 c -2.266476,-2.2665526 -5.28019,-3.514746 -8.485293,-3.514746 -3.205103,0 -6.2188317,1.2481934 -8.4850989,3.514746 -2.2666902,2.2665535 -3.5149003,5.2800267 -3.5149003,8.4852547 0,3.205225 1.2482101,6.218692 3.5149003,8.485249 C 9.7811703,26.751665 12.794899,28 16.000002,28 c 3.205295,0 6.218817,-1.248335 8.485293,-3.51475 2.266339,-2.266557 3.514702,-5.280024 3.514702,-8.485249 0,-3.205228 -1.248363,-6.2188502 -3.514702,-8.4852547 z M 23.115002,23.81465 c -2.209526,1.874205 -3.991499,2.760222 -7.115,2.737353 -3.31598,-0.02428 -4.545952,-0.647314 -7.1149987,-2.738007 -2.0874108,-2.087254 -3.4370014,-4.862038 -3.4370014,-7.813995 0,-2.952094 1.3924175,-6.0904313 3.4370014,-7.8150011 2.2937917,-2.0155948 4.2056817,-2.7149619 7.1149987,-2.7370005 2.951862,-0.022363 4.92759,0.9194705 7.115,2.7372064 2.087368,2.0874032 3.437001,4.8627012 3.437001,7.8147952 0,2.951957 -1.349633,5.727394 -3.437001,7.814649 z"
     id="path2-36-912-3-5-2-5"
     style="fill:#d3dae3;fill-opacity:1;stroke-width:0.0374999"
     sodipodi:nodetypes="cscscscsccscscscsc" />
  <path
     inkscape:connector-curvature="0"
     style="color:#000000;fill:#d3dae3;fill-opacity:0.6;stroke-width:0.443156"
     id="path6313-3-6"
     d="m 9.1706288,10.330868 -1.3092547,2.338263 c -0.8728436,1.558853 14.2451559,10.558852 15.1179929,9 l 1.309252,-2.338263 c 0.872845,-1.558851 -14.245156,-10.558849 -15.1179902,-9 z" />
  <path
     inkscape:connector-curvature="0"
     style="color:#000000;fill:#d3dae3;fill-opacity:0.6;stroke-width:0.443156"
     id="path6309-6-2"
     d="m 22.979367,10.330868 1.309252,2.338263 c 0.872845,1.558853 -14.245156,10.558852 -15.1179902,9 L 7.8613741,19.330868 c -0.8728436,-1.558851 14.2451559,-10.558849 15.1179929,-9 z" />
  <path
     inkscape:connector-curvature="0"
     style="color:#000000;fill:#d3dae3;fill-opacity:1;stroke-width:0.443156"
     id="rect5354-5-9"
     d="m 14.765737,7.0000001 h 2.618516 c 1.745676,0 1.745676,17.9999999 0,17.9999999 h -2.618516 c -1.745662,0 -1.745662,-17.9999999 0,-17.9999999 z" />
</svg>
