<?xml version="1.0" encoding="UTF-8" standalone="no"?>
<svg
   width="32"
   height="32"
   version="1"
   id="svg419"
   sodipodi:docname="strawberry-symbolic.svg"
   inkscape:version="1.3.2 (091e20ef0f, 2023-11-25)"
   xmlns:inkscape="http://www.inkscape.org/namespaces/inkscape"
   xmlns:sodipodi="http://sodipodi.sourceforge.net/DTD/sodipodi-0.dtd"
   xmlns="http://www.w3.org/2000/svg"
   xmlns:svg="http://www.w3.org/2000/svg">
  <defs
     id="defs423" />
  <sodipodi:namedview
     id="namedview421"
     pagecolor="#02334b"
     bordercolor="#000000"
     borderopacity="1"
     inkscape:showpageshadow="true"
     inkscape:pageopacity="0.0"
     inkscape:pagecheckerboard="true"
     inkscape:deskcolor="#02334b"
     showgrid="false"
     inkscape:zoom="7.375"
     inkscape:cx="-16"
     inkscape:cy="15.050847"
     inkscape:window-width="1920"
     inkscape:window-height="994"
     inkscape:window-x="0"
     inkscape:window-y="0"
     inkscape:window-maximized="1"
     inkscape:current-layer="svg419">
    <inkscape:grid
       id="grid1"
       units="px"
       originx="-32"
       originy="-10"
       spacingx="1"
       spacingy="1"
       empcolor="#0099e5"
       empopacity="0.30196078"
       color="#0099e5"
       opacity="0.14901961"
       empspacing="5"
       dotted="false"
       gridanglex="30"
       gridanglez="30"
       visible="false" />
  </sodipodi:namedview>
  <g
     id="22-22-strawberry"
     transform="matrix(0,-1.4545455,1.4545455,0,0,31.999976)"
     style="fill:#bac8df;fill-opacity:1">
    <rect
       style="opacity:0.00100002;fill:#bac8df;fill-opacity:1"
       width="22"
       height="22"
       x="0"
       y="0"
       id="rect409" />
    <path
       style="opacity:1;fill:#d3dae3;fill-opacity:1;stroke-width:0.895715"
       d="m 12.378966,3.6093811 c -0.07712,0 -0.100111,0.1672267 -0.05255,0.387936 0,0 0.136644,0.7039144 1.05335,1.2197441 0.637591,0.3353046 0.637221,0.5297001 -0.0039,0.7307643 -0.279184,0.087624 -0.619416,0.2526921 -0.754817,0.3680882 -0.223308,0.1903216 -0.141716,0.2687662 0.876945,0.8462427 0.617652,0.3501404 1.237604,0.7393265 1.37733,0.8642863 0.242596,0.2169517 0.232429,0.2468498 -0.240865,0.6676113 -0.528365,0.4697245 -1.153425,1.567884 -1.153425,2.026295 0,0.247824 0.103407,0.269421 0.973631,0.191258 0.535348,-0.04805 1.123179,-0.109459 1.30778,-0.135331 l 0.335857,-0.04694 -0.04745,1.246815 c -0.02635,0.685601 -0.103307,1.417223 -0.171324,1.625721 -0.06806,0.208499 -0.09618,0.41033 -0.0628,0.449287 0.140713,0.163999 0.713906,-0.197287 1.107638,-0.698286 0.402515,-0.512194 0.428365,-0.523598 0.513943,-0.209307 0.288224,0.563426 0.416164,1.057998 0.86338,1.551749 0.09987,0.01048 0.175095,-0.125888 0.239173,-0.405982 0.197257,-0.862316 0.09148,-1.696556 -0.323982,-2.558576 -0.223837,-0.464501 -0.442459,-1.197201 -0.486779,-1.627526 -0.04434,-0.4303243 -0.116429,-0.9298989 -0.16115,-1.1114829 -0.06799,-0.2759272 0.06228,-0.4380917 0.80062,-0.9815691 0.840669,-0.6188221 1.059174,-0.9708762 0.741248,-1.1998964 -0.07896,-0.056902 -0.496368,0.1155378 -0.926136,0.3825231 -0.429772,0.2669846 -0.865295,0.4853717 -0.968542,0.4853717 -0.103252,0 -0.426656,-0.3349555 -0.719195,-0.7433943 -0.50831,-0.7098383 -0.532502,-0.790966 -0.532502,-1.8386352 0,-0.9954812 -0.02625,-1.0993931 -0.283275,-1.1421569 -0.207718,-0.034563 -0.328334,0.078965 -0.452885,0.4294363 -0.0933,0.2625748 -0.215563,0.4781548 -0.273093,0.4781548 -0.0575,0 -0.631509,-0.2818521 -1.273858,-0.6261117 -0.642189,-0.3442418 -1.22803,-0.6260952 -1.302522,-0.6260952 z m -0.758207,0.9617211 c -0.05761,0.00583 -0.08453,0.00352 -0.149269,0.010823 C 9.3501324,4.8229664 7.5811506,6.2209106 5.5567774,9.2515996 4.9455278,10.166703 4.1602618,11.340986 3.8113677,11.862503 c -1.469769,2.196976 -1.4071438,4.452347 0.1509636,5.400435 1.007017,0.612756 1.9792739,0.854893 3.5196547,0.878719 0.7742485,0.01196 1.9093334,0.07183 2.52058,0.13172 1.70541,0.167064 1.918959,0.162815 3.119342,-0.05951 1.343509,-0.248881 2.378622,-0.767197 3.210944,-1.605881 0.335221,-0.337778 0.740345,-0.981678 1.078796,-1.636549 -0.118034,-0.20288 -0.188028,-0.393643 -0.284965,-0.599043 -0.136872,0.12242 -0.260396,0.280987 -0.407093,0.3735 -0.157192,0.09912 -0.313512,0.185598 -0.537701,0.238173 -0.224188,0.05256 -0.665264,0.08658 -1.005855,-0.31035 -0.302031,-0.352005 -0.236694,-0.527043 -0.240865,-0.644153 -0.0048,-0.117112 0.0065,-0.197532 0.017,-0.276066 0.02204,-0.157066 0.05658,-0.300525 0.106864,-0.4547 -0.03574,0.109722 0.03088,-0.165289 0.05934,-0.434849 0.02842,-0.269553 0.05384,-0.606185 0.06612,-0.925632 l 0.0074,-0.175022 c -0.235762,0.02398 -0.396152,0.0446 -0.663223,0.0686 -0.444204,0.03991 -0.670111,0.08719 -1.043172,0.01444 -0.186534,-0.03639 -0.498081,-0.162743 -0.686971,-0.451088 -0.188883,-0.288346 -0.184888,-0.544707 -0.184888,-0.67483 0,-0.675918 0.242456,-1.0277288 0.503778,-1.4867874 0.177632,-0.312805 0.421333,-0.5777247 0.654331,-0.8499 C 13.561166,8.254475 13.333902,8.1152103 13.091377,7.9777247 12.576116,7.6856262 12.319589,7.5756873 12.012581,7.2794394 11.935829,7.2053778 11.845501,7.1099433 11.763235,6.9420251 11.680988,6.7741065 11.627615,6.5054016 11.669952,6.2726093 11.754611,5.8070241 11.981762,5.6800749 12.08044,5.5959759 12.177991,5.512842 12.266473,5.5126308 12.356922,5.4552363 12.171754,5.2706433 11.89198,5.0936755 11.785289,4.921147 11.707604,4.7955197 11.666569,4.6827581 11.620759,4.5711022 Z m -0.658134,1.1890701 c -0.04521,0.1209845 -0.120789,0.1994337 -0.145876,0.3374144 -0.08755,0.4814276 -0.01395,0.8541891 0.154358,1.2179399 -0.0761,-0.010412 -0.156193,-0.013499 -0.239172,-0.00179 -0.278922,0.039317 -0.577085,0.193462 -0.7649866,0.3933467 -0.334058,0.3553503 -0.361716,0.9035371 -0.06108,1.2233531 0.3006486,0.3198156 0.8159776,0.2903972 1.1500356,-0.064955 0.210947,-0.2243929 0.35037,-0.5914608 0.361297,-0.9166126 0.0037,0.00323 0.0089,0.011464 0.01188,0.014431 0.333616,0.3219294 0.661297,0.4794196 1.029604,0.6820464 -0.02842,0.045247 -0.05721,0.061675 -0.08488,0.1100656 -0.239864,0.4213764 -0.629301,1.054017 -0.629301,1.9649462 0,0.110012 0.01073,0.699417 0.340948,1.203502 0.135504,0.206861 0.287871,0.350386 0.442711,0.469132 -0.28236,0.354557 -0.300599,0.85488 -0.017,1.156594 0.300645,0.319813 0.815978,0.290395 1.150035,-0.06492 0.165882,-0.176451 0.29691,-0.444334 0.351119,-0.709109 0.08045,-0.0077 0.16185,-0.01403 0.242555,-0.02164 -2.17e-4,0.0022 2.21e-4,0.0056 0,0.0074 -0.0096,0.08982 -0.02883,0.204526 -0.04411,0.290502 -0.0084,0.04296 -0.01119,0.04231 -0.02376,0.151568 -3.79e-4,0.0036 -0.0015,0.01067 -0.002,0.01444 -0.03465,0.131721 -0.07384,0.261851 -0.09327,0.400568 -0.01223,0.08719 -0.03226,0.255862 -0.02543,0.445676 -0.0058,-0.141197 -0.03066,0.118297 0.03052,0.404175 0.06124,0.285877 0.21727,0.571381 0.437625,0.828198 0.388349,0.452639 0.832856,0.566445 1.231456,0.593634 -0.0074,0.0075 -0.02424,0.04057 -0.03052,0.04696 -0.701027,0.706384 -1.546132,1.142251 -2.763137,1.3677 -0.760014,0.140782 -1.065281,0.182257 -1.613108,0.155175 0.20049,-0.01753 0.404165,-0.108757 0.564844,-0.279678 0.334052,-0.355351 0.531332,-1.083971 0.230689,-1.403787 -0.07518,-0.07995 -0.174984,-0.12639 -0.286663,-0.146151 -0.08371,-0.0149 -0.175033,-0.01494 -0.268002,-0.002 -0.278925,0.03935 -0.57709,0.193464 -0.764999,0.39335 -0.334056,0.355349 -0.36171,0.903533 -0.06106,1.223351 0.133415,0.141918 0.310235,0.202889 0.493595,0.209306 -0.29218,-0.01796 -0.637946,-0.04743 -1.185647,-0.101094 C 9.4259804,17.288918 8.297865,17.230252 7.4938584,17.217831 6.0336952,17.195241 5.2766551,16.999391 4.3931707,16.4618 3.8673979,16.141878 3.639091,15.699111 3.6196951,15.003885 3.600302,14.308656 3.8685837,13.37016 4.5186911,12.398395 4.8677312,11.876659 5.6526184,10.702947 6.2641004,9.7874931 7.9965672,7.1938174 9.4060424,6.1452588 10.962625,5.7601723 Z M 7.2580845,9.1613824 C 6.97916,9.200703 6.6809952,9.3548466 6.4930902,9.5547316 6.1590346,9.9100822 6.1313766,10.458274 6.4320287,10.778086 6.7326775,11.097903 7.2480103,11.068476 7.582065,10.713131 7.9161196,10.357781 8.1134,9.6291582 7.8127507,9.3093423 7.7375852,9.2293883 7.6377692,9.18295 7.5260898,9.1631893 7.4423353,9.148371 7.3510623,9.1482777 7.2580871,9.161388 Z m 2.6053939,1.8476606 c -0.278925,0.03934 -0.57709,0.193462 -0.7649961,0.393347 -0.3340541,0.355356 -0.3617135,0.903538 -0.061062,1.223356 0.3006481,0.319815 0.8159841,0.290389 1.1500367,-0.06492 0.334054,-0.355346 0.531336,-1.083969 0.230686,-1.403789 -0.07518,-0.07995 -0.174982,-0.12639 -0.286659,-0.14615 -0.08372,-0.01489 -0.1750306,-0.01494 -0.2680026,-0.002 z m -4.3423221,1.84766 c -0.2789243,0.03935 -0.5770882,0.193459 -0.7649946,0.393349 -0.3340534,0.355351 -0.361713,0.903533 -0.061062,1.223352 0.3006485,0.319815 0.815982,0.290394 1.1500356,-0.06492 C 6.17919,14.053132 6.3764712,13.324508 6.0758209,13.00469 6.0006519,12.92473 5.9008395,12.878302 5.7891602,12.858541 c -0.083753,-0.01489 -0.1750278,-0.01495 -0.2680029,-0.002 z m 3.4738562,1.847659 c -0.2789244,0.03935 -0.577089,0.193461 -0.7649943,0.393349 -0.3340547,0.35535 -0.3617137,0.903535 -0.061063,1.223352 0.3006482,0.319816 0.8159829,0.290396 1.1500372,-0.06493 0.334056,-0.355353 0.531333,-1.083974 0.230684,-1.403791 -0.07516,-0.07996 -0.174981,-0.126396 -0.286661,-0.146154 -0.083766,-0.0149 -0.1750274,-0.01495 -0.2680024,-0.002 z"
       id="path411" />
  </g>
</svg>
