<?xml version="1.0" encoding="UTF-8" standalone="no"?>
<svg
   width="32"
   height="32"
   x="0"
   y="0"
   version="1.1"
   xml:space="preserve"
   id="svg1459"
   sodipodi:docname="thunderbird-symbolic.svg"
   inkscape:version="1.3.2 (091e20ef0f, 2023-11-25)"
   xmlns:inkscape="http://www.inkscape.org/namespaces/inkscape"
   xmlns:sodipodi="http://sodipodi.sourceforge.net/DTD/sodipodi-0.dtd"
   xmlns="http://www.w3.org/2000/svg"
   xmlns:svg="http://www.w3.org/2000/svg"><defs
   id="defs1463">
  
  
  
 
  
  
  
 </defs><sodipodi:namedview
   id="namedview1461"
   pagecolor="#02334b"
   bordercolor="#000000"
   borderopacity="1"
   inkscape:showpageshadow="2"
   inkscape:pageopacity="0"
   inkscape:pagecheckerboard="true"
   inkscape:deskcolor="#02334b"
   showgrid="true"
   inkscape:zoom="10.429825"
   inkscape:cx="34.612278"
   inkscape:cy="26.079057"
   inkscape:window-width="1920"
   inkscape:window-height="994"
   inkscape:window-x="0"
   inkscape:window-y="0"
   inkscape:window-maximized="1"
   inkscape:current-layer="svg1459"><inkscape:grid
     type="xygrid"
     id="grid1674"
     originx="5.327787"
     originy="4.841375"
     spacingy="1"
     spacingx="1"
     units="px"
     visible="true" /></sodipodi:namedview>
 
 
<g
   id="g1"><g
     id="thunderbird"
     style="fill:#d3dae3;fill-opacity:1"><rect
       style="opacity:0.00100002;fill:#d3dae3;fill-opacity:1"
       width="32"
       height="32"
       x="0"
       y="0"
       id="rect1445" /><path
       d="m 27.729569,14.200167 c -0.225002,-1.219881 -0.693598,-2.401628 -1.330799,-3.468973 -0.1806,-0.328765 -0.4172,-0.640142 -0.6186,-0.9340282 -1.349499,-1.925105 -2.417997,-2.57318 -2.624094,-2.687581 -0.187399,-0.133418 -0.374902,-0.266837 -0.562302,-0.381137 -1.743199,-1.10558 -2.867796,-1.258015 -2.867796,-1.258015 -0.806,-0.343104 -1.593197,-0.533672 -2.174295,-0.629058 -1.255801,-0.152536 -2.305499,-0.133418 -3.223896,0 0.149999,-0.266836 0.281201,-0.362019 0.318597,-0.381136 0.02319,0 0.0166,0 0,0 -0.449798,0.03813 -0.993397,0.343104 -1.480696,0.648074 0.337298,-0.667091 1.049597,-1.04843 1.143299,-1.105682 h 0.01869 c -0.562205,-0.03803 -2.1554,0.324189 -3.5237,1.868158 C 6.5489965,7.6813908 4,11.646003 4,15.972634 c 0,3.278507 1.2557983,5.641999 2.6240967,7.204985 1.2932983,1.429566 2.7178956,2.191942 3.3925943,2.401629 0.0708,0.02838 0.225,0.03814 0.225,0.03814 0.01869,-0.05716 -0.8621987,-1.486716 -1.2558981,-3.202237 0.7872996,0.819626 1.7244961,1.448685 2.7740961,1.562984 0.112499,0.01912 -0.374899,-0.590821 -0.899697,-1.391331 l 0.712298,0.247718 7.81609,2.64945 c -0.7685,0.800507 -1.799399,1.582 -3.205195,2.268207 0,0 3.148995,-0.266837 4.704693,-2.039507 -0.6373,1.486718 -2.380495,2.287329 -2.380495,2.287329 1.274595,-0.190672 4.648493,-1.200866 6.785287,-3.926478 2.436699,-3.087837 3.167697,-5.985105 2.436699,-9.87345 z m -6.222991,7.224 c -0.243601,1.200763 -0.7497,2.535149 -1.893001,3.812076 L 5.799297,20.566407 C 5.4056979,19.289376 5.2182985,17.802659 5.3306979,16.068122 c 0.2436997,0.457507 0.9746993,0.838644 1.4244982,0.85776 -1.0495989,-2.38261 -0.6372988,-4.021864 0.1499999,-5.108225 a 635.67916,646.42701 0 0 1 1.0308989,1.543867 v -0.114402 c 0.018703,-0.152536 0.037497,-0.266836 0.075001,-0.381136 -0.3561991,-0.533774 -0.6559992,-0.991179 -0.880999,-1.315267 0.4311001,-0.495538 0.918399,-0.857658 1.3495986,-1.105478 0.018703,0.209686 0.0562,0.400254 0.1123994,0.628956 0.075003,0.324088 0.093697,0.80061 0.0562,1.181849 v -0.01912 c 0,0.07627 -0.018693,0.152536 -0.037397,0.228804 -0.018803,0.07627 -0.2250008,0.285751 -0.2812005,0.838643 -0.0562,0.590823 0.1499989,0.91491 0.3560992,1.16263 0.2437006,-0.228703 0.6935998,-0.800509 1.5182994,-1.124597 0.824697,-0.343003 1.368296,-0.838643 2.417996,-1.372316 0.618498,-0.323986 1.274499,-0.285954 2.099198,-0.24782 1.480797,0.266837 3.430094,0.800611 5.24829,0.895895 0.412299,0.991179 0.581,2.420645 0.581,2.458879 0,0.133316 0.01879,0.247719 0.01879,0.362018 -3.223998,1.239001 -7.010192,2.649448 -8.603392,3.068821 -0.131198,0.03814 -1.518294,-2.001272 -2.8115934,-3.945596 -0.018693,0.03814 -0.0562,0.05726 -0.075001,0.07628 -0.037397,0.03814 -0.075002,0.07628 -0.093697,0.114401 h -0.112395 c 1.3869954,2.07754 2.8677934,4.231347 3.0176954,4.231347 1.405796,-0.514554 5.604391,-1.982254 8.659587,-3.0496 -0.0187,2.344478 -0.581,3.221253 -0.581,3.221253 0,0 0.768501,-0.305071 1.555699,-1.105478 0,0.647973 -0.168698,2.32536 -1.499497,3.945495 0,0 0.693498,-0.190568 1.480696,-0.571807 z"
       id="path1299"
       style="fill:#d3dae3;fill-opacity:1;stroke-width:1.00843" /></g></g></svg>
