<?xml version="1.0" encoding="UTF-8" standalone="no"?>
<svg
   sodipodi:docname="shutdown_primary.svg"
   inkscape:version="1.3 (0e150ed6c4, 2023-07-21)"
   id="svg1699"
   version="1.1"
   viewBox="0 0 32 32"
   height="32"
   width="32"
   xmlns:inkscape="http://www.inkscape.org/namespaces/inkscape"
   xmlns:sodipodi="http://sodipodi.sourceforge.net/DTD/sodipodi-0.dtd"
   xmlns:xlink="http://www.w3.org/1999/xlink"
   xmlns="http://www.w3.org/2000/svg"
   xmlns:svg="http://www.w3.org/2000/svg"
   xmlns:rdf="http://www.w3.org/1999/02/22-rdf-syntax-ns#"
   xmlns:cc="http://creativecommons.org/ns#"
   xmlns:dc="http://purl.org/dc/elements/1.1/">
  <defs
     id="defs1693">
    <linearGradient
       inkscape:collect="always"
       xlink:href="#linearGradient985"
       id="linearGradient1003"
       x1="1"
       y1="16"
       x2="31"
       y2="16"
       gradientUnits="userSpaceOnUse"
       gradientTransform="translate(98.729148,81.918987)" />
    <linearGradient
       inkscape:collect="always"
       id="linearGradient985">
      <stop
         style="stop-color:#4e51ac;stop-opacity:1"
         offset="0"
         id="stop980" />
      <stop
         style="stop-color:#4e9fac;stop-opacity:1"
         offset="1"
         id="stop982" />
    </linearGradient>
  </defs>
  <sodipodi:namedview
     inkscape:document-rotation="0"
     inkscape:window-maximized="1"
     inkscape:window-y="0"
     inkscape:window-x="0"
     inkscape:window-height="994"
     inkscape:window-width="1920"
     showgrid="true"
     inkscape:current-layer="layer1"
     inkscape:document-units="px"
     inkscape:cy="-2.2097087"
     inkscape:cx="-9.47018"
     inkscape:zoom="7.919596"
     inkscape:pageshadow="2"
     inkscape:pageopacity="0"
     borderopacity="1"
     bordercolor="#ff1919"
     pagecolor="#000000"
     id="base"
     inkscape:pagecheckerboard="true"
     inkscape:showpageshadow="false"
     inkscape:deskcolor="#000000">
    <inkscape:grid
       type="xygrid"
       id="grid844"
       originx="0"
       originy="0"
       spacingy="1"
       spacingx="1"
       units="mm"
       visible="true" />
  </sodipodi:namedview>
  <metadata
     id="metadata1696">
    <rdf:RDF>
      <cc:Work
         rdf:about="">
        <dc:format>image/svg+xml</dc:format>
        <dc:type
           rdf:resource="http://purl.org/dc/dcmitype/StillImage" />
      </cc:Work>
    </rdf:RDF>
  </metadata>
  <g
     transform="translate(-98.729144,-81.918987)"
     id="layer1"
     inkscape:groupmode="layer"
     inkscape:label="Layer 1">
    <g
       id="system-switch-user"
       transform="translate(-184.27085,81.918987)">
      <g
         id="g1729">
        <circle
           style="opacity:0;fill:none;fill-opacity:1;stroke-width:1.06667"
           id="circle955"
           r="16"
           cy="-16"
           cx="299"
           transform="scale(1,-1)" />
      </g>
    </g>
    <path
       style="color:#000000;overflow:visible;fill:url(#linearGradient1003);fill-opacity:1"
       id="path1024"
       overflow="visible"
       d="m 114.72914,82.918987 c -8.2768,0 -14.999996,6.7232 -14.999996,15 0,8.276803 6.723196,15.000003 14.999996,15.000003 8.2768,0 15,-6.7232 15,-15.000003 0,-8.2768 -6.7232,-15 -15,-15 z"
       inkscape:connector-curvature="0" />
    <path
       id="path1028"
       overflow="visible"
       d="m 110.60614,90.694987 c -0.204,0 -0.394,0.08 -0.566,0.162 l -0.405,0.243 c -1.984,1.309 -3.382,3.331 -3.8,5.7 0,0.002 -0.04,-0.003 -0.04,0 -0.011,0.065 0.01,0.136 0,0.202 -0.06,0.4 -0.121,0.795 -0.121,1.213 0,4.822003 4.054,8.732003 9.055,8.732003 5.001,0 9.055,-3.91 9.055,-8.732003 0,-0.371 -0.033,-0.733 -0.08,-1.092 -0.015,-0.111 -0.062,-0.213 -0.081,-0.323 -0.418,-2.369 -1.816,-4.391 -3.8,-5.7 l -0.405,-0.243 c -0.172,-0.081 -0.362,-0.162 -0.566,-0.162 -0.736,0 -1.334,0.598 -1.334,1.335 0,0.419 0.223,0.806 0.526,1.05 0.096,0.078 0.208,0.154 0.323,0.203 a 6.32,6.32 0 0 1 2.588,3.517 c 0.007,0.027 0.033,0.053 0.04,0.08 0.135,0.495 0.202,1 0.202,1.537 0,3.445003 -2.896,6.226003 -6.468,6.226003 -3.572,0 -6.468,-2.781 -6.468,-6.226003 0,-0.536 0.068,-1.042 0.202,-1.536 0.008,-0.03 0.032,-0.053 0.04,-0.081 a 6.32,6.32 0 0 1 2.588,-3.517 c 0.115,-0.05 0.227,-0.125 0.323,-0.202 0.303,-0.245 0.526,-0.632 0.526,-1.051 0,-0.737 -0.598,-1.335 -1.334,-1.335 z m 4.123,-3.153 a 1.29,1.29 0 0 1 1.294,1.294 v 7.762 a 1.29,1.29 0 0 1 -1.294,1.293 1.29,1.29 0 0 1 -1.294,-1.293 v -7.762 a 1.29,1.29 0 0 1 1.294,-1.294 z"
       inkscape:connector-curvature="0"
       style="overflow:visible;fill:#ffffff;fill-opacity:1" />
  </g>
</svg>
