<?xml version="1.0" encoding="UTF-8" standalone="no"?>
<svg
   sodipodi:docname="suspend_primary.svg"
   inkscape:version="1.3 (0e150ed6c4, 2023-07-21)"
   id="svg1699"
   version="1.1"
   viewBox="0 0 32 32"
   height="32"
   width="32"
   xmlns:inkscape="http://www.inkscape.org/namespaces/inkscape"
   xmlns:sodipodi="http://sodipodi.sourceforge.net/DTD/sodipodi-0.dtd"
   xmlns:xlink="http://www.w3.org/1999/xlink"
   xmlns="http://www.w3.org/2000/svg"
   xmlns:svg="http://www.w3.org/2000/svg"
   xmlns:rdf="http://www.w3.org/1999/02/22-rdf-syntax-ns#"
   xmlns:cc="http://creativecommons.org/ns#"
   xmlns:dc="http://purl.org/dc/elements/1.1/">
  <defs
     id="defs1693">
    <linearGradient
       inkscape:collect="always"
       xlink:href="#linearGradient985"
       id="linearGradient1011"
       x1="1"
       y1="1106.5"
       x2="31"
       y2="1106.5"
       gradientUnits="userSpaceOnUse"
       gradientTransform="translate(98.729064,-1008.5809)" />
    <linearGradient
       inkscape:collect="always"
       id="linearGradient985">
      <stop
         style="stop-color:#4e51ac;stop-opacity:1"
         offset="0"
         id="stop980" />
      <stop
         style="stop-color:#4e9fac;stop-opacity:1"
         offset="1"
         id="stop982" />
    </linearGradient>
  </defs>
  <sodipodi:namedview
     inkscape:document-rotation="0"
     inkscape:window-maximized="1"
     inkscape:window-y="0"
     inkscape:window-x="0"
     inkscape:window-height="994"
     inkscape:window-width="1920"
     showgrid="true"
     inkscape:current-layer="layer1"
     inkscape:document-units="px"
     inkscape:cy="27.200048"
     inkscape:cx="-5.0254129"
     inkscape:zoom="7.9595449"
     inkscape:pageshadow="2"
     inkscape:pageopacity="0"
     borderopacity="1"
     bordercolor="#ff1919"
     pagecolor="#000000"
     id="base"
     inkscape:pagecheckerboard="true"
     inkscape:showpageshadow="false"
     inkscape:deskcolor="#000000">
    <inkscape:grid
       type="xygrid"
       id="grid844"
       originx="0"
       originy="0"
       spacingy="1"
       spacingx="1"
       units="mm"
       visible="true" />
  </sodipodi:namedview>
  <metadata
     id="metadata1696">
    <rdf:RDF>
      <cc:Work
         rdf:about="">
        <dc:format>image/svg+xml</dc:format>
        <dc:type
           rdf:resource="http://purl.org/dc/dcmitype/StillImage" />
      </cc:Work>
    </rdf:RDF>
  </metadata>
  <g
     transform="translate(-98.729144,-81.918987)"
     id="layer1"
     inkscape:groupmode="layer"
     inkscape:label="Layer 1">
    <g
       id="system-switch-user"
       transform="matrix(0.96969645,0,0,0.96969645,-175.69495,81.918987)">
      <g
         id="g1729">
        <circle
           style="opacity:0;fill:none;fill-opacity:1;stroke-width:1.06667"
           id="circle955"
           r="16"
           cy="-16"
           cx="299"
           transform="scale(1,-1)" />
      </g>
    </g>
    <circle
       cx="115.21402"
       cy="98.403847"
       r="15.515143"
       id="circle949"
       style="opacity:0;fill:#000000;fill-opacity:1;stroke-width:1.03437" />
    <circle
       style="fill:url(#linearGradient1011);fill-opacity:1;stroke-width:0.999995"
       id="circle1064"
       cy="97.918983"
       cx="114.72914"
       r="15" />
    <path
       id="path1068"
       d="m 115.39601,91.93896 a 0.66499999,0.66499999 0 0 0 -0.66699,0.666 v 1.999999 c 0,0.370001 0.297,0.667002 0.66699,0.667002 h 3.333 l -3.99999,3.332997 v 2.667002 c 0,0.36998 0.297,0.66698 0.66699,0.66698 h 6.666 c 0.37007,0 0.66707,-0.29798 0.66707,-0.66698 v -2.000018 a 0.66499999,0.66499999 0 0 0 -0.66707,-0.666984 h -3.333 l 4.00007,-3.332997 V 92.60496 a 0.66499999,0.66499999 0 0 0 -0.66707,-0.666 z m -7.99989,5.999999 a 0.66499999,0.66499999 0 0 0 -0.66706,0.665999 v 0.666984 c 0,0.370006 0.29799,0.685024 0.66706,0.666984 h 1.33297 l -2.00003,2.000014 v 1.33296 c 0,0.37007 0.297,0.66707 0.66706,0.66707 h 3.33297 c 0.36993,0 0.66693,-0.29808 0.66693,-0.66707 v -0.66697 a 0.66499999,0.66499999 0 0 0 -0.66693,-0.66599 H 109.396 l 2.00002,-2.000014 v -1.333968 a 0.66499999,0.66499999 0 0 0 -0.66693,-0.665999 z"
       inkscape:connector-curvature="0"
       style="fill:#ffffff;fill-opacity:1;stroke-width:2.00003;stroke-linecap:round;stroke-linejoin:round;stroke-opacity:0.528" />
  </g>
</svg>
