<?xml version="1.0" encoding="UTF-8" standalone="no"?>
<svg
   sodipodi:docname="switch_primary.svg"
   inkscape:version="1.3 (0e150ed6c4, 2023-07-21)"
   id="svg1699"
   version="1.1"
   viewBox="0 0 32 32"
   height="32"
   width="32"
   xmlns:inkscape="http://www.inkscape.org/namespaces/inkscape"
   xmlns:sodipodi="http://sodipodi.sourceforge.net/DTD/sodipodi-0.dtd"
   xmlns:xlink="http://www.w3.org/1999/xlink"
   xmlns="http://www.w3.org/2000/svg"
   xmlns:svg="http://www.w3.org/2000/svg"
   xmlns:rdf="http://www.w3.org/1999/02/22-rdf-syntax-ns#"
   xmlns:cc="http://creativecommons.org/ns#"
   xmlns:dc="http://purl.org/dc/elements/1.1/">
  <defs
     id="defs1693">
    <linearGradient
       inkscape:collect="always"
       xlink:href="#linearGradient985"
       id="linearGradient1035"
       x1="1"
       y1="-1106.5"
       x2="31"
       y2="-1106.5"
       gradientUnits="userSpaceOnUse"
       gradientTransform="translate(98.729144,1008.581)" />
    <linearGradient
       inkscape:collect="always"
       id="linearGradient985">
      <stop
         style="stop-color:#4e51ac;stop-opacity:1"
         offset="0"
         id="stop980" />
      <stop
         style="stop-color:#4e9fac;stop-opacity:1"
         offset="1"
         id="stop982" />
    </linearGradient>
  </defs>
  <sodipodi:namedview
     inkscape:document-rotation="0"
     inkscape:window-maximized="1"
     inkscape:window-y="0"
     inkscape:window-x="0"
     inkscape:window-height="994"
     inkscape:window-width="1920"
     showgrid="true"
     inkscape:current-layer="layer1"
     inkscape:document-units="px"
     inkscape:cy="7.3291011"
     inkscape:cx="-2.6651277"
     inkscape:zoom="11.256496"
     inkscape:pageshadow="2"
     inkscape:pageopacity="0"
     borderopacity="1"
     bordercolor="#ff1919"
     pagecolor="#000000"
     id="base"
     inkscape:pagecheckerboard="true"
     inkscape:showpageshadow="false"
     inkscape:deskcolor="#000000">
    <inkscape:grid
       type="xygrid"
       id="grid844"
       originx="0"
       originy="0"
       spacingy="1"
       spacingx="1"
       units="mm"
       visible="true" />
  </sodipodi:namedview>
  <metadata
     id="metadata1696">
    <rdf:RDF>
      <cc:Work
         rdf:about="">
        <dc:format>image/svg+xml</dc:format>
        <dc:type
           rdf:resource="http://purl.org/dc/dcmitype/StillImage" />
      </cc:Work>
    </rdf:RDF>
  </metadata>
  <g
     transform="translate(-98.729144,-81.918987)"
     id="layer1"
     inkscape:groupmode="layer"
     inkscape:label="Layer 1">
    <g
       id="system-switch-user"
       transform="translate(-184.27085,81.918987)">
      <g
         id="g1729">
        <circle
           style="opacity:0;fill:none;fill-opacity:1;stroke-width:1.06667"
           id="circle955"
           r="16"
           cy="-16"
           cx="299"
           transform="scale(1,-1)" />
      </g>
    </g>
    <circle
       style="fill:url(#linearGradient1035);fill-opacity:1"
       id="circle1188"
       r="15"
       cy="-97.918983"
       cx="114.72914"
       transform="scale(1,-1)" />
    <g
       id="g1194"
       style="fill:#ffffff;stroke-width:2;stroke-linecap:round;stroke-linejoin:round"
       transform="translate(98.729144,-1008.581)">
      <path
         id="path1192"
         d="m 14.52,1107.02 a 0.5,0.5 0 0 1 0.48,0.5 v 2 h 7 c 0.277,0 0.5,0.223 0.5,0.5 v 2 c 0,0.276 -0.223,0.5 -0.5,0.5 h -7 v 2 a 0.5,0.5 0 0 1 -0.806,0.394 l -4.5,-3.5 a 0.5,0.5 0 0 1 0,-0.79 l 4.5,-3.499 a 0.503,0.503 0 0 1 0.326,-0.105 z m 2.96,-9 a 0.5,0.5 0 0 0 -0.48,0.5 v 2 h -7 c -0.277,0 -0.5,0.223 -0.5,0.5 v 2 c 0,0.277 0.223,0.5 0.5,0.5 h 7 v 2 a 0.5,0.5 0 0 0 0.806,0.394 l 4.5,-3.5 a 0.5,0.5 0 0 0 0,-0.789 l -4.5,-3.5 a 0.503,0.503 0 0 0 -0.326,-0.105 z"
         inkscape:connector-curvature="0"
         style="fill:#ffffff;fill-opacity:1" />
    </g>
  </g>
</svg>
