<?xml version="1.0" encoding="UTF-8" standalone="no"?>
<svg
   width="32"
   height="32"
   version="1.1"
   id="svg1"
   sodipodi:docname="user-desktop-symbolic.svg"
   inkscape:version="1.3.2 (091e20ef0f, 2023-11-25)"
   xmlns:inkscape="http://www.inkscape.org/namespaces/inkscape"
   xmlns:sodipodi="http://sodipodi.sourceforge.net/DTD/sodipodi-0.dtd"
   xmlns="http://www.w3.org/2000/svg"
   xmlns:svg="http://www.w3.org/2000/svg">
  <defs
     id="defs1" />
  <sodipodi:namedview
     id="namedview1"
     pagecolor="#ffffff"
     bordercolor="#999999"
     borderopacity="1"
     inkscape:showpageshadow="2"
     inkscape:pageopacity="0"
     inkscape:pagecheckerboard="0"
     inkscape:deskcolor="#d1d1d1"
     showgrid="true"
     inkscape:zoom="11.90625"
     inkscape:cx="24.608924"
     inkscape:cy="8.0209974"
     inkscape:window-width="1920"
     inkscape:window-height="994"
     inkscape:window-x="0"
     inkscape:window-y="0"
     inkscape:window-maximized="1"
     inkscape:current-layer="svg1">
    <inkscape:grid
       id="grid1"
       units="px"
       originx="0"
       originy="0"
       spacingx="1"
       spacingy="1"
       empcolor="#0099e5"
       empopacity="0.30196078"
       color="#0099e5"
       opacity="0.14901961"
       empspacing="5"
       dotted="false"
       gridanglex="30"
       gridanglez="30"
       visible="true" />
  </sodipodi:namedview>
  <style
     type="text/css"
     id="current-color-scheme">.ColorScheme-Text{color:#232629;}.ColorScheme-Background { color: #eff0f1; } </style>
  <g
     id="32-32-user-desktop"
     transform="translate(-260) translate(260,0)">
    <path
       id="rect844"
       d="m0 0h32v32h-32z"
       fill="none" />
  </g>
  <path
     d="M 7,4 C 5.338,4 4,5.338 4,7 v 18 c 0,1.662 1.338,3 3,3 h 18 c 1.662,0 3,-1.338 3,-3 V 7 C 28,5.338 26.662,4 25,4 Z m 0,1 h 18 c 1,0 2,1.168999 2,2 v 18 c 0,1 -1,2 -2,2 H 7 C 6,27 5,26 5,25 V 7 C 5,6 6,5 7,5 Z"
     style="color:#eff0f1;fill:#d3dae3;fill-opacity:1;stroke:none;stroke-width:1.5"
     id="path1"
     sodipodi:nodetypes="ssssssssssssssssss" />
  <path
     d="M 7.3460712,24 H 24.600408 c 0.536459,0 0.536459,1 -0.02236,1 H 7.3886706 C 6.8777748,25 6.8777748,24 7.3460712,24 Z"
     id="path8-6-7-36-2-9-3"
     style="color:#d6dbf1;fill:#d3dae3;fill-opacity:1;stroke-width:0.267595"
     sodipodi:nodetypes="ccccc"
     class="ColorScheme-Text" />
</svg>
