<?xml version="1.0" encoding="UTF-8" standalone="no"?>
<svg
   viewBox="0 0 22 22"
   version="1.1"
   id="svg1"
   sodipodi:docname="configure.svg"
   inkscape:version="1.3.2 (091e20ef0f, 2023-11-25)"
   xmlns:inkscape="http://www.inkscape.org/namespaces/inkscape"
   xmlns:sodipodi="http://sodipodi.sourceforge.net/DTD/sodipodi-0.dtd"
   xmlns="http://www.w3.org/2000/svg"
   xmlns:svg="http://www.w3.org/2000/svg">
  <sodipodi:namedview
     id="namedview1"
     pagecolor="#ffffff"
     bordercolor="#999999"
     borderopacity="1"
     inkscape:showpageshadow="2"
     inkscape:pageopacity="0"
     inkscape:pagecheckerboard="0"
     inkscape:deskcolor="#d1d1d1"
     inkscape:zoom="34.636364"
     inkscape:cx="11"
     inkscape:cy="11"
     inkscape:window-width="1920"
     inkscape:window-height="994"
     inkscape:window-x="0"
     inkscape:window-y="0"
     inkscape:window-maximized="1"
     inkscape:current-layer="svg1" />
  <defs
     id="defs3051">
    <style
       type="text/css"
       id="current-color-scheme">.ColorScheme-Text { color: #fcfcfc; } </style>
  </defs>
  <path
     style="fill:#058bce;fill-opacity:1;stroke:none"
     d="M 11.5 3 C 10.286139 3 9.2809778 3.8559279 9.0507812 5 L 3 5 L 3 6 L 9.0507812 6 C 9.2809778 7.1440721 10.286139 8 11.5 8 C 12.713861 8 13.719022 7.1440721 13.949219 6 L 19 6 L 19 5 L 13.949219 5 C 13.719022 3.8559279 12.713861 3 11.5 3 z M 5.5 14 C 4.1149999 14 3 15.115 3 16.5 C 3 17.885 4.1149999 19 5.5 19 C 6.7138604 19 7.7190223 18.144072 7.9492188 17 L 19 17 L 19 16 L 7.9492188 16 C 7.7190223 14.855928 6.7138604 14 5.5 14 z M 5.5 15 C 6.3310001 15 7 15.669 7 16.5 C 7 17.331 6.3310001 18 5.5 18 C 4.6689999 18 4 17.331 4 16.5 C 4 15.669 4.6689999 15 5.5 15 z "
     id="path1" />
</svg>
