<?xml version="1.0" encoding="UTF-8" standalone="no"?>
<svg
   height="24"
   width="24"
   inkscape:version="1.3 (0e150ed6c4, 2023-07-21)"
   sodipodi:docname="busywidget.svg"
   id="svg14"
   xml:space="preserve"
   enable-background="new 0 0 1000 1000"
   viewBox="0 0 24 24"
   y="0px"
   x="0px"
   version="1.1"
   xmlns:inkscape="http://www.inkscape.org/namespaces/inkscape"
   xmlns:sodipodi="http://sodipodi.sourceforge.net/DTD/sodipodi-0.dtd"
   xmlns:xlink="http://www.w3.org/1999/xlink"
   xmlns="http://www.w3.org/2000/svg"
   xmlns:svg="http://www.w3.org/2000/svg"
   xmlns:rdf="http://www.w3.org/1999/02/22-rdf-syntax-ns#"
   xmlns:cc="http://creativecommons.org/ns#"
   xmlns:dc="http://purl.org/dc/elements/1.1/"><metadata
   id="metadata14"><rdf:RDF><cc:Work
       rdf:about=""><dc:format>image/svg+xml</dc:format><dc:type
         rdf:resource="http://purl.org/dc/dcmitype/StillImage" /></cc:Work></rdf:RDF></metadata><defs
   id="defs18"><linearGradient
     inkscape:collect="always"
     id="linearGradient844"><stop
       style="stop-color:#008080;stop-opacity:1"
       offset="0"
       id="stop840" /><stop
       style="stop-color:#4e51ac;stop-opacity:1;"
       offset="1"
       id="stop842" /></linearGradient><linearGradient
     inkscape:collect="always"
     id="linearGradient845"><stop
       style="stop-color:#008080;stop-opacity:1"
       offset="0"
       id="stop841" /><stop
       style="stop-color:#4e51ac;stop-opacity:1;"
       offset="1"
       id="stop843" /></linearGradient><linearGradient
     gradientUnits="userSpaceOnUse"
     y2="-3558.5764"
     x2="8237.917"
     y1="3933.541"
     x1="1879.6357"
     id="linearGradient834"
     xlink:href="#linearGradient845"
     inkscape:collect="always"
     gradientTransform="matrix(0.00244897,0,0,-0.00244851,-0.24483529,12.293776)" /><radialGradient
     inkscape:collect="always"
     xlink:href="#linearGradient844"
     id="radialGradient838"
     cx="5911.0825"
     cy="1091.5413"
     fx="5911.0825"
     fy="1091.5413"
     r="762.36499"
     gradientTransform="matrix(0.00244897,0,0,-0.00244611,-0.24483529,12.29116)"
     gradientUnits="userSpaceOnUse" /></defs><sodipodi:namedview
   inkscape:document-rotation="0"
   inkscape:lockguides="true"
   inkscape:current-layer="svg14"
   inkscape:window-maximized="1"
   inkscape:window-y="0"
   inkscape:window-x="0"
   inkscape:cy="13.025966"
   inkscape:cx="2.6606228"
   inkscape:zoom="9.0204445"
   showgrid="true"
   id="namedview16"
   inkscape:window-height="994"
   inkscape:window-width="1920"
   inkscape:pageshadow="2"
   inkscape:pageopacity="0"
   guidetolerance="10"
   gridtolerance="10"
   objecttolerance="10"
   borderopacity="1"
   bordercolor="#008080"
   pagecolor="#000000"
   inkscape:pagecheckerboard="true"
   inkscape:showpageshadow="false"
   inkscape:deskcolor="#000000"><inkscape:grid
     type="xygrid"
     id="grid535"
     originx="0"
     originy="0"
     spacingy="1"
     spacingx="1"
     units="px"
     visible="true" /></sodipodi:namedview>&#10;<g
   id="busywidget"
   transform="matrix(0.75000123,0,0,0.75000123,3.0000002,2.9999852)"><path
     inkscape:connector-curvature="0"
     style="fill:url(#linearGradient834);fill-opacity:1;stroke-width:1.33346;stroke-dasharray:none"
     id="path4"
     d="M 11.058631,0.02159903 C 10.983447,0.03090337 10.715775,0.06395825 10.471368,0.09211612 7.9019083,0.38324396 5.2148984,1.7264965 3.3781709,3.6380483 1.4804641,5.6152201 0.32014209,8.1183319 0.03826564,10.832995 c -0.07983642,0.765649 -0.02816315,2.367219 0.09404045,3.090509 0.44620233,2.615988 1.60652431,4.832624 3.48561901,6.664355 1.9119109,1.86454 4.2087998,2.977633 6.8769529,3.334626 0.756242,0.103327 2.250113,0.103327 3.006355,0 2.766847,-0.37095 5.167082,-1.573413 7.093197,-3.550585 1.657953,-1.700245 2.714928,-3.686966 3.170681,-5.960163 0.183183,-0.915743 0.234857,-1.441683 0.234857,-2.404682 0,-1.89735 -0.403835,-3.6399545 -1.230853,-5.3024928 C 20.913531,2.961525 17.296647,0.44886402 13.17699,0.04485987 12.702624,-0.00190667 11.39218,-0.01610802 11.058631,0.02159903 Z m 1.92587,1.14590267 c 3.772148,0.3523406 7.111809,2.6534503 8.756047,6.0257831 0.784405,1.6015704 1.132159,3.0763082 1.132159,4.7998142 0,1.221072 -0.173877,2.277849 -0.568406,3.470763 -1.324893,3.987398 -4.880797,6.866356 -9.084944,7.350182 -0.544896,0.06587 -1.897707,0.06587 -2.442603,0 C 7.0893401,22.386534 3.8574344,20.10893 2.2273999,16.783609 0.18397936,12.617714 1.0296087,7.5877398 4.3178407,4.3143268 6.6147297,2.0222765 9.7903091,0.8717217 12.984501,1.1675017 Z" /><path
     inkscape:connector-curvature="0"
     style="fill:url(#radialGradient838);fill-opacity:1;stroke-width:1.33346;stroke-dasharray:none"
     id="path8"
     d="m 13.660906,7.8272041 c -1.329301,0.4414663 -1.738034,2.1228581 -0.746936,3.1091179 1.202445,1.207115 3.288232,0.286476 3.180233,-1.4088726 C 16.061387,8.9919603 15.920326,8.6726746 15.549307,8.3017253 15.319104,8.0715654 15.168737,7.9635861 14.957391,7.8837646 14.572168,7.7380783 14.013313,7.7145726 13.660906,7.8272041 Z" /></g>&#10;<g
   id="22-22-busywidget"
   transform="matrix(1.717967,0,0,1.717967,-58.181814,-467.23616)"><rect
     y="279.53748"
     x="51.329166"
     height="5.8208337"
     width="5.8208337"
     id="rect3007"
     style="fill:none;stroke:none" /><path
     sodipodi:nodetypes="sccccccccccccccccsssss"
     inkscape:connector-curvature="0"
     id="path3009"
     transform="matrix(0.26458334,0,0,0.26458334,-0.52916714,249.37498)"
     d="m 206.90625,115 c -5.68285,0 -9.90626,4.76331 -9.90625,10 0,5.11064 3.86041,9.24196 8.53125,9.90625 0.007,0.001 0.0245,-0.001 0.0313,0 0.1869,0.0265 0.37435,0.0459 0.5625,0.0625 0.0726,0.008 0.11478,-0.004 0.1875,0 h 0.0313 c 0.0253,0.002 0.0371,0 0.0625,0 0.16207,0.008 0.3377,0.0313 0.5,0.0313 0.0253,-1.1e-4 0.0373,0 0.0625,0 0.22673,-0.003 0.46154,-0.0123 0.6875,-0.0313 0.0336,-0.003 0.06,0.002 0.0937,0 2.08268,-0.2143 4.08105,-1.19024 5.5625,-2.6875 2.29078,-2.85585 2.42433,-5.2927 1.42433,-9.29269 1.22819,5.24703 -2.45297,9.87167 -7.86188,10.0102 -4.24948,0 -7.87455,-3.58819 -7.87457,-7.99871 0.0682,-4.85133 3.99957,-7.98861 7.93707,-8.00652 h 0.15625 c 0.16789,0 0.31534,-0.15426 0.3125,-0.32394 -0.006,-0.3677 -0.0216,-0.97956 -0.0313,-1.32579 C 207.36994,115.1624 207.24222,115 207.0625,115 Z"
     style="color:#3daee9;fill:#4e51ac;fill-opacity:1;stroke:none;stop-color:#3daee9"
     class="ColorScheme-ButtonFocus" /></g><g
   id="16-16-busywidget"
   transform="matrix(1.717967,0,0,1.717967,-58.181814,-467.23616)"><rect
     style="fill:none;stroke:none"
     id="rect3792"
     width="4.2333336"
     height="4.2333336"
     x="58.472801"
     y="281.12497" /><path
     style="color:#3daee9;fill:#4e51ac;fill-opacity:1;stroke:none;stop-color:#3daee9"
     d="m 60.57642,281.3808 c -1.05492,0 -1.838921,0.88423 -1.838919,1.85633 0,0.9487 0.716617,1.71561 1.583674,1.83892 0.0013,1.8e-4 0.0045,-1.8e-4 0.0058,0 0.03469,0.005 0.06949,0.008 0.104418,0.0115 0.01348,9.5e-4 0.02132,-7.1e-4 0.03481,0 h 0.0058 c 0.0047,3.7e-4 0.0068,0 0.0116,0 0.03009,9.5e-4 0.06269,0.006 0.09281,0.006 0.0047,-10e-6 0.007,0 0.01161,0 0.04209,-5.5e-4 0.08568,-0.002 0.127622,-0.006 0.0062,-5.5e-4 0.01115,3.7e-4 0.01739,0 0.386612,-0.0397 0.757573,-0.22096 1.032578,-0.49889 0.425244,-0.53014 0.450034,-0.98249 0.264402,-1.72502 0.227992,0.97402 -0.455349,1.8325 -1.459418,1.85821 -0.788838,0 -1.461768,-0.66608 -1.461773,-1.48481 0.01267,-0.90056 0.74245,-1.48294 1.473376,-1.48626 h 0.029 c 0.03117,0 0.05855,-0.0288 0.05801,-0.0601 -0.0011,-0.0683 -0.0039,-0.18183 -0.0058,-0.2461 -9.11e-4,-0.0337 -0.02464,-0.0638 -0.058,-0.0638 z"
     id="path3794"
     inkscape:connector-curvature="0"
     sodipodi:nodetypes="sccccccccccccccccsssss"
     class="ColorScheme-ButtonFocus" /></g><g
   id="stopped"
   transform="matrix(0.66697545,0,0,0.66697545,-4.4117627,-166.32698)"><rect
     style="opacity:1;fill:none;fill-opacity:1;stroke:none;stroke-width:0.0264583;stroke-linecap:square;stroke-linejoin:miter;stroke-miterlimit:4;stroke-dasharray:none;stroke-dashoffset:0;stroke-opacity:1"
     id="rect4234"
     width="35.983334"
     height="35.983334"
     x="-42.862503"
     y="249.37497" /><ellipse
     ry="1.3229166"
     rx="1.322917"
     cy="38.364582"
     cx="267.36664"
     id="ellipse4238"
     style="opacity:0.9;fill:#008080;fill-opacity:1;stroke:none;stroke-width:0.0132292;stroke-linecap:square;stroke-linejoin:miter;stroke-miterlimit:4;stroke-dasharray:none;stroke-dashoffset:0;stroke-opacity:1"
     transform="rotate(90)" /><ellipse
     transform="rotate(90)"
     style="opacity:0.9;fill:#008080;fill-opacity:1;stroke:none;stroke-width:0.0105833;stroke-linecap:square;stroke-linejoin:miter;stroke-miterlimit:4;stroke-dasharray:none;stroke-dashoffset:0;stroke-opacity:1"
     id="ellipse4261"
     cx="267.36664"
     cy="11.377067"
     rx="1.0583339"
     ry="1.0583336" /><ellipse
     ry="2.1166663"
     rx="2.116667"
     cy="24.870825"
     cx="267.36664"
     id="ellipse4263"
     style="opacity:0.9;fill:#008080;fill-opacity:1;stroke:none;stroke-width:0.0211667;stroke-linecap:square;stroke-linejoin:miter;stroke-miterlimit:4;stroke-dasharray:none;stroke-dashoffset:0;stroke-opacity:1"
     transform="rotate(90)" /></g><rect
   style="fill:#008080;fill-opacity:1;fill-rule:nonzero;stroke:none;stroke-width:0.28571"
   id="hint-rotation-angle"
   width="3.9999952"
   height="4"
   x="0"
   y="40" /></svg>
