<?xml version="1.0" encoding="UTF-8" standalone="no"?>
<svg
   width="124.00004"
   height="52.001369"
   viewBox="0 0 32.808341 13.758696"
   id="svg2"
   version="1.1"
   inkscape:version="1.3.2 (091e20ef0f, 2023-11-25)"
   sodipodi:docname="configuration-icons.svg"
   xmlns:inkscape="http://www.inkscape.org/namespaces/inkscape"
   xmlns:sodipodi="http://sodipodi.sourceforge.net/DTD/sodipodi-0.dtd"
   xmlns="http://www.w3.org/2000/svg"
   xmlns:svg="http://www.w3.org/2000/svg"
   xmlns:rdf="http://www.w3.org/1999/02/22-rdf-syntax-ns#"
   xmlns:cc="http://creativecommons.org/ns#"
   xmlns:dc="http://purl.org/dc/elements/1.1/">
  <style
     type="text/css"
     id="current-color-scheme">.ColorScheme-Text { color:#d1d5e9; }
</style>
  <defs
     id="defs4">
    <style
       type="text/css"
       id="style3" />
    <inkscape:perspective
       id="perspective4146"
       inkscape:persp3d-origin="11.999999 : 13.291992 : 1"
       inkscape:vp_z="23.999998 : 17.291991 : 1"
       inkscape:vp_y="0 : 999.99999 : 0"
       inkscape:vp_x="0 : 17.291991 : 1"
       sodipodi:type="inkscape:persp3d" />
    <inkscape:perspective
       id="perspective4090"
       inkscape:persp3d-origin="11.999999 : 13.291992 : 1"
       inkscape:vp_z="23.999998 : 17.291991 : 1"
       inkscape:vp_y="0 : 999.99999 : 0"
       inkscape:vp_x="0 : 17.291991 : 1"
       sodipodi:type="inkscape:persp3d" />
  </defs>
  <sodipodi:namedview
     id="base"
     pagecolor="#000000"
     bordercolor="#006666"
     borderopacity="1"
     inkscape:pageopacity="1"
     inkscape:pageshadow="2"
     inkscape:zoom="5.6496641"
     inkscape:cx="60.534572"
     inkscape:cy="45.666432"
     inkscape:document-units="px"
     inkscape:current-layer="layer1"
     showgrid="true"
     units="px"
     inkscape:showpageshadow="false"
     borderlayer="true"
     inkscape:window-width="1920"
     inkscape:window-height="990"
     inkscape:window-x="0"
     inkscape:window-y="0"
     inkscape:window-maximized="1"
     fit-margin-top="0"
     fit-margin-left="0"
     fit-margin-right="0"
     fit-margin-bottom="0"
     showguides="false"
     inkscape:lockguides="false"
     inkscape:document-rotation="0"
     inkscape:pagecheckerboard="true"
     inkscape:deskcolor="#000000">
    <sodipodi:guide
       position="1.1111315e-06,-0.00071751055"
       orientation="16.000015,0"
       id="guide4136"
       inkscape:locked="false" />
    <sodipodi:guide
       position="1.1111315e-06,-4.2340555"
       orientation="0,16"
       id="guide4138"
       inkscape:locked="false" />
    <sodipodi:guide
       position="4.2333343,-4.2340555"
       orientation="-16.000015,0"
       id="guide4140"
       inkscape:locked="false" />
    <sodipodi:guide
       position="4.2333343,-0.00071751055"
       orientation="0,-16"
       id="guide4142"
       inkscape:locked="false" />
    <sodipodi:guide
       position="4.7624956,-5.2922501"
       orientation="0,16.000023"
       id="guide1"
       inkscape:locked="false" />
    <sodipodi:guide
       position="8.9958348,-5.2922501"
       orientation="16.000341,0"
       id="guide2"
       inkscape:locked="false" />
    <sodipodi:guide
       position="8.9958348,-9.5256736"
       orientation="0,-16.000023"
       id="guide3"
       inkscape:locked="false" />
    <sodipodi:guide
       position="4.7624956,-9.5256736"
       orientation="-16.000341,0"
       id="guide4"
       inkscape:locked="false" />
    <inkscape:grid
       id="grid1"
       units="px"
       originx="6.5566179e-09"
       originy="0.0015118111"
       spacingx="0.26458331"
       spacingy="0.26458334"
       empcolor="#0099e5"
       empopacity="0.30196078"
       color="#0099e5"
       opacity="0.14902"
       empspacing="5"
       dotted="false"
       gridanglex="30"
       gridanglez="30"
       visible="true" />
  </sodipodi:namedview>
  <metadata
     id="metadata7">
    <rdf:RDF>
      <cc:Work
         rdf:about="">
        <dc:format>image/svg+xml</dc:format>
        <dc:type
           rdf:resource="http://purl.org/dc/dcmitype/StillImage" />
      </cc:Work>
    </rdf:RDF>
  </metadata>
  <g
     inkscape:label="Capa 1"
     inkscape:groupmode="layer"
     id="layer1"
     transform="translate(0.52916771,-249.37457)">
    <g
       id="rotate">
      <rect
         y="249.37497"
         x="8.9958344"
         height="4.2333322"
         width="4.2333336"
         id="rect4176"
         style="opacity:1;fill:none;fill-opacity:1;stroke:none" />
      <rect
         style="opacity:1;fill:none;fill-opacity:1;stroke:none"
         id="rect4178"
         width="3.1750002"
         height="3.1749992"
         x="9.5250006"
         y="249.90414" />
      <path
         style="text-decoration:none;text-decoration-line:none;display:inline;overflow:visible;visibility:visible;fill:#d3dae3;fill-opacity:1;fill-rule:nonzero;stroke:none;enable-background:accumulate"
         d="M 44.171875,1.671875 43.464844,2.3789062 44.414062,3.328125 45.085938,4 H 41 v 1 h 4.085938 L 44.414062,5.671875 43.464844,6.6210938 44.171875,7.328125 45.121094,6.3789062 47,4.5 45.121094,2.6210938 Z M 39.5,5 C 39.22386,5 39,5.2237543 39,5.5 39,5.7762835 39.223861,6 39.5,6 39.77614,6 40,5.7762457 40,5.5 40,5.2237165 39.776139,5 39.5,5 Z M 46.46875,6.5625 42.5625,10.46875 46.09375,14 50,10.09375 Z M 38.5,8 C 38.22386,8 38,8.2237543 38,8.5 38,8.7762835 38.223862,9 38.5,9 38.77614,9 39,8.7762457 39,8.5 39,8.2237165 38.776139,8 38.5,8 Z m 1,3 C 39.22386,11 39,11.223754 39,11.5 39,11.776283 39.223861,12 39.5,12 39.77614,12 40,11.776246 40,11.5 40,11.223717 39.776139,11 39.5,11 Z m 3,1 C 42.223868,12 42,12.223754 42,12.5 42,12.776283 42.22386,13 42.5,13 42.776132,13 43,12.776246 43,12.5 43,12.223717 42.77614,12 42.5,12 Z"
         transform="matrix(0.26458333,0,0,0.26458333,-0.52916771,249.37493)"
         id="rect4144-9"
         class="ColorScheme-Text"
         inkscape:connector-curvature="0" />
    </g>
    <g
       id="move">
      <rect
         style="opacity:1;fill:none;fill-opacity:1;stroke:none"
         id="rect4213"
         width="4.2333336"
         height="4.2333322"
         x="13.758335"
         y="249.37497" />
      <rect
         y="249.90414"
         x="14.287501"
         height="3.1749992"
         width="3.1750002"
         id="rect4215"
         style="opacity:1;fill:none;fill-opacity:1;stroke:none" />
      <path
         id="path4404"
         d="m 15.875001,249.90414 -0.529166,0.79375 h 1.058333 z m -0.79375,1.05833 -0.79375,0.52917 0.79375,0.52916 z m 1.5875,0 v 1.05833 l 0.79375,-0.52916 z m -0.79375,0.26458 c -0.146125,0 -0.264583,0.11846 -0.264583,0.26459 0,0.14612 0.118458,0.26458 0.264583,0.26458 0.146126,0 0.264584,-0.11846 0.264584,-0.26458 0,-0.14613 -0.118458,-0.26459 -0.264584,-0.26459 z m -0.529166,1.05834 0.529166,0.79375 0.529167,-0.79375 z"
         style="fill:#d3dae3;fill-opacity:1;stroke:none"
         inkscape:connector-curvature="0"
         class="ColorScheme-Text" />
    </g>
    <g
       id="size-vertical">
      <rect
         y="249.37497"
         x="18.520834"
         height="4.2333322"
         width="4.2333336"
         id="rect4257"
         style="opacity:1;fill:none;fill-opacity:1;stroke:none" />
      <rect
         style="opacity:1;fill:none;fill-opacity:1;stroke:none"
         id="rect4259"
         width="3.1750002"
         height="3.1749992"
         x="19.050001"
         y="249.90414" />
      <path
         sodipodi:nodetypes="ccccssssscccc"
         inkscape:connector-curvature="0"
         style="fill:#d3dae3;fill-opacity:1;stroke:none"
         d="m 20.637501,249.90414 -0.529166,0.79375 h 1.058333 z m 0,1.32291 c -0.146125,0 -0.264583,0.11846 -0.264583,0.26459 0,0.14612 0.118458,0.26458 0.264583,0.26458 0.146126,0 0.264584,-0.11846 0.264584,-0.26458 0,-0.14613 -0.118458,-0.26459 -0.264584,-0.26459 z m -0.529166,1.05834 0.529166,0.79375 0.529167,-0.79375 z"
         id="path4263"
         class="ColorScheme-Text" />
    </g>
    <g
       id="size-horizontal">
      <rect
         style="opacity:1;fill:none;fill-opacity:1;stroke:none"
         id="rect4265"
         width="4.2333336"
         height="4.2333322"
         x="23.283333"
         y="249.37497" />
      <rect
         y="249.90414"
         x="23.8125"
         height="3.1749992"
         width="3.1750002"
         id="rect4267"
         style="opacity:1;fill:none;fill-opacity:1;stroke:none" />
      <path
         id="path4269"
         d="m 26.987502,251.49164 -0.79375,-0.52917 v 1.05834 z m -1.32291,0 c 0,-0.14613 -0.11846,-0.26458 -0.26459,-0.26458 -0.14612,0 -0.26458,0.11845 -0.26458,0.26458 0,0.14613 0.11846,0.26458 0.26458,0.26458 0.14613,0 0.26459,-0.11845 0.26459,-0.26458 z m -1.05834,-0.52917 -0.79375,0.52917 0.79375,0.52917 z"
         style="fill:#d3dae3;fill-opacity:1;stroke:none"
         inkscape:connector-curvature="0"
         sodipodi:nodetypes="ccccssssscccc"
         class="ColorScheme-Text" />
    </g>
    <g
       id="size-diagonal-tr2bl">
      <rect
         y="249.37497"
         x="28.045832"
         height="4.2333322"
         width="4.2333336"
         id="rect4271"
         style="opacity:1;fill:none;fill-opacity:1;stroke:none" />
      <rect
         style="opacity:1;fill:none;fill-opacity:1;stroke:none"
         id="rect4273"
         width="3.1750002"
         height="3.1749992"
         x="28.574999"
         y="249.90414" />
      <path
         inkscape:connector-curvature="0"
         id="rect3354"
         d="m 29.368751,253.07915 v -0.26458 h -0.606682 l 0.871265,-0.87127 -0.187068,-0.18706 -0.871265,0.87126 v -0.60668 h -0.264584 v 1.05833 h 0.264584 z"
         style="fill:#d3dae3;fill-opacity:1;stroke:none"
         class="ColorScheme-Text" />
      <path
         inkscape:connector-curvature="0"
         id="rect3378"
         transform="matrix(0.26458334,0,0,0.26458334,-0.52916664,249.37498)"
         d="m 109,2 v 1 1 3 1 h 1 V 7 4 3 h 1 4 2 V 2 h -2 -4 -1 z m 13,6 v 1 3 1 h -2 -3 -2 v 1 h 2 3 2 1 V 12 9 8 Z"
         style="fill:#d3dae3;fill-opacity:1;stroke:none"
         class="ColorScheme-Text" />
      <path
         style="fill:#d3dae3;fill-opacity:1;stroke:none"
         d="m 30.95625,249.90415 v 0.26458 h 0.606682 L 30.691667,251.04 30.878735,251.22706 31.75,250.3558 v 0.60668 h 0.264584 v -1.05833 H 31.75 Z"
         id="path4303"
         inkscape:connector-curvature="0"
         class="ColorScheme-Text" />
    </g>
    <g
       id="size-diagonal-tl2br">
      <rect
         style="opacity:1;fill:none;fill-opacity:1;stroke:none"
         id="rect4308"
         width="4.2333336"
         height="4.2333322"
         x="-0.52916676"
         y="254.13741" />
      <rect
         y="254.66658"
         x="8.4756147e-07"
         height="3.1749992"
         width="3.1750002"
         id="rect4310"
         style="opacity:1;fill:none;fill-opacity:1;stroke:none" />
      <path
         style="fill:#d3dae3;fill-opacity:1;stroke:none"
         d="m 2.3812496,257.84168 v -0.26458 h 0.6066819 l -0.8712649,-0.87127 0.187068,-0.18706 0.8712649,0.87126 v -0.60668 h 0.264584 v 1.05833 h -0.264584 z"
         id="path4312"
         inkscape:connector-curvature="0"
         class="ColorScheme-Text" />
      <path
         style="fill:#d3dae3;fill-opacity:1;stroke:none"
         d="m 3.4395835,254.66667 v 0.26459 0.26458 0.79375 0.26458 h -0.264584 v -0.26458 -0.79375 -0.26458 H 2.9104166 1.8520836 1.3229166 v -0.26459 h 0.529167 1.058333 0.2645829 z M -4e-7,256.25417 v 0.26459 0.79375 0.26458 h 0.529167 0.79375 0.529167 v 0.26458 H 1.3229166 0.5291666 -4e-7 -0.2645834 v -0.52916 -0.79375 -0.26459 z"
         id="path4314"
         inkscape:connector-curvature="0"
         class="ColorScheme-Text" />
      <path
         inkscape:connector-curvature="0"
         id="path4316"
         d="m 0.7937506,254.66668 v 0.26458 h -0.606682 l 0.871265,0.87127 -0.187068,0.18706 L 6e-7,255.11833 v 0.60668 h -0.264584 v -1.05833 H 6e-7 Z"
         style="fill:#d3dae3;fill-opacity:1;stroke:none"
         class="ColorScheme-Text" />
    </g>
    <g
       id="maximize">
      <rect
         y="254.13741"
         x="4.2333331"
         height="4.2333322"
         width="4.2333336"
         id="rect4318"
         style="opacity:1;fill:none;fill-opacity:1;stroke:none" />
      <rect
         style="opacity:1;fill:none;fill-opacity:1;stroke:none"
         id="rect4320"
         width="3.1750002"
         height="3.1749992"
         x="4.7625008"
         y="254.66658" />
      <path
         inkscape:connector-curvature="0"
         id="path4322"
         d="m 7.1437499,254.66667 v 0.26458 h 0.6066819 l -0.8712649,0.87127 0.187068,0.18706 0.8712649,-0.87126 v 0.60668 h 0.264584 v -1.05833 h -0.264584 z"
         style="fill:#d3dae3;fill-opacity:1;stroke:none"
         class="ColorScheme-Text" />
      <path
         id="path4324"
         transform="matrix(0.26458333,0,0,0.26458334,-0.52916771,249.37497)"
         d="m 19,20 v 2 3 1 5 1 h 1 5 2 4 1 1 v -1 -1 -3 -1 h -1 v 1 3 1 h -1 -4 -2 -5 v -5 -1 -3 -1 h 2 3 2 v -1 h -2 -3 -2 z"
         style="fill:#d3dae3;fill-opacity:1;stroke:none"
         inkscape:connector-curvature="0"
         class="ColorScheme-Text" />
    </g>
    <g
       id="unmaximize">
      <rect
         style="opacity:1;fill:none;fill-opacity:1;stroke:none"
         id="rect4333"
         width="4.2333336"
         height="4.2333322"
         x="8.9958324"
         y="254.13741" />
      <rect
         y="254.66658"
         x="9.5249996"
         height="3.1749992"
         width="3.1750002"
         id="rect4335"
         style="opacity:1;fill:none;fill-opacity:1;stroke:none" />
      <path
         style="fill:#d3dae3;fill-opacity:1;stroke:none"
         d="M 12.700003,255.98958 V 255.725 h -0.606682 l 0.871265,-0.87127 -0.187068,-0.18706 -0.871266,0.87126 v -0.60668 h -0.264584 v 1.05833 h 0.264584 z"
         id="path4337"
         inkscape:connector-curvature="0"
         class="ColorScheme-Text" />
      <path
         inkscape:connector-curvature="0"
         style="fill:#d3dae3;fill-opacity:1;stroke:none"
         d="m 9.2604158,254.66664 v 0.52916 0.79375 0.26459 1.32291 0.26459 h 0.2645833 1.3229169 0.529167 1.058334 0.264584 0.264583 v -0.26459 -0.26458 -0.79375 -0.26458 h -0.264583 v 0.26458 0.79375 0.26458 H 12.435417 11.377083 10.847916 9.5249991 v -1.32291 -0.26459 -0.79375 -0.26458 h 0.5291669 0.79375 0.529167 v -0.26458 h -0.529167 -0.79375 -0.5291669 z"
         id="path4339"
         class="ColorScheme-Text" />
    </g>
    <g
       id="status">
      <rect
         y="254.13741"
         x="13.758333"
         height="4.2333322"
         width="4.2333336"
         id="rect4341"
         style="opacity:1;fill:none;fill-opacity:1;stroke:none" />
      <rect
         style="opacity:1;fill:none;fill-opacity:1;stroke:none"
         id="rect4343"
         width="3.1750002"
         height="3.1749992"
         x="14.2875"
         y="254.66658" />
      <g
         inkscape:label="Capa 1"
         id="layer1-70"
         transform="matrix(0.26458333,0,0,0.26458334,-97.820237,113.43444)">
        <path
           sodipodi:nodetypes="cccccccccccccccccccccccccccccccc"
           inkscape:connector-curvature="0"
           id="rect4083"
           transform="translate(367.71428,513.79097)"
           d="m 56,20 v 3 3 1 5 H 57 60.970703 68 V 31 21 20 H 63.148438 57 Z m 1,3 h 7.345703 L 62.628906,29.408203 60.662109,26 H 60.369141 57.505859 57 Z m 8.382812,0 H 67 v 8 H 63.238281 Z M 57,27 h 3.083984 l 2.308594,4 H 57 Z"
           style="fill:#d3dae3;fill-opacity:1;stroke:none"
           class="ColorScheme-Text" />
      </g>
    </g>
    <g
       id="collapse">
      <rect
         y="254.13741"
         x="23.283337"
         height="4.2333322"
         width="4.2333336"
         id="rect4397"
         style="opacity:1;fill:none;fill-opacity:1;stroke:none" />
      <rect
         style="opacity:1;fill:none;fill-opacity:1;stroke:none"
         id="rect4399"
         width="3.1750002"
         height="3.1749992"
         x="23.812504"
         y="254.66658" />
      <path
         inkscape:connector-curvature="0"
         style="opacity:1;fill:#d3dae3;fill-opacity:1;stroke:none"
         d="m 24.870835,254.66664 0.529166,0.52916 0.529167,-0.52916 z m -1.058334,1.32291 v 0.52917 h 3.175 v -0.52917 z m 1.5875,1.32292 -0.529166,0.52917 h 1.058333 z"
         id="path4401"
         class="ColorScheme-Text" />
    </g>
    <g
       id="return-to-source">
      <rect
         style="opacity:1;fill:none;fill-opacity:1;stroke:none"
         id="rect4380"
         width="4.2333336"
         height="4.2333322"
         x="18.520832"
         y="254.13741" />
      <rect
         y="254.66658"
         x="19.049999"
         height="3.1749992"
         width="3.1750002"
         id="rect4382"
         style="opacity:1;fill:none;fill-opacity:1;stroke:none" />
      <path
         id="rect4403"
         transform="matrix(0.26458333,0,0,0.26458334,-0.52916771,249.37497)"
         d="M 74,20 V 32 H 86 V 20 Z m 4,1 h 4 l -2,2 z m -3,4 h 10 v 2 H 75 Z m 5,4 2,2 h -4 z"
         style="opacity:1;fill:#d3dae3;fill-opacity:1;stroke:none"
         inkscape:connector-curvature="0"
         class="ColorScheme-Text" />
    </g>
    <g
       id="restore">
      <rect
         style="opacity:1;fill:none;fill-opacity:1;stroke:none"
         id="rect4414"
         width="4.2333336"
         height="4.2333322"
         x="28.045841"
         y="254.13741" />
      <rect
         y="254.66658"
         x="28.575008"
         height="3.1749992"
         width="3.1750002"
         id="rect4416"
         style="opacity:1;fill:none;fill-opacity:1;stroke:none" />
      <path
         sodipodi:nodetypes="ccccccccccccc"
         id="path4418"
         d="m 29.633338,255.1958 0.529166,-0.52916 0.529167,0.52916 z m -1.058334,0.79375 v 0.52917 h 3.175 v -0.52917 z m 1.5875,1.85209 -0.529166,-0.52917 h 1.058333 z"
         style="opacity:1;fill:#d3dae3;fill-opacity:1;stroke:none"
         inkscape:connector-curvature="0"
         class="ColorScheme-Text" />
    </g>
    <g
       id="help">
      <rect
         y="258.89993"
         x="-0.52916676"
         height="4.2333322"
         width="4.2333336"
         id="rect4420"
         style="opacity:1;fill:none;fill-opacity:1;stroke:none" />
      <rect
         style="opacity:1;fill:none;fill-opacity:1;stroke:none"
         id="rect4422"
         width="3.1750002"
         height="3.1749992"
         x="8.4756147e-07"
         y="259.42911" />
      <path
         inkscape:connector-curvature="0"
         style="opacity:1;fill:#d3dae3;fill-opacity:1;stroke:none;stroke-opacity:1"
         d="M 1.5875009,259.42911 A 1.5875,1.5875001 0 0 0 9.929289e-7,261.01661 1.5875,1.5875001 0 0 0 1.5875009,262.60411 a 1.5875,1.5875001 0 0 0 1.5875,-1.5875 1.5875,1.5875001 0 0 0 -1.5875,-1.5875 z M 9.929289e-7,259.69369 v 0.52917 L 0.52916759,259.69369 Z m 1.5874999070711,0 a 1.3229166,1.3229167 0 0 1 0.6325195,0.16123 l -0.4025594,0.40256 a 0.79374998,0.79375003 0 0 0 -0.2299601,-0.0346 0.79374998,0.79375003 0 0 0 -0.2299601,0.0346 l -0.40152591,-0.40153 a 1.3229166,1.3229167 0 0 1 0.63148601,-0.16226 z m 1.0583333,0 0.5291667,0.52917 v -0.52917 z m -2.22001941,0.6904 0.4025594,0.40256 a 0.79374998,0.79375003 0 0 0 -0.034623,0.22996 0.79374998,0.79375003 0 0 0 0.034623,0.22996 l -0.4015259,0.40152 a 1.3229166,1.3229167 0 0 1 -0.162264,-0.63148 1.3229166,1.3229167 0 0 1 0.1612305,-0.63252 z m 2.32233881,10e-4 a 1.3229166,1.3229167 0 0 1 0.1622639,0.63149 1.3229166,1.3229167 0 0 1 -0.1612304,0.63252 l -0.4025593,-0.40253 a 0.79374998,0.79375003 0 0 0 0.034623,-0.22996 0.79374998,0.79375003 0 0 0 -0.034623,-0.22996 l 0.4015258,-0.40153 z m -1.1606527,0.10232 a 0.52916665,0.52916669 0 0 1 0.5291667,0.52917 0.52916665,0.52916669 0 0 1 -0.5291667,0.52916 0.52916665,0.52916669 0 0 1 -0.5291667,-0.52916 0.52916665,0.52916669 0 0 1 0.5291667,-0.52917 z m -0.2299601,1.28829 a 0.79374998,0.79375003 0 0 0 0.2299601,0.0346 0.79374998,0.79375003 0 0 0 0.2299601,-0.0346 l 0.4015259,0.40153 a 1.3229166,1.3229167 0 0 1 -0.631486,0.16226 1.3229166,1.3229167 0 0 1 -0.63251951,-0.16123 z M 9.929289e-7,261.8103 v 0.52916 H 0.52916759 Z m 3.1749999070711,0 -0.5291667,0.52916 h 0.5291667 z"
         id="path59"
         class="ColorScheme-Text" />
    </g>
    <g
       id="delete">
      <rect
         style="opacity:1;fill:none;fill-opacity:1;stroke:none"
         id="rect4456"
         width="4.2333336"
         height="4.2333322"
         x="4.2333331"
         y="258.89993" />
      <rect
         y="259.42911"
         x="4.7625008"
         height="3.1749992"
         width="3.1750002"
         id="rect4458"
         style="opacity:1;fill:none;fill-opacity:1;stroke:none" />
      <path
         id="rect4455"
         d="m 5.5562478,259.42911 v 0.52916 h 0.2645834 v -0.26458 h 1.0583333 v 0.26458 h 0.2645833 v -0.52916 H 6.8791645 5.8208312 Z m -0.7937499,0.79375 v 0.26458 h 0.5291666 v 1.85208 0.26459 h 2.1166667 v -0.26459 -1.85208 h 0.5291666 v -0.26458 z m 0.7937499,0.26458 h 1.5875 v 1.85208 h -1.5875 z"
         style="opacity:1;fill:#d3dae3;fill-opacity:1;stroke:none;stroke-width:1;stroke-linecap:round;stroke-miterlimit:4;stroke-dasharray:none;stroke-opacity:1"
         inkscape:connector-curvature="0"
         class="ColorScheme-Text" />
    </g>
    <g
       id="add">
      <rect
         y="258.89993"
         x="8.9958324"
         height="4.2333322"
         width="4.2333336"
         id="rect4488"
         style="opacity:1;fill:none;fill-opacity:1;stroke:none" />
      <rect
         style="opacity:1;fill:none;fill-opacity:1;stroke:none"
         id="rect4490"
         width="3.1750002"
         height="3.1749992"
         x="9.5249996"
         y="259.42911" />
      <path
         style="opacity:1;fill:#d3dae3;fill-opacity:1;stroke:none"
         d="m 43,38 v 5 h -5 v 2 h 5 v 5 h 2 v -5 h 5 v -2 h -5 v -5 z"
         transform="matrix(0.26458333,0,0,0.26458333,-0.52916771,249.37493)"
         id="rect4498"
         class="ColorScheme-Text" />
    </g>
    <g
       id="remove">
      <rect
         style="opacity:1;fill:none;fill-opacity:1;stroke:none"
         id="rect4502"
         width="4.2333336"
         height="4.2333322"
         x="13.758328"
         y="258.89993" />
      <rect
         y="259.42911"
         x="14.287497"
         height="3.1749992"
         width="3.1750002"
         id="rect4504"
         style="opacity:1;fill:none;fill-opacity:1;stroke:none" />
      <rect
         y="-17.462498"
         x="260.75204"
         height="3.175"
         width="0.5291667"
         id="rect4508"
         style="opacity:1;fill:#d3dae3;fill-opacity:1;stroke:none"
         transform="rotate(90)"
         class="ColorScheme-Text" />
    </g>
    <g
       id="filter">
      <rect
         y="258.89993"
         x="18.520828"
         height="4.2333322"
         width="4.2333336"
         id="rect4527"
         style="opacity:1;fill:none;fill-opacity:1;stroke:none" />
      <rect
         style="opacity:1;fill:none;fill-opacity:1;stroke:none"
         id="rect4529"
         width="3.1750002"
         height="3.1749992"
         x="19.049997"
         y="259.42911" />
      <path
         id="path4545"
         transform="matrix(0.26458333,0,0,0.26458334,-0.52916771,249.37497)"
         d="m 76,38 -1,1 v 1 l 3,5.259766 V 48 48.002 l 3,1.996094 v 0.002 h 1 V 49.461032 45.25986 L 85,40 v -1 l -1,-1 z m 0,1 h 8 v 0.734375 l -3,5.263672 v 0.002 1 2.794922 L 79,47.464844 V 45 44.998 l -3,-5.263672 z m 1,1 2,2 v -1 l 1,-1 z"
         style="fill:#d3dae3;fill-opacity:1;fill-rule:evenodd;stroke:none;stroke-width:0.264583px;stroke-linecap:butt;stroke-linejoin:miter;stroke-opacity:1"
         inkscape:connector-curvature="0"
         class="ColorScheme-Text" />
    </g>
    <g
       id="showbackground">
      <g
         id="g942">
        <rect
           class="ColorScheme-Background  ColorScheme-Text"
           ry="0.12427091"
           y="259.69373"
           x="28.574997"
           height="2.6458437"
           width="2.6458342"
           id="rect929"
           style="opacity:0.35;fill:#e5e9ef;fill-opacity:1" />
        <rect
           y="258.89993"
           x="27.858765"
           height="4.2333322"
           width="4.2333336"
           id="rect908"
           style="opacity:1;fill:none;fill-opacity:1;stroke:none" />
        <path
           inkscape:connector-curvature="0"
           class="ColorScheme-Text"
           style="opacity:1;fill:#d3dae3;fill-opacity:1"
           d="m 110,38 c -0.55407,0 -1,0.445928 -1,1 v 10 c 0,0.554072 0.44593,1 1,1 h 10 c 0.55407,0 1,-0.445928 1,-1 V 39 c 0,-0.554072 -0.44593,-1 -1,-1 z m 0.46875,1 h 9.0625 C 119.79146,39 120,39.210497 120,39.470703 V 48.53125 C 120,48.791456 119.79146,49 119.53125,49 h -9.0625 C 110.20854,49 110,48.791456 110,48.53125 V 39.470703 C 110,39.210497 110.20854,39 110.46875,39 Z"
           transform="matrix(0.26458332,0,0,0.26458332,-0.5291667,249.37493)"
           id="rect910" />
        <g
           aria-label="a"
           transform="scale(0.92487808,1.0812236)"
           id="text927">
          <path
             class="ColorScheme-Text"
             d="m 32.390856,240.67151 c 0.173043,0 0.30106,0.038 0.38405,0.11389 0.08299,0.0759 0.124486,0.19688 0.124486,0.36286 v 0.99379 H 32.72988 l -0.04503,-0.22834 h -0.01059 c -0.0618,0.0777 -0.127133,0.13508 -0.195998,0.17216 -0.06886,0.0371 -0.162449,0.0556 -0.280754,0.0556 -0.1289,0 -0.235727,-0.0335 -0.320483,-0.10065 -0.08476,-0.0689 -0.122393,-0.17569 -0.122393,-0.32048 0,-0.14126 0.05088,-0.28618 0.162122,-0.3621 0.111242,-0.0777 0.282519,-0.11816 0.513833,-0.12522 l 0.241024,-0.008 v -0.0504 c 0,-0.11831 -0.0256,-0.20042 -0.07681,-0.24633 -0.05121,-0.0459 -0.123603,-0.0689 -0.217187,-0.0689 -0.07416,0 -0.144791,0.0115 -0.211889,0.0344 -0.0671,0.0212 -0.129783,0.0459 -0.188052,0.0742 l -0.07151,-0.17481 c 0.0618,-0.0335 0.135078,-0.0618 0.219835,-0.0848 0.08476,-0.0247 0.173043,-0.0371 0.264862,-0.0371 z m 0.278106,0.73618 -0.209242,0.008 c -0.176575,0.007 -0.299294,0.0334 -0.368158,0.0829 -0.0671,0.0495 -0.100647,0.1345 -0.100647,0.22453 0,0.0795 0.02384,0.13773 0.07151,0.17481 0.04944,0.0371 0.112124,0.0556 0.188052,0.0556 0.118305,0 0.217187,-0.0327 0.296646,-0.098 0.08122,-0.0671 0.121837,-0.16951 0.121837,-0.30724 z"
             style="fill:#d3dae3;fill-opacity:1"
             id="path934"
             inkscape:connector-curvature="0"
             sodipodi:nodetypes="ccscccccscscccscscccccccccscsccc" />
        </g>
      </g>
    </g>
    <g
       id="close">
      <g
         id="g968">
        <rect
           y="258.89993"
           x="23.283339"
           height="4.2333322"
           width="4.2333336"
           id="rect4253"
           style="opacity:1;fill:none;fill-opacity:1;stroke:none" />
        <rect
           style="opacity:1;fill:none;fill-opacity:1;stroke:none"
           id="rect4255"
           width="3.1750002"
           height="3.1749992"
           x="23.812508"
           y="259.42911" />
      </g>
      <path
         d="m 23.81316,259.42919 h 0.396716 c 0.0041,-5e-5 0.0082,-1.8e-4 0.0124,0 0.101142,0.004 0.202273,0.051 0.272742,0.12402 l 0.904986,0.90535 0.917404,-0.90535 c 0.105376,-0.0915 0.177201,-0.12124 0.272742,-0.12402 h 0.396715 v 0.39687 c 0,0.1137 -0.01362,0.21854 -0.09918,0.29766 l -0.904987,0.90535 0.892609,0.89296 c 0.07466,0.0747 0.111572,0.17997 0.111576,0.28526 v 0.39687 h -0.396715 c -0.105249,0 -0.210493,-0.0369 -0.285139,-0.11162 l -0.904987,-0.90535 -0.904987,0.90535 c -0.07465,0.0747 -0.179894,0.11162 -0.285139,0.11162 H 23.8132 v -0.39687 c -10e-7,-0.10529 0.03692,-0.21058 0.111576,-0.28526 l 0.904987,-0.89296 -0.904987,-0.90535 c -0.0836,-0.0772 -0.120268,-0.18623 -0.111576,-0.29766 z"
         id="path124"
         style="fill:#d3dae3;fill-opacity:1;stroke-width:0.396795"
         class="ColorScheme-Text" />
    </g>
    <g
       id="menu">
      <rect
         y="249.37497"
         x="-0.52916771"
         height="4.2333322"
         width="4.2333336"
         id="rect4152"
         style="fill:none;fill-opacity:1;stroke:none" />
      <path
         d="m -0.13229272,252.54998 c 0,-0.1462 0.1183884,-0.26458 0.2645838,-0.26458 0.1460739,0 0.2645839,0.11838 0.2645839,0.26458 0,0.14606 -0.11851,0.26456 -0.2645839,0.26456 -0.1461954,0 -0.2645838,-0.1185 -0.2645838,-0.26456 z"
         id="path72-3"
         style="color:#e5e9ef;fill:#d3dae3;fill-opacity:1;stroke-width:0.00314981"
         class="ColorScheme-Text" />
      <path
         d="M 3.0427084,252.28537 H 0.9260418 c -0.14964121,0 -0.26458333,0.11854 -0.26458333,0.26459 0,0.14605 0.11494227,0.26458 0.26458333,0.26458 h 2.1166666 c 0.1385929,0 0.2645833,-0.11853 0.2645833,-0.26458 0,-0.14605 -0.1149414,-0.26459 -0.2645833,-0.26459 z"
         id="path2655-5-5"
         style="fill:#d3dae3;fill-opacity:1;stroke-width:0.103208"
         sodipodi:nodetypes="sssssss" />
      <path
         d="m -0.13229242,250.43332 c 0,-0.1462 0.118388,-0.26458 0.2645837,-0.26458 0.1460739,0 0.2645839,0.11838 0.2645839,0.26458 0,0.14606 -0.11851,0.26456 -0.2645839,0.26456 -0.1461957,0 -0.2645837,-0.1185 -0.2645837,-0.26456 z"
         id="path72-3-6"
         style="color:#e5e9ef;fill:#d3dae3;fill-opacity:1;stroke-width:0.00314981"
         class="ColorScheme-Text" />
      <path
         d="m -0.13229272,251.49165 c 0,-0.1462 0.1183884,-0.26458 0.2645838,-0.26458 0.1460739,0 0.2645839,0.11838 0.2645839,0.26458 0,0.14606 -0.11851,0.26456 -0.2645839,0.26456 -0.1461954,0 -0.2645838,-0.1185 -0.2645838,-0.26456 z"
         id="path72-3-2"
         style="color:#e5e9ef;fill:#d3dae3;fill-opacity:1;stroke-width:0.00314981"
         class="ColorScheme-Text" />
      <path
         d="M 3.0427084,251.22704 H 0.92604184 c -0.1496412,0 -0.2645833,0.11854 -0.2645833,0.26459 0,0.14605 0.1149423,0.26458 0.2645833,0.26458 H 3.0427084 c 0.1385929,0 0.2645833,-0.11853 0.2645833,-0.26458 0,-0.14605 -0.1149414,-0.26459 -0.2645833,-0.26459 z"
         id="path2655-5-5-9"
         style="fill:#d3dae3;fill-opacity:1;stroke-width:0.103208"
         sodipodi:nodetypes="sssssss" />
      <path
         d="M 3.0427084,250.16871 H 0.92604189 c -0.1496412,0 -0.2645833,0.11854 -0.2645833,0.26459 0,0.14605 0.1149423,0.26458 0.2645833,0.26458 H 3.0427084 c 0.1385929,0 0.2645833,-0.11853 0.2645833,-0.26458 0,-0.14605 -0.1149414,-0.26459 -0.2645833,-0.26459 z"
         id="path2655-5-5-9-1"
         style="fill:#d3dae3;fill-opacity:1;stroke-width:0.103208"
         sodipodi:nodetypes="sssssss" />
    </g>
    <g
       id="configure">
      <rect
         style="fill:none;fill-opacity:1;stroke:none"
         id="rect4156"
         width="4.2333336"
         height="4.2333322"
         x="4.2333336"
         y="249.37497" />
      <path
         id="path2996-5"
         d="m 6.2862565,249.3748 c -0.1375847,6e-5 -0.2718131,0.0474 -0.3423891,0.106 -0.083216,0.0691 -0.1249543,0.15807 -0.1522316,0.24046 -0.067362,0.20345 -0.052612,0.27624 -0.1264206,0.33748 -0.073532,0.061 -0.1595438,0.11069 -0.2491544,0.14395 -0.089803,0.0333 -0.1455025,-0.0159 -0.355558,-0.0591 -0.085169,-0.0174 -0.1842099,-0.0255 -0.2839196,0.0117 -0.084974,0.0315 -0.1942479,0.12482 -0.2633763,0.24469 l -0.06321,0.10968 c -0.068775,0.11909 -0.095564,0.25894 -0.080067,0.35014 0.01838,0.10818 0.074872,0.18803 0.1322152,0.25258 0.1420059,0.15988 0.2124562,0.18335 0.2286106,0.27843 0.016015,0.0942 0.016012,0.19365 0,0.28792 -0.016137,0.0949 -0.086611,0.11857 -0.2286106,0.27844 -0.056578,0.0636 -0.1137444,0.14343 -0.1322152,0.25206 -0.015602,0.0917 0.011166,0.23123 0.080067,0.35066 l 0.06321,0.10969 c 0.068706,0.1193 0.1771296,0.21281 0.2628494,0.24468 v -5.3e-4 c 0.1006962,0.0376 0.1988782,0.0297 0.2844465,0.0122 0.2100596,-0.0433 0.2656901,-0.0924 0.355558,-0.0591 0.089596,0.0332 0.1756136,0.0831 0.2491544,0.14394 0.073756,0.0612 0.05906,0.13405 0.1264206,0.33751 0.027263,0.0824 0.069041,0.17141 0.1522316,0.24045 0.070936,0.0587 0.2049851,0.10601 0.3423891,0.10601 h 0.1269474 c 0.1377036,8e-5 0.2723164,-0.0474 0.3429158,-0.10599 0.083422,-0.0693 0.125007,-0.15791 0.1522317,-0.23994 0.067377,-0.20298 0.053014,-0.27666 0.1269476,-0.33803 0.073713,-0.0611 0.1592239,-0.11075 0.2486273,-0.14393 0.089807,-0.0333 0.1455122,0.0159 0.355558,0.0591 0.08517,0.0174 0.1842077,0.0255 0.2839195,-0.0117 0.084961,-0.0315 0.1942466,-0.12481 0.2633766,-0.24468 l 0.031606,-0.055 0.031606,-0.0549 c 0.068775,-0.11909 0.095564,-0.25895 0.080067,-0.35014 -0.01838,-0.10818 -0.074872,-0.18803 -0.1322153,-0.25258 -0.1420057,-0.15988 -0.2124562,-0.18335 -0.2286106,-0.27844 -0.016018,-0.0942 -0.016015,-0.19365 0,-0.28792 0.016137,-0.0949 0.086611,-0.11856 0.2286106,-0.27843 0.056578,-0.0636 0.1137443,-0.14344 0.1322153,-0.25205 0.015601,-0.0917 -0.011166,-0.23124 -0.080067,-0.35067 l -0.031606,-0.0548 -0.031606,-0.0549 C 8.1180744,250.28043 8.009651,250.18691 7.923931,250.15505 v 5.3e-4 c -0.1006972,-0.0375 -0.1988783,-0.0297 -0.2844467,-0.0122 -0.2100601,0.0431 -0.2656906,0.0924 -0.355558,0.0591 -0.089391,-0.0331 -0.1749033,-0.0827 -0.2486273,-0.14396 -0.074148,-0.0615 -0.059649,-0.13475 -0.1269476,-0.33748 -0.027209,-0.0819 -0.068841,-0.1708 -0.1522317,-0.23994 -0.06904,-0.0573 -0.2038407,-0.10653 -0.342389,-0.10653 h -0.063737 -0.06321 z m 0,0.27 h 0.063737 0.063737 c 0.1004785,0 0.142929,0.0212 0.1706679,0.0443 0.027737,0.0231 0.048577,0.0593 0.067951,0.11762 0.038747,0.1167 0.04075,0.31838 0.211228,0.45981 0.097078,0.0804 0.2080818,0.14533 0.3265864,0.18933 0.2076419,0.077 0.3830561,-0.0234 0.5035759,-0.0479 0.060261,-0.0124 0.1026402,-0.0121 0.1364288,5.4e-4 0.033788,0.0126 0.072568,0.0396 0.1227334,0.12658 l 0.032132,0.0549 0.031606,0.055 c 0.050239,0.0872 0.053451,0.13531 0.047407,0.17084 -0.00604,0.0354 -0.02709,0.0712 -0.067951,0.11707 -0.081725,0.092 -0.2552196,0.1943 -0.2923479,0.4129 -0.021168,0.1246 -0.021177,0.25399 0,0.37862 0.037147,0.21861 0.210598,0.32085 0.2923479,0.41289 0.040874,0.046 0.061919,0.0827 0.067951,0.11812 0.00603,0.0354 0.00286,0.0827 -0.047407,0.16979 l -0.031606,0.0549 -0.032132,0.0549 c -0.05023,0.0872 -0.089443,0.11401 -0.1232602,0.1266 -0.033817,0.0126 -0.075661,0.0129 -0.135902,5.3e-4 -0.1204801,-0.0249 -0.2959569,-0.12508 -0.5035759,-0.0479 -0.1184942,0.0439 -0.2295011,0.10877 -0.3265864,0.18933 -0.1704792,0.14147 -0.1724695,0.34359 -0.211228,0.46037 -0.019377,0.0584 -0.040233,0.0945 -0.067951,0.11757 -0.027717,0.0229 -0.070215,0.0438 -0.1706679,0.0438 h -0.127474 c -0.1004786,0 -0.142994,-0.0207 -0.170668,-0.0438 -0.027673,-0.0231 -0.04863,-0.0592 -0.067952,-0.11758 -0.038643,-0.11673 -0.04018,-0.31889 -0.2107012,-0.46036 -0.097299,-0.0806 -0.2087571,-0.14538 -0.3271131,-0.18933 -0.207642,-0.077 -0.3830562,0.0233 -0.5035758,0.0479 -0.060261,0.0124 -0.1026403,0.0121 -0.136429,-5.3e-4 -0.033788,-0.0126 -0.072568,-0.0396 -0.1227333,-0.1266 l -0.063738,-0.10967 c -0.050239,-0.0872 -0.053451,-0.13532 -0.047407,-0.17085 0.00604,-0.0354 0.02709,-0.0711 0.067951,-0.11707 0.081725,-0.0919 0.2552195,-0.1943 0.292348,-0.41288 0.021166,-0.12461 0.021174,-0.25399 0,-0.37862 -0.037147,-0.21862 -0.2105981,-0.32087 -0.292348,-0.4129 -0.040875,-0.0461 -0.061919,-0.0825 -0.067951,-0.11811 -0.00603,-0.0354 -0.00286,-0.0829 0.047407,-0.1698 l 0.063738,-0.10969 c 0.05023,-0.0871 0.089441,-0.114 0.1232601,-0.12656 0.033818,-0.0126 0.075661,-0.0129 0.1359022,-5.5e-4 0.1204803,0.0249 0.2959579,0.12508 0.5035758,0.0479 0.1183475,-0.044 0.2298088,-0.10859 0.3271131,-0.18933 0.1705211,-0.1415 0.1720465,-0.34359 0.2107012,-0.46036 0.019326,-0.0584 0.0403,-0.0946 0.067952,-0.11759 0.027652,-0.023 0.070221,-0.0437 0.170668,-0.0437 z m 0.063737,1.07996 c -0.4464175,0 -0.8090922,0.36307 -0.8090922,0.80996 0,0.4469 0.3626747,0.80997 0.8090922,0.80997 0.4464169,0 0.809092,-0.36307 0.809092,-0.80997 0,-0.44689 -0.3626751,-0.80996 -0.809092,-0.80996 z m 0,0.80996 z"
         sodipodi:nodetypes="scccscscccscssscccccssscscsccscsccccsssssccccccssscsccsccssssssccccsssssscccscscsscsssssscccssscssccscscsccsssssccscc"
         style="fill:#d3dae3;fill-opacity:1;stroke-width:0.269844" />
    </g>
  </g>
</svg>
