<?xml version="1.0" encoding="UTF-8" standalone="no"?>
<svg
   width="22"
   height="22"
   version="1.1"
   id="svg12"
   sodipodi:docname="korgac-symbolic.svg"
   inkscape:version="1.3.2 (091e20ef0f, 2023-11-25)"
   xmlns:inkscape="http://www.inkscape.org/namespaces/inkscape"
   xmlns:sodipodi="http://sodipodi.sourceforge.net/DTD/sodipodi-0.dtd"
   xmlns="http://www.w3.org/2000/svg"
   xmlns:svg="http://www.w3.org/2000/svg"
   xmlns:rdf="http://www.w3.org/1999/02/22-rdf-syntax-ns#"
   xmlns:cc="http://creativecommons.org/ns#"
   xmlns:dc="http://purl.org/dc/elements/1.1/">
  <g
     id="22-22-korgac-3">
    <rect
       style="opacity:0.00100002"
       width="22"
       height="22"
       x="0"
       y="0"
       id="rect2-6" />
    <path
       id="rect4120-4-7-3"
       style="fill:#d3dae3;fill-opacity:1;stroke:none;stroke-width:1"
       d="m 10.949736,3 c -1.107717,0 -1.99949,0.888162 -1.99949,1.991392 0,0.09685 0.01178,0.191209 0.0254,0.283926 -2.908919,0.845342 -5.024132,3.508572 -5.024132,6.685937 0,3.861306 3.121209,6.969869 6.99825,6.969869 3.877024,0 6.998244,-3.108563 6.998244,-6.969869 0,-1.579472 -0.527199,-3.028425 -1.4098,-4.194758 C 16.538859,7.765857 15.160862,6.3955 15.1616,6.395473 14.497613,5.897079 13.743748,5.513574 12.923875,5.275318 12.937535,5.182608 12.949285,5.088251 12.949285,4.991392 12.949339,3.888162 12.057552,3 10.949831,3 Z m 0,0.9957 c 0.553871,0 0.999754,0.444065 0.999754,0.995692 0,0.02692 -0.01355,0.04942 -0.01563,0.07586 -0.322449,-0.04501 -0.64883,-0.07586 -0.984126,-0.07586 -0.335289,0 -0.661665,0.0309 -0.984121,0.07586 -0.0018,-0.02637 -0.01561,-0.04891 -0.01561,-0.07586 0,-0.551627 0.44588,-0.995692 0.999749,-0.995692 z m 0,1.991388 c 0.259515,0 0.513584,0.01925 0.763484,0.0525 0.03471,0.0045 0.06892,0.01056 0.103491,0.01553 0.242034,0.03651 0.480433,0.08513 0.712709,0.147809 2.550309,0.688249 4.41882,2.99467 4.41882,5.758304 0,3.309689 -2.675323,5.974169 -5.998504,5.974169 -3.323158,0 -5.998489,-2.66448 -5.998489,-5.974169 0,-2.763634 1.868504,-5.070055 4.418808,-5.758303 0.232284,-0.0627 0.470681,-0.111292 0.712713,-0.147809 0.0345,-0.0052 0.06875,-0.01119 0.103496,-0.01554 0.249907,-0.03325 0.503957,-0.05249 0.763472,-0.0525 z M 11.000026,7 v 3.98278 c 0.553865,0 1,0.465606 1,1.017219 h 3.99899 C 15.999003,9.241927 13.769311,7 11.000008,7 Z M 6.875536,3.070734 C 5.211706,3.92312 3.855857,5.273466 3,6.93054 v 0.1225 L 3.92153,7.358327 C 4.675871,5.914844 5.855706,4.73979 7.305063,3.98853 L 6.99854,3.070734 Z m 8.125931,0 -0.306528,0.917796 c 1.449356,0.751269 2.629186,1.926323 3.383528,3.369797 L 19.000007,7.05304 V 6.93054 C 18.144146,5.273475 16.788294,3.923118 15.124473,3.070734 Z m -4.004388,1.991152 c -3.876579,0 -6.997437,3.108205 -6.997437,6.969056 C 3.999637,15.891798 7.120494,19 10.997075,19 c 3.876569,0 6.997433,-3.108202 6.997433,-6.969058 0,-3.860851 -3.120864,-6.969056 -6.997433,-6.969056 z m 0,0.99558 c 3.322776,0 5.997801,2.664174 5.997801,5.973476 0,3.309299 -2.675025,5.973471 -5.997801,5.973471 -3.322776,0 -5.9978,-2.664172 -5.9978,-5.973471 0,-3.309302 2.675024,-5.973476 5.9978,-5.973476 z"
       class="ColorScheme-Text" />
  </g>
  <style
     id="current-color-scheme"
     type="text/css">.ColorScheme-Text { color:#d6dbf1; }
</style>
  <metadata
     id="metadata18">
    <rdf:RDF>
      <cc:Work
         rdf:about="">
        <dc:format>image/svg+xml</dc:format>
        <dc:type
           rdf:resource="http://purl.org/dc/dcmitype/StillImage" />
      </cc:Work>
    </rdf:RDF>
  </metadata>
  <defs
     id="defs16" />
  <sodipodi:namedview
     pagecolor="#201933"
     bordercolor="#000000"
     borderopacity="1"
     objecttolerance="10"
     gridtolerance="10"
     guidetolerance="10"
     inkscape:pageopacity="0"
     inkscape:pageshadow="2"
     inkscape:window-width="1920"
     inkscape:window-height="994"
     id="namedview14"
     showgrid="true"
     inkscape:zoom="9.8623729"
     inkscape:cx="24.132123"
     inkscape:cy="19.06235"
     inkscape:window-x="0"
     inkscape:window-y="0"
     inkscape:window-maximized="1"
     inkscape:current-layer="svg12"
     inkscape:document-rotation="0"
     inkscape:pagecheckerboard="true"
     inkscape:lockguides="false"
     inkscape:showpageshadow="true"
     inkscape:deskcolor="#201933">
    <inkscape:grid
       id="grid1"
       units="px"
       originx="-0.629945"
       originy="0.20292805"
       spacingx="1"
       spacingy="1"
       empcolor="#0099e5"
       empopacity="0.30196078"
       color="#0099e5"
       opacity="0.14902"
       empspacing="5"
       dotted="false"
       gridanglex="30"
       gridanglez="30"
       visible="true" />
  </sodipodi:namedview>
</svg>
