<?xml version="1.0" encoding="UTF-8" standalone="no"?>
<svg
   height="16"
   viewBox="0 0 4.233 4.233"
   width="16"
   version="1.1"
   id="svg1"
   sodipodi:docname="hotspot-symbolic.svg"
   inkscape:version="1.3.2 (091e20ef0f, 2023-11-25)"
   xmlns:inkscape="http://www.inkscape.org/namespaces/inkscape"
   xmlns:sodipodi="http://sodipodi.sourceforge.net/DTD/sodipodi-0.dtd"
   xmlns="http://www.w3.org/2000/svg"
   xmlns:svg="http://www.w3.org/2000/svg">
  <sodipodi:namedview
     id="namedview1"
     pagecolor="#ffffff"
     bordercolor="#999999"
     borderopacity="1"
     inkscape:showpageshadow="2"
     inkscape:pageopacity="0"
     inkscape:pagecheckerboard="0"
     inkscape:deskcolor="#d1d1d1"
     inkscape:zoom="23.8125"
     inkscape:cx="9.6587926"
     inkscape:cy="10.456693"
     inkscape:window-width="1920"
     inkscape:window-height="994"
     inkscape:window-x="0"
     inkscape:window-y="0"
     inkscape:window-maximized="1"
     inkscape:current-layer="svg1" />
  <defs
     id="defs1">
    <style
       type="text/css"
       id="current-color-scheme">.ColorScheme-Text { color: #fcfcfc; } </style>
  </defs>
  <path
     style="fill:currentColor;fill-opacity:1;stroke:none;stroke-width:0.890835"
     class="ColorScheme-Text"
     d="m 1.9317556,2.1775341 a 0.7164106,0.69133011 0 0 0 -0.08071,0.00615 C 1.4520327,2.232674 1.1591205,2.5687125 1.1482386,2.9616326 l 0.00181,0.00349 c 0.022673,0.034127 0.048061,0.070009 0.070735,0.1102629 l 0.039902,-0.039379 a 0.40445459,0.39029523 0 0 1 0.1496244,-0.088397 0.09975338,0.10063668 0 0 1 0.083432,0.181146 c 0.018138,-0.010502 -0.00181,0.00525 -0.00906,0.039378 a 0.35820526,0.34566503 0 0 0 -0.00456,0.1067671 c 0.0635,0.2275371 0.3219527,0.4025577 0.651139,0.3465509 C 2.3742981,3.5654453 2.6109857,3.4271792 2.6898813,3.1313947 A 0.85515852,0.82522067 0 0 0 2.6536076,2.5940828 0.79984072,0.77183946 0 0 0 1.9317556,2.1775341 Z M 1.016745,1.7434839 1.025805,2.0497691 0.958697,2.1784096 0.965947,2.4059358 1.03033,2.5205735 c 0.00456,0.00962 -0.00544,0.018378 0,0.027125 A 0.88055028,0.8497235 0 0 1 1.1736284,2.2370414 l 0.02086,-0.1303907 -0.061665,-0.227526 z M 2.3099117,0.27331353 c -0.027207,0.0411298 -0.049877,0.0857599 -0.069827,0.13126521 l -0.063479,0.1172636 -0.089776,0.27653208 a 0.26933412,0.25990512 0 0 0 -0.010882,0.0323784 l 0.1414684,0.22402598 0.072548,0.072634 0.027206,0.026253 -0.026297,-0.15751839 -0.00181,-0.0140019 -0.00636,-0.56181512 z M 2.1738843,0.26456251 A 1.6078433,1.551555 0 0 0 2.0324158,0.36082367 L 1.8628353,0.5148415 1.6814652,0.77999725 1.5708297,1.0722811 1.529115,1.3925681 c -0.00544,0.161019 0.013601,0.3211625 0.053503,0.4699297 v 0.00175 l 0.0263,0.1015093 C 2.3144457,1.733858 3.1387716,2.2571687 2.873065,3.2171546 2.7769391,3.5321917 2.4813062,3.685334 2.1974627,3.7422155 1.7966354,3.803473 1.4592878,3.6135758 1.3776708,3.345795 1.3631608,3.261784 1.3858308,3.1523974 1.4375228,3.1165182 l 0.00181,-0.00526 a 0.29744642,0.28703325 0 0 0 -0.1169896,0.060384 c -0.081612,0.067388 -0.083425,0.09014 -0.1886192,0.116393 0.051689,-0.1286397 -0.23306048,-0.2327769 -0.1813702,-0.5093086 0,-0.00614 -0.013601,0.052506 -0.011791,0.045505 C 0.81451767,3.4359328 1.5245803,4.1237626 2.3117252,3.9373658 2.8458595,3.8200998 3.1641635,3.4744346 3.2684511,3.0841396 A 1.2940733,1.2487696 0 0 0 2.980073,1.9517582 1.7801438,1.7178237 0 0 0 2.8440456,1.8152421 l -0.00181,-0.00175 -0.00362,-0.00349 A 3.4369572,3.3166344 0 0 0 2.5175803,1.564963 L 2.2056241,1.3286855 A 0.61937778,0.59769426 0 0 1 2.1883974,1.3111835 L 2.0913611,1.1991707 a 0.68104352,0.65720119 0 0 1 -0.021765,-0.034129 l -0.07436,-0.18727186 -0.026299,-0.25815491 0.036275,-0.2187754 0.00456,-0.0140019 z m -0.73092,2.84407969 a 0.01178903,0.01137631 0 0 0 -0.00361,0.00175 0.01450961,0.01400165 0 0 0 -9.072e-4,0.00351 c 0.00181,0 0.0027,-0.00351 0.00456,-0.0044 z"
     id="path1" />
</svg>
