<?xml version="1.0" encoding="UTF-8" standalone="no"?>
<svg
   viewBox="0 0 64 64"
   version="1.1"
   id="svg4"
   sodipodi:docname="start-here-kde.svg"
   width="64"
   height="64"
   inkscape:version="1.3.2 (091e20ef0f, 2023-11-25)"
   xmlns:inkscape="http://www.inkscape.org/namespaces/inkscape"
   xmlns:sodipodi="http://sodipodi.sourceforge.net/DTD/sodipodi-0.dtd"
   xmlns:xlink="http://www.w3.org/1999/xlink"
   xmlns="http://www.w3.org/2000/svg"
   xmlns:svg="http://www.w3.org/2000/svg">
  <sodipodi:namedview
     id="namedview4"
     pagecolor="#ffffff"
     bordercolor="#999999"
     borderopacity="1"
     inkscape:showpageshadow="2"
     inkscape:pageopacity="0"
     inkscape:pagecheckerboard="0"
     inkscape:deskcolor="#d1d1d1"
     inkscape:zoom="2.9765625"
     inkscape:cx="16.125984"
     inkscape:cy="16.125984"
     inkscape:window-width="1920"
     inkscape:window-height="994"
     inkscape:window-x="0"
     inkscape:window-y="0"
     inkscape:window-maximized="1"
     inkscape:current-layer="svg4" />
  <defs
     id="defs3051">
    <style
       type="text/css"
       id="current-color-scheme">.ColorScheme-Text { color: #fcfcfc; } </style>
    <radialGradient
       gradientUnits="userSpaceOnUse"
       gradientTransform="matrix(1.1998832,0,0,1.1998856,-3.1992982,-2.5981966)"
       r="10.000977"
       fy="15.499997"
       fx="16.000977"
       cy="15.499997"
       cx="16.000977"
       id="radialGradient860"
       xlink:href="#linearGradient4-1"
       inkscape:collect="always" />
    <linearGradient
       inkscape:collect="always"
       id="linearGradient4-1">
      <stop
         style="stop-color:#0586c7;stop-opacity:1;"
         offset="0"
         id="stop3" />
      <stop
         style="stop-color:#058bce;stop-opacity:0.5;"
         offset="1"
         id="stop4" />
    </linearGradient>
  </defs>
  <rect
     style="opacity:0.00100002;vector-effect:none;fill:#000000;fill-opacity:1;stroke:none;stroke-width:6.45636;stroke-linecap:round;stroke-linejoin:round;stroke-miterlimit:4;stroke-dasharray:none;stroke-dashoffset:0;stroke-opacity:1"
     y="0"
     x="0"
     height="64"
     width="64"
     id="rect860" />
  <g
     transform="matrix(2.0833333,0,0,2.0833333,-1.3333328,-1.3333328)"
     id="g4502">
    <path
       style="color:#d3dae3;fill:url(#radialGradient860);fill-opacity:1;stroke-width:1.17096"
       d="M 18.398596,4 13.599061,4.6919664 V 21.22772 l 4.799535,-1.227672 v -6.38842 l 4.799536,7.53128 4.799524,-1.71429 L 21.998254,12.57145 28,5.1450918 23.343427,4 18.398596,11.49555 Z M 8.626103,8.4843866 c -0.11348,0 -0.226986,0.042105 -0.314024,0.1250006 L 6.4255444,10.406272 c -0.1740633,0.165792 -0.1321588,0.402628 0,0.600446 l 1.9521506,2.919654 c -0.144631,0.28596 -0.269877,0.58046 -0.37496,0.881694 -0.00469,0.01294 -0.011871,0.02494 -0.016398,0.038 L 4.4452696,15.596013 C 4.204967,15.646883 4,15.785663 4,16.020129 v 1.122764 1.122764 c 0,0.234466 0.204967,0.373248 0.4452687,0.424113 l 3.541061,0.750002 c 0.0077,0.0221 0.020144,0.04266 0.028123,0.06474 0.102284,0.292617 0.223608,0.578886 0.363245,0.857145 l -1.9521558,2.917416 c -0.1321586,0.197812 -0.1740633,0.434655 0,0.600447 l 1.8865408,1.796882 c 0.174063,0.165791 0.454002,0.165791 0.628063,0 l 3.0606413,-1.857151 c 0.300872,0.139379 0.610869,0.260157 0.928025,0.361617 0.02084,0.0071 0.04013,0.01774 0.06083,0.02448 l 0.785079,3.370548 C 13.774765,27.810362 13.97388,28 14.220048,28 h 2.664573 c 0.246168,0 0.391878,-0.195225 0.445267,-0.424105 l 0.785074,-3.47323 c 0.360701,-0.129151 0.710839,-0.283597 1.047568,-0.462047 l 2.987981,2.035717 c 0.174069,0.165796 0.454012,0.165796 0.62807,0 l 1.886544,-1.796878 c 0.174054,-0.165788 0.132142,-0.402638 0,-0.600452 l -1.136607,-1.642852 -0.11952,0.04241 c -0.270275,0.09665 -0.574545,-0.0032 -0.724149,-0.238843 l -1.195186,-1.875015 c -0.995833,2.268799 -3.347598,3.863847 -6.090819,3.863847 -3.644725,0 -6.599347,-2.814207 -6.599347,-6.285723 0,-2.663924 1.743182,-4.935277 4.199578,-5.850464 v -1.252234 l -0.0088,0.04023 c -0.0265,0.0085 -0.05085,0.02237 -0.0773,0.03124 -0.312958,0.09894 -0.619012,0.216788 -0.916315,0.352688 L 8.940156,8.609385 C 8.853067,8.526488 8.739585,8.4843847 8.626077,8.4843847 Z"
       class="ColorScheme-Text"
       id="path10-7" />
  </g>
</svg>
