<?xml version="1.0" encoding="UTF-8" standalone="no"?>
<svg
   width="22"
   height="22"
   version="1.1"
   id="svg132"
   sodipodi:docname="video-display.svg"
   inkscape:version="1.3.2 (091e20ef0f, 2023-11-25)"
   xmlns:inkscape="http://www.inkscape.org/namespaces/inkscape"
   xmlns:sodipodi="http://sodipodi.sourceforge.net/DTD/sodipodi-0.dtd"
   xmlns:xlink="http://www.w3.org/1999/xlink"
   xmlns="http://www.w3.org/2000/svg"
   xmlns:svg="http://www.w3.org/2000/svg"
   xmlns:rdf="http://www.w3.org/1999/02/22-rdf-syntax-ns#"
   xmlns:cc="http://creativecommons.org/ns#"
   xmlns:dc="http://purl.org/dc/elements/1.1/">
  <metadata
     id="metadata136">
    <rdf:RDF>
      <cc:Work
         rdf:about="">
        <dc:format>image/svg+xml</dc:format>
        <dc:type
           rdf:resource="http://purl.org/dc/dcmitype/StillImage" />
      </cc:Work>
    </rdf:RDF>
  </metadata>
  <sodipodi:namedview
     pagecolor="#ffffff"
     bordercolor="#666666"
     borderopacity="1"
     objecttolerance="10"
     gridtolerance="10"
     guidetolerance="10"
     inkscape:pageopacity="0"
     inkscape:pageshadow="2"
     inkscape:window-width="1920"
     inkscape:window-height="994"
     id="namedview134"
     showgrid="true"
     inkscape:zoom="22.672363"
     inkscape:cx="10.850214"
     inkscape:cy="10.894321"
     inkscape:window-x="0"
     inkscape:window-y="0"
     inkscape:window-maximized="1"
     inkscape:current-layer="svg132"
     inkscape:showpageshadow="2"
     inkscape:pagecheckerboard="0"
     inkscape:deskcolor="#d1d1d1">
    <inkscape:grid
       id="grid2"
       units="px"
       originx="0"
       originy="-28"
       spacingx="1"
       spacingy="1"
       empcolor="#0099e5"
       empopacity="0.30196078"
       color="#0099e5"
       opacity="0.14901961"
       empspacing="5"
       dotted="false"
       gridanglex="30"
       gridanglez="30"
       visible="true" />
  </sodipodi:namedview>
  <defs
     id="defs80">
    <linearGradient
       id="b">
      <stop
         stop-color="#2a2c2f"
         id="stop2" />
      <stop
         offset="1"
         stop-color="#424649"
         id="stop4" />
    </linearGradient>
    <linearGradient
       id="a">
      <stop
         stop-color="#c6cdd1"
         id="stop7" />
      <stop
         offset="1"
         stop-color="#e0e5e7"
         id="stop9" />
    </linearGradient>
    <linearGradient
       id="c">
      <stop
         stop-color="#7e8f9e"
         id="stop12" />
      <stop
         offset="1"
         stop-color="#84ced5"
         id="stop14" />
    </linearGradient>
    <linearGradient
       id="j">
      <stop
         stop-color="#e4a56d"
         id="stop17" />
      <stop
         offset="1"
         stop-color="#a7bd78"
         id="stop19" />
    </linearGradient>
    <linearGradient
       id="d">
      <stop
         stop-color="#c3a278"
         id="stop22" />
      <stop
         offset="1"
         stop-color="#68a"
         id="stop24" />
    </linearGradient>
    <linearGradient
       id="k">
      <stop
         stop-color="#6588af"
         id="stop27" />
      <stop
         offset="1"
         stop-color="#8ba8cd"
         id="stop29" />
    </linearGradient>
    <linearGradient
       id="e">
      <stop
         stop-color="#89ad8b"
         id="stop32" />
      <stop
         offset="1"
         stop-color="#82b3c7"
         id="stop34" />
    </linearGradient>
    <linearGradient
       id="l">
      <stop
         stop-color="#e1b16f"
         id="stop37" />
      <stop
         offset="1"
         stop-color="#99bf83"
         id="stop39" />
    </linearGradient>
    <linearGradient
       id="f">
      <stop
         stop-color="#99c487"
         id="stop42" />
      <stop
         offset="1"
         stop-color="#b4d99e"
         id="stop44" />
    </linearGradient>
    <linearGradient
       id="m">
      <stop
         stop-color="#75d5c7"
         id="stop47" />
      <stop
         offset="1"
         stop-color="#66afb9"
         id="stop49" />
    </linearGradient>
    <linearGradient
       id="g">
      <stop
         stop-color="#5c7b9e"
         id="stop52" />
      <stop
         offset="1"
         stop-color="#839dc0"
         id="stop54" />
    </linearGradient>
    <linearGradient
       id="h">
      <stop
         stop-color="#7fbcc6"
         id="stop57" />
      <stop
         offset="1"
         stop-color="#8ee4e3"
         id="stop59" />
    </linearGradient>
    <linearGradient
       id="i">
      <stop
         stop-color="#84d5d7"
         id="stop62" />
      <stop
         offset="1"
         stop-color="#84a8ba"
         id="stop64" />
    </linearGradient>
    <linearGradient
       id="n"
       xlink:href="#a"
       y1="547.79797"
       y2="536.79797"
       gradientUnits="userSpaceOnUse"
       x2="0"
       gradientTransform="matrix(1.16667,0,0,1.0909,-532.88012,-504.598)" />
    <linearGradient
       id="o"
       xlink:href="#b"
       y1="536.79797"
       y2="503.798"
       gradientUnits="userSpaceOnUse"
       x2="0"
       gradientTransform="matrix(1.08333,0,0,1.0909,-498.83212,-504.598)" />
    <linearGradient
       xlink:href="#c"
       id="p"
       gradientUnits="userSpaceOnUse"
       gradientTransform="matrix(1.0871,0,0,1.1,-509.15412,-502.778)"
       y1="541.79797"
       x2="0"
       y2="489.798" />
    <linearGradient
       id="r"
       xlink:href="#d"
       x1="404.57101"
       gradientUnits="userSpaceOnUse"
       x2="421.57101"
       gradientTransform="matrix(1.07952,0,0,1.14286,-505.95712,-525.483)" />
    <linearGradient
       id="t"
       xlink:href="#e"
       x1="421.57101"
       gradientUnits="userSpaceOnUse"
       x2="438.57101"
       gradientTransform="matrix(1.04899,0,0,1.1,-492.43512,-502.778)" />
    <linearGradient
       id="v"
       xlink:href="#f"
       y1="510.798"
       y2="498.798"
       x1="404.57101"
       gradientUnits="userSpaceOnUse"
       x2="391.57101"
       gradientTransform="matrix(1.1,0,0,1.1,-514.24112,-502.778)" />
    <linearGradient
       id="x"
       xlink:href="#g"
       y1="495.798"
       y2="504.798"
       x1="428.57101"
       gradientUnits="userSpaceOnUse"
       x2="438.57101"
       gradientTransform="matrix(1.04899,0,0,1.0625,-492.43412,-484.036)" />
    <linearGradient
       id="y"
       xlink:href="#h"
       x1="421.57101"
       gradientUnits="userSpaceOnUse"
       x2="406.57101"
       gradientTransform="matrix(1.0871,0,0,1.1,-509.15412,-502.778)" />
    <linearGradient
       id="z"
       xlink:href="#i"
       x1="421.57101"
       gradientUnits="userSpaceOnUse"
       x2="436.57101"
       gradientTransform="matrix(1.0871,0,0,1.1,-509.15412,-502.778)" />
    <linearGradient
       xlink:href="#j"
       id="q"
       gradientUnits="userSpaceOnUse"
       gradientTransform="matrix(1.1,0,0,1.14286,-514.24112,-525.483)"
       x1="394.57101"
       y1="535.79797"
       x2="404.57101"
       y2="522.79797" />
    <linearGradient
       xlink:href="#k"
       id="s"
       gradientUnits="userSpaceOnUse"
       gradientTransform="matrix(1.1078,0,0,1.14286,-518.23312,-525.483)"
       x1="430.57101"
       y1="536.79797"
       x2="437.5"
       y2="524.79797" />
    <linearGradient
       xlink:href="#l"
       id="u"
       gradientUnits="userSpaceOnUse"
       gradientTransform="matrix(1.1,0,0,1.27514,-514.24112,-592.216)"
       x1="387.57101"
       y1="525.79797"
       x2="401.57101"
       y2="513.79797" />
    <linearGradient
       xlink:href="#m"
       id="w"
       gradientUnits="userSpaceOnUse"
       gradientTransform="matrix(1.11765,0,0,1.1,-521.38112,-502.778)"
       x1="404.57101"
       y1="501.798"
       x2="421.57101"
       y2="501.616" />
    <linearGradient
       id="linearGradient1196">
      <stop
         id="stop1180"
         offset="0"
         style="stop-color:#ec040b;stop-opacity:1" />
      <stop
         style="stop-color:#00e8c2;stop-opacity:1"
         offset="0.2414771"
         id="stop1182" />
      <stop
         id="stop1184"
         offset="0.34642017"
         style="stop-color:#ed2a64;stop-opacity:1" />
      <stop
         style="stop-color:#003ada;stop-opacity:1"
         offset="0.48312774"
         id="stop1186" />
      <stop
         id="stop1188"
         offset="0.64744467"
         style="stop-color:#f4ba00;stop-opacity:1" />
      <stop
         style="stop-color:#6a0085;stop-opacity:1"
         offset="0.80707073"
         id="stop1190" />
      <stop
         id="stop1192"
         offset="0.92333913"
         style="stop-color:#17e0ff;stop-opacity:1" />
      <stop
         id="stop1194"
         offset="1"
         style="stop-color:#000000;stop-opacity:0;" />
    </linearGradient>
  </defs>
  <g
     id="22-22-video-display-brightness">
    <g
       id="g893">
      <rect
         style="opacity:0.00100002"
         width="22"
         height="22"
         x="0"
         y="-1.3897704e-07"
         id="rect2" />
      <path
         d="m 12.876301,8.9584745 a 0.46016319,0.46016319 0 0 1 0,-0.5431773 l 0.409932,-0.5575317 a 0.46016319,0.46016319 0 0 0 -0.421211,-0.729702 l -0.686661,0.074833 a 0.46016319,0.46016319 0 0 1 -0.472454,-0.273631 l -0.278761,-0.63234 a 0.46016319,0.46016319 0 0 0 -0.84244,0 l -0.278761,0.63234 A 0.46016319,0.46016319 0 0 1 9.835522,7.2008632 L 9.1488693,7.1260192 A 0.46016319,0.46016319 0 0 0 8.727651,7.8557212 l 0.4099485,0.5575274 a 0.46016319,0.46016319 0 0 1 0,0.5431752 L 8.727651,9.513949 A 0.46016319,0.46016319 0 0 0 9.1488693,10.24365 L 9.835522,10.16888 a 0.46016319,0.46016319 0 0 1 0.470423,0.271591 l 0.278761,0.632341 a 0.46016319,0.46016319 0 0 0 0.84244,0 l 0.278761,-0.632341 a 0.46016319,0.46016319 0 0 1 0.470404,-0.271591 l 0.68666,0.07477 a 0.46016319,0.46016319 0 0 0 0.42121,-0.729699 z M 11.007967,9.873676 A 1.1867907,1.1867907 0 1 1 12.191691,8.6868794 1.1867907,1.1867907 0 0 1 11.007967,9.873676 Z M 12.288028,6.8267543 11.966211,6.6412548 12.347475,5.9791986 12.669273,6.164696 Z M 8.7645438,8.4767904 V 8.8477876 L 8,8.8409026 V 8.4698231 Z m 4.4827482,0.4304414 0.0058,-0.371008 0.764546,0.012833 -0.0058,0.3710032 z M 10.070216,6.6371528 9.746363,6.8195864 9.368193,6.1534198 9.692043,5.970997 Z m -0.360742,3.8862782 0.320772,0.188585 -0.387397,0.658981 -0.319748,-0.188572 z m 2.303894,0.173209 0.317701,-0.192673 0.396626,0.652823 -0.31772,0.192678 z"
         id="path4-5"
         style="fill:#07a8f9;fill-opacity:1;stroke-width:0.102486" />
      <path
         d="M 18.938051,2.999997 H 3.0619676 C 2.4764676,2.999997 2,3.481711 2,4.073658 v 11.828339 c 0,0.591942 0.4764676,1.098 1.0619676,1.098 h 5.8433446 c -0.1823353,0.597101 -0.6112455,1.34286 -1.4757979,1.34286 v 0.65714 h 7.1409797 v -0.65714 c -0.864552,0 -1.293466,-0.745759 -1.475789,-1.34286 h 5.843346 C 19.52354,16.999997 20,16.493939 20,15.901997 V 4.07341 C 20,3.481479 19.52354,2.999997 18.938051,2.999997 Z M 19,15.701872 c 0,0.104129 0,0.298125 -0.262,0.298125 H 3.3 C 3,15.999997 3,15.80583 3,15.701708 v -1.701711 h 16 z m 0,-2.701875 H 3 v -8.627 c 0,-0.104115 0,-0.373 0.262,-0.373 h 15.476 c 0.262,0 0.262,0.268859 0.262,0.373 z"
         id="path2-3"
         style="fill:#d3dae3;fill-opacity:1;stroke-width:0.233238"
         sodipodi:nodetypes="sssssccccccssssssssccsccssssc" />
    </g>
  </g>
</svg>
